SplineFontDB: 3.2
FontName: SeriousShannsLight
FullName: Serious Shanns Light
FamilyName: Serious Shanns Light
Weight: Light
Copyright: https://github.com/kaBeech/serious-shanns/blob/main/LICENSE
Version: 6.0.0
ItalicAngle: 0
UnderlinePosition: 0
UnderlineWidth: 0
Ascent: 800
Descent: 200
InvalidEm: 0
sfntRevision: 0x00003333
LayerCount: 2
Layer: 0 0 "Back" 1
Layer: 1 0 "Fore" 0
XUID: [1021 329 -1817886000 12366394]
StyleMap: 0x0040
FSType: 4
OS2Version: 3
OS2_WeightWidthSlopeOnly: 0
OS2_UseTypoMetrics: 0
CreationTime: 1532631502
ModificationTime: 315532800
PfmFamily: 81
TTFWeight: 300
TTFWidth: 5
LineGap: 0
VLineGap: 0
Panose: 0 0 0 0 0 0 0 0 0 0
OS2TypoAscent: 613
OS2TypoAOffset: 0
OS2TypoDescent: -188
OS2TypoDOffset: 0
OS2TypoLinegap: 98
OS2WinAscent: 778
OS2WinAOffset: 0
OS2WinDescent: 308
OS2WinDOffset: 0
HheadAscent: 796
HheadAOffset: 0
HheadDescent: -317
HheadDOffset: 0
OS2SubXSize: 317
OS2SubYSize: 293
OS2SubXOff: 0
OS2SubYOff: 37
OS2SupXSize: 317
OS2SupYSize: 293
OS2SupXOff: 0
OS2SupYOff: 171
OS2StrikeYSize: 0
OS2StrikeYPos: 132
OS2CapHeight: 576
OS2XHeight: 485
OS2Vendor: 'NONE'
OS2CodePages: 00000001.00000000
OS2UnicodeRanges: 00000001.00000000.00000000.00000000
MarkAttachClasses: 1
DEI: 91125
LangName: 1033 "" "" "Normal" "FontForge 2.0 : Serious Shanns Light : 1-1-1980" "" "Version 0.2.0"
Encoding: UnicodeBmp
Compacted: 1
UnicodeInterp: none
NameList: AGL For New Fonts
DisplaySize: -48
AntiAlias: 1
FitToEm: 0
WinInfo: 48 16 4
BeginPrivate: 8
BlueValues 32 [-39 -8 492 523 690 718 765 769]
OtherBlues 11 [-297 -287]
BlueScale 9 0.0333333
BlueShift 2 17
StdHW 4 [67]
StdVW 4 [73]
StemSnapH 4 [67]
StemSnapV 7 [68 73]
EndPrivate
BeginChars: 65537 105

StartChar: .notdef
Encoding: 65536 -1 0
Width: 500
GlyphClass: 1
Flags: HMW
HStem: -258 34<80 421 80 455> 705 34<80 421 80 80>
VStem: 46 34<-224 -224 -224 705> 421 34<-224 705 705 705>
LayerCount: 2
Fore
SplineSet
46 739 m 1
 455 739 l 1
 455 -258 l 1
 46 -258 l 1
 46 739 l 1
80 -224 m 1
 421 -224 l 1
 421 705 l 1
 80 705 l 1
 80 -224 l 1
EndSplineSet
Validated: 1
EndChar

StartChar: exclam
Encoding: 33 33 2
Width: 500
GlyphClass: 2
Flags: HMW
HStem: -15.3799 135.375
VStem: 179 143.001 213 78.001 221 72
LayerCount: 2
Fore
SplineSet
299 738 m 0x90
 299 732 297.666992188 694.669921875 295 626.002929688 c 0
 293 557.3359375 292 507.668945312 292 477.001953125 c 0
 291.666015625 461.66796875 291.499023438 447.583984375 291.499023438 434.75 c 0
 291.499023438 421.916015625 291.666015625 410.33203125 292 399.998046875 c 0
 292.666992188 379.331054688 293 361.6640625 293 346.997070312 c 0x90
 293 332.330078125 292.666992188 322.663085938 292 317.99609375 c 0
 291.111328125 311.331054688 290.666992188 302.1484375 290.666992188 290.44921875 c 0
 290.666992188 284.594726562 290.778320312 278.110351562 291.000976562 270.99609375 c 0xa0
 289.66796875 259.663085938 285.000976562 250.663085938 277.000976562 243.99609375 c 0
 269.66796875 237.329101562 260.66796875 233.99609375 250.000976562 233.99609375 c 2
 247.000976562 233.99609375 l 2
 236.333984375 234.663085938 227.666992188 238.330078125 221 244.997070312 c 0x90
 215.666992188 250.997070312 213 259.330078125 213 269.997070312 c 0xa0
 213 276.6640625 214.333007812 287.997070312 217 303.997070312 c 0
 219 313.330078125 220.333007812 323.330078125 221 333.997070312 c 0
 221.666992188 344.6640625 222 367.331054688 222 401.998046875 c 0
 222 415.998046875 221.333007812 437.331054688 220 465.998046875 c 0
 218.666992188 497.331054688 218 531.6640625 218 568.997070312 c 0
 218.666992188 596.330078125 219.666992188 634.997070312 221 684.997070312 c 0
 221.666992188 710.330078125 222 726.997070312 222 734.997070312 c 0
 222.666992188 750.330078125 226.666992188 761.663085938 234 768.99609375 c 0
 241.333007812 776.329101562 250.666015625 779.99609375 261.999023438 779.99609375 c 2
 264.999023438 779.99609375 l 2
 274.999023438 779.99609375 282.999023438 776.99609375 288.999023438 770.99609375 c 0
 295.666015625 764.329101562 299 753.333007812 299 738 c 0x90
302.999023438 7.9990234375 m 0
 290.33203125 -4.66796875 273.33203125 -12.3349609375 251.999023438 -15.001953125 c 0
 249.33203125 -15.251953125 246.727539062 -15.376953125 244.185546875 -15.376953125 c 0
 226.39453125 -15.376953125 211.666015625 -9.251953125 200 2.998046875 c 0
 186 16.998046875 179 33.998046875 179 53.998046875 c 0
 179 71.3310546875 186.333007812 86.3310546875 201 98.998046875 c 0
 217.666992188 112.998046875 236.333984375 119.998046875 257.000976562 119.998046875 c 0
 275.66796875 119.998046875 291.000976562 113.998046875 303.000976562 101.998046875 c 0
 315.66796875 89.3310546875 322.000976562 73.6640625 322.000976562 54.9970703125 c 0xc0
 322.000976562 36.330078125 315.666015625 20.666015625 302.999023438 7.9990234375 c 0
EndSplineSet
Validated: 524289
EndChar

StartChar: quotedbl
Encoding: 34 34 3
Width: 500
GlyphClass: 2
Flags: HMW
HStem: 444.999 328.002
VStem: 128.001 84 287.003 86.998
LayerCount: 2
Fore
SplineSet
333.000976562 773.000976562 m 0
 343.000976562 773.000976562 352.000976562 770.66796875 360.000976562 766.000976562 c 0
 364.000976562 764.000976562 367.333984375 760.66796875 370.000976562 756.000976562 c 0
 372.66796875 750.66796875 374.000976562 744.66796875 374.000976562 738.000976562 c 2
 374.000976562 696.000976562 l 2
 374.000976562 676.66796875 373.333984375 641.000976562 372.000976562 589.000976562 c 0
 370.66796875 537.000976562 368.66796875 499.333984375 366.000976562 476.000976562 c 0
 364.66796875 466.000976562 360.334960938 458.33203125 353.001953125 452.999023438 c 0
 346.334960938 447.666015625 339.001953125 444.999023438 331.001953125 444.999023438 c 2
 328.001953125 444.999023438 l 2
 317.334960938 445.666015625 307.334960938 449.333007812 298.001953125 456 c 0
 291.334960938 460.666992188 288.001953125 467.333984375 288.001953125 476.000976562 c 0
 288.668945312 477.333984375 289.001953125 479.000976562 289.001953125 481.000976562 c 0
 290.334960938 506.333984375 291.001953125 537.3359375 291.001953125 574.002929688 c 2
 291.001953125 612.000976562 l 2
 289.668945312 665.333984375 288.3359375 709.333984375 287.002929688 744.000976562 c 2
 287.002929688 746.002929688 l 2
 287.002929688 751.3359375 288.334960938 756.000976562 291.001953125 760.000976562 c 0
 293.668945312 764.000976562 297.002929688 766.66796875 301.002929688 768.000976562 c 0
 310.3359375 772.000976562 319.002929688 774.002929688 327.002929688 774.002929688 c 0
 329.669921875 773.3359375 331.66796875 773.000976562 333.000976562 773.000976562 c 0
206 476.000976562 m 0
 204.666992188 465.333984375 200.334960938 457.666015625 193.001953125 452.999023438 c 0
 185.001953125 447.666015625 177.334960938 444.999023438 170.001953125 444.999023438 c 2
 168.001953125 444.999023438 l 2
 157.334960938 445.666015625 147.334960938 449.333007812 138.001953125 456 c 0
 131.334960938 460.666992188 128.001953125 467.333984375 128.001953125 476.000976562 c 2
 128.001953125 481.000976562 l 2
 130.001953125 507.66796875 131.001953125 540.000976562 131.001953125 578.000976562 c 0
 130.334960938 588.66796875 130.001953125 600.000976562 130.001953125 612.000976562 c 0
 128.668945312 665.333984375 127.668945312 709.333984375 127.001953125 744.000976562 c 2
 127.001953125 747.000976562 l 2
 127.001953125 751.66796875 128.001953125 756.000976562 130.001953125 760.000976562 c 0
 132.668945312 764.000976562 136.001953125 766.66796875 140.001953125 768.000976562 c 0
 149.14453125 771.4296875 158.532226562 773.14453125 168.1640625 773.14453125 c 0
 169.76953125 773.14453125 171.381835938 773.096679688 173.000976562 773.000976562 c 0
 183.000976562 773.000976562 192.000976562 770.66796875 200.000976562 766.000976562 c 0
 203.333984375 764.000976562 206.333984375 760.66796875 209.000976562 756.000976562 c 0
 211.66796875 750.66796875 213.000976562 744.334960938 213.000976562 737.001953125 c 0
 213.66796875 729.001953125 214.000976562 715.668945312 214.000976562 697.001953125 c 0
 214.000976562 678.334960938 213.333984375 642.66796875 212.000976562 590.000976562 c 0
 210.66796875 537.333984375 208.666992188 499.333984375 206 476.000976562 c 0
EndSplineSet
Validated: 524289
EndChar

StartChar: numbersign
Encoding: 35 35 4
Width: 500
GlyphClass: 2
Flags: HMW
HStem: 200 63.999 454.998 65.002 695.002 20G
LayerCount: 2
Fore
SplineSet
210.005859375 454.998046875 m 1
 171.000976562 263.999023438 l 1
 206.333984375 264.666015625 249.671875 264.998046875 301.004882812 264.998046875 c 2
 309.004882812 264.998046875 l 1
 321.004882812 324.998046875 332.671875 388.331054688 344.004882812 454.998046875 c 1
 210.005859375 454.998046875 l 1
167 200 m 1
 159 200 l 1
 143.666992188 122.666992188 133 70.6669921875 127 44 c 0
 123 32 114.666992188 22.3330078125 102 15 c 0
 94 10.3330078125 86.3330078125 7.9990234375 79 7.9990234375 c 0
 75.6669921875 7.33203125 72.333984375 7.6650390625 69.0009765625 8.998046875 c 0
 59.66796875 10.998046875 52.66796875 17.666015625 48.0009765625 28.9990234375 c 0
 45.333984375 35.666015625 44 42.3330078125 44 49 c 0
 44 55.6669921875 45.0009765625 62.6669921875 47.0009765625 70 c 0
 52.333984375 86.6669921875 62.6669921875 129.666992188 78 199 c 1
 36 199 l 2
 20.6669921875 199 9.6669921875 201.666992188 3 207 c 0
 -3 211.666992188 -6 218 -6 226 c 2
 -6 228 l 2
 -5.3330078125 236.666992188 -2.3330078125 243.666992188 3 249 c 0
 9 255.666992188 19.3330078125 259.333984375 34 260.000976562 c 0
 38.6669921875 260.66796875 46.6669921875 261.000976562 58 261.000976562 c 0
 69.3330078125 261.000976562 80.3330078125 261.333984375 91 262.000976562 c 1
 129 454.000976562 l 1
 117 454.000976562 l 1
 75 453.000976562 l 1
 72 453.000976562 l 2
 60 452.333984375 50.6669921875 455.000976562 44 461.000976562 c 0
 37.3330078125 466.333984375 34 473.333984375 34 482.000976562 c 2
 34 485.000976562 l 2
 34 493.000976562 37 500.000976562 43 506.000976562 c 0
 49.6669921875 512.66796875 60.3330078125 516.334960938 75 517.001953125 c 0
 87.6669921875 517.668945312 107.000976562 518.001953125 133.000976562 518.001953125 c 2
 141.000976562 518.001953125 l 1
 171.000976562 680.001953125 l 2
 175.66796875 694.001953125 182.334960938 703.668945312 191.001953125 709.001953125 c 0
 197.668945312 713.001953125 204.3359375 715.001953125 211.002929688 715.001953125 c 0
 213.669921875 715.001953125 216.669921875 714.668945312 220.002929688 714.001953125 c 0
 232.002929688 711.334960938 241.002929688 705.66796875 247.002929688 697.000976562 c 0
 250.3359375 691.66796875 252.002929688 685.000976562 252.002929688 677.000976562 c 0
 252.669921875 672.333984375 252.336914062 667.666992188 251.00390625 663 c 2
 222.00390625 520 l 1
 355.00390625 520 l 1
 383.00390625 673 l 2
 387.670898438 687 394.337890625 696.666992188 403.004882812 702 c 0
 409.004882812 706 415.337890625 708 422.004882812 708 c 0
 425.337890625 707.333007812 429.004882812 706.666015625 433.004882812 705.999023438 c 0
 445.004882812 703.33203125 454.004882812 697.999023438 460.004882812 689.999023438 c 0
 463.337890625 685.33203125 465.004882812 679.33203125 465.004882812 671.999023438 c 0
 465.004882812 667.33203125 464.337890625 661.999023438 463.004882812 655.999023438 c 0
 455.671875 627.999023438 446.671875 582.999023438 436.004882812 520.999023438 c 1
 448.004882812 520.999023438 l 1
 459.004882812 520.999023438 l 2
 473.004882812 520.999023438 484.337890625 517.33203125 493.004882812 509.999023438 c 0
 501.671875 502.666015625 506.338867188 495.333007812 507.005859375 488 c 0
 506.338867188 479.333007812 503.005859375 471.666015625 497.005859375 464.999023438 c 0
 491.005859375 458.999023438 481.338867188 455.665039062 468.005859375 454.998046875 c 2
 423.005859375 454.998046875 l 1
 391.005859375 263.999023438 l 1
 444.004882812 263.999023438 l 2
 456.671875 263.999023438 465.005859375 261.666015625 469.005859375 256.999023438 c 0
 473.005859375 252.33203125 475.338867188 245.33203125 476.005859375 235.999023438 c 0
 476.005859375 225.33203125 474.005859375 217.33203125 470.005859375 211.999023438 c 0
 465.338867188 205.33203125 456.671875 201.999023438 444.004882812 201.999023438 c 2
 380.004882812 201.999023438 l 1
 366.004882812 121.33203125 356.004882812 67.33203125 350.004882812 39.9990234375 c 0
 345.337890625 28.666015625 337.337890625 19.9990234375 326.004882812 13.9990234375 c 0
 318.671875 9.9990234375 311.338867188 7.9990234375 304.005859375 7.9990234375 c 0
 300.672851562 7.33203125 297.005859375 7.6650390625 293.005859375 8.998046875 c 0
 283.005859375 11.6650390625 275.672851562 17.998046875 271.005859375 27.998046875 c 0
 268.338867188 33.998046875 267.005859375 39.998046875 267.005859375 45.998046875 c 0
 267.005859375 51.998046875 268.005859375 58.6650390625 270.005859375 65.998046875 c 0
 276.672851562 92.6650390625 286.005859375 137.665039062 298.005859375 200.998046875 c 1
 286.005859375 200.998046875 l 1
 167 200 l 1
EndSplineSet
Validated: 524289
EndChar

StartChar: dollar
Encoding: 36 36 5
Width: 500
GlyphClass: 2
Flags: HMW
HStem: -18.9971 64.9971 368 63.0029 653 59<284.996 293.998 284.996 293.998>
VStem: 42.999 72.999 222.998 58 222.998 63.002 401.997 73.999
LayerCount: 2
Fore
SplineSet
397.498046875 245.50390625 m 0xfa
 394.498046875 257.170898438 388.998046875 269.337890625 380.998046875 282.004882812 c 0
 372.998046875 294.671875 361.331054688 306.338867188 345.998046875 317.005859375 c 0
 330.665039062 327.005859375 312.665039062 336.005859375 291.998046875 344.005859375 c 2
 280.998046875 349.005859375 l 1
 280.998046875 335.005859375 l 1
 279.997070312 187.005859375 l 2
 279.330078125 132.338867188 278.663085938 89.671875 277.99609375 59.0048828125 c 1
 290.997070312 65 l 2
 321.6640625 79 347.6640625 98.337890625 368.997070312 123.004882812 c 0
 390.997070312 147.671875 401.997070312 176.004882812 401.997070312 208.004882812 c 0
 401.997070312 221.337890625 400.498046875 233.836914062 397.498046875 245.50390625 c 0xfa
143.99609375 469.002929688 m 0
 160.663085938 451.669921875 183.330078125 439.002929688 211.997070312 431.002929688 c 2
 222.998046875 429.002929688 l 1xf6
 223.665039062 483.002929688 223.997070312 551.002929688 223.997070312 633.002929688 c 2
 223.997070312 646.002929688 l 1
 211.997070312 643.002929688 l 2
 184.6640625 633.669921875 162.331054688 619.336914062 144.998046875 600.00390625 c 0
 125.665039062 581.336914062 115.998046875 558.336914062 115.998046875 531.00390625 c 0
 115.998046875 507.00390625 125.329101562 486.3359375 143.99609375 469.002929688 c 0
146.998046875 -11 m 0
 126.998046875 -5.6669921875 110 2 96 12 c 0
 67.3330078125 30.6669921875 46.3330078125 52.333984375 33 77.0009765625 c 0
 27.6669921875 89.0009765625 25 99.333984375 25 108.000976562 c 0
 25 119.333984375 30.3330078125 127.666992188 41 133 c 0
 48.3330078125 136.333007812 53.666015625 138.333007812 56.9990234375 139 c 0
 60.33203125 139.666992188 62.9990234375 140 64.9990234375 140 c 2
 70.9990234375 140 l 2
 74.9990234375 140 79.166015625 138.166992188 83.4990234375 134.5 c 0
 87.83203125 130.833007812 92.6650390625 125 97.998046875 117 c 0
 111.998046875 95 128.331054688 77.6669921875 146.998046875 65 c 0
 163.665039062 52.3330078125 184.6640625 46 209.997070312 46 c 2
 211.997070312 46 l 1
 220.998046875 46 l 1
 222.331054688 164 222.998046875 266.666992188 222.998046875 354 c 2
 222.998046875 363 l 1
 214.331054688 363.666992188 206.498046875 364.5 199.498046875 365.5 c 2
 181.998046875 368 l 2
 161.331054688 370.666992188 141.998046875 376.666992188 123.998046875 386 c 0
 105.331054688 395.333007812 90.3310546875 406.666015625 78.998046875 419.999023438 c 0
 67.6650390625 433.33203125 58.83203125 447.499023438 52.4990234375 462.499023438 c 0
 46.166015625 477.499023438 42.9990234375 491.999023438 42.9990234375 505.999023438 c 0
 42.9990234375 528.666015625 46.666015625 550.499023438 53.9990234375 571.499023438 c 0
 61.33203125 592.499023438 71.9990234375 611.999023438 85.9990234375 629.999023438 c 0
 99.9990234375 647.999023438 118.666015625 663.666015625 141.999023438 676.999023438 c 0
 163.999023438 690.33203125 188.997070312 699.665039062 216.997070312 704.998046875 c 2
 222.998046875 705.998046875 l 1xfa
 224.331054688 727.331054688 224.999023438 749.331054688 224.999023438 771.998046875 c 0
 225.666015625 786.665039062 228.166015625 797.83203125 232.499023438 805.499023438 c 0
 236.83203125 813.166015625 243.999023438 816.999023438 253.999023438 816.999023438 c 2
 255.999023438 816.999023438 l 2
 266.666015625 817.666015625 274.333007812 813.999023438 279 805.999023438 c 0
 283.666992188 798.666015625 286 788.333007812 286 775 c 2
 286 713 l 1xf6
 293.998046875 712 l 2
 307.331054688 711.333007812 325.666015625 708 348.999023438 702 c 0
 374.33203125 696 393.33203125 690.666992188 405.999023438 686 c 0
 415.999023438 682.666992188 423.331054688 677 427.998046875 669 c 0
 431.998046875 662.333007812 433.999023438 655.666015625 433.999023438 648.999023438 c 0
 433.999023438 646.999023438 433.666015625 644.666015625 432.999023438 641.999023438 c 0
 432.33203125 635.999023438 430.665039062 631.666015625 427.998046875 628.999023438 c 0
 424.665039062 626.33203125 421.1640625 624.83203125 417.497070312 624.499023438 c 0
 413.830078125 624.166015625 410.331054688 623.999023438 406.998046875 623.999023438 c 0
 393.665039062 623.999023438 378.998046875 627.666015625 362.998046875 634.999023438 c 0
 354.331054688 638.999023438 344.498046875 642.83203125 333.498046875 646.499023438 c 0
 322.498046875 650.166015625 309.331054688 652.333007812 293.998046875 653 c 2
 284.99609375 653 l 1
 280.998046875 423 l 1xfa
 288.998046875 421 l 2
 316.331054688 417.666992188 340.6640625 411 361.997070312 401 c 0
 385.330078125 391 403.830078125 379.666992188 417.497070312 367 c 0
 431.1640625 354.333007812 442.6640625 339.833007812 451.997070312 323.5 c 0
 461.330078125 307.166992188 467.663085938 291 470.99609375 275 c 0
 474.329101562 259 475.99609375 242.333007812 475.99609375 225 c 0
 475.99609375 195.666992188 470.829101562 167.833984375 460.49609375 141.500976562 c 0
 450.163085938 115.16796875 436.163085938 92.3349609375 418.49609375 73.001953125 c 0
 400.829101562 53.6689453125 379.99609375 37.001953125 355.99609375 23.001953125 c 0
 334.663085938 9.001953125 310.99609375 -1.6650390625 284.99609375 -8.998046875 c 2
 277.99609375 -11 l 1
 277.99609375 -17.998046875 l 2
 278.663085938 -57.3310546875 279.330078125 -83.998046875 279.997070312 -97.998046875 c 0
 278.6640625 -109.998046875 274.497070312 -119.165039062 267.497070312 -125.498046875 c 0
 260.497070312 -131.831054688 251.997070312 -134.998046875 241.997070312 -134.998046875 c 2
 240.997070312 -134.998046875 l 1
 239.997070312 -134.998046875 l 2
 231.997070312 -134.998046875 225.997070312 -131.998046875 221.997070312 -125.998046875 c 0
 218.6640625 -120.665039062 216.997070312 -112.998046875 216.997070312 -102.998046875 c 2
 216.997070312 -93.998046875 l 2
 218.330078125 -79.3310546875 218.997070312 -57.6640625 218.997070312 -28.9970703125 c 2
 218.997070312 -18.9970703125 l 1
 209.997070312 -18.9970703125 l 1
 205.997070312 -18.9970703125 l 2
 185.330078125 -18.9970703125 165.665039062 -16.3330078125 146.998046875 -11 c 0
EndSplineSet
Validated: 524289
EndChar

StartChar: percent
Encoding: 37 37 6
Width: 500
GlyphClass: 2
Flags: HMW
HStem: -18.001 57 180.998 54.0323 442 54.999 642.043 52.9575
VStem: 11.001 53.001 27.504 68.499 187.002 45.998 268.003 49.002 378.001 70.001 438.075 51.9275
LayerCount: 2
Fore
SplineSet
328.00390625 58.9990234375 m 0xf340
 336.670898438 46.9990234375 352.337890625 40.33203125 375.004882812 38.9990234375 c 2
 378.000976562 38.9990234375 l 2xf380
 396.000976562 38.9990234375 410.171875 45.166015625 420.504882812 57.4990234375 c 0
 430.837890625 69.83203125 436.670898438 85.6650390625 438.00390625 104.998046875 c 2
 438.00390625 105.998046875 l 1
 438.00390625 108.998046875 l 2
 438.051757812 110.474609375 438.075195312 111.9296875 438.075195312 113.362304688 c 0
 438.075195312 131.977539062 434.051757812 146.85546875 426.00390625 157.998046875 c 0
 414.670898438 173.331054688 397.337890625 180.998046875 374.004882812 180.998046875 c 0
 356.004882812 180.998046875 342.004882812 173.998046875 332.004882812 159.998046875 c 0
 322.671875 145.998046875 317.671875 128.331054688 317.004882812 106.998046875 c 2
 317.004882812 102.998046875 l 2
 316.953125 101.561523438 316.927734375 100.1484375 316.927734375 98.7587890625 c 0
 316.927734375 82.0966796875 320.619140625 68.8447265625 328.00390625 58.9990234375 c 0xf340
313.001953125 -0.5009765625 m 0
 297.668945312 11.166015625 286.334960938 25.9990234375 279.001953125 43.9990234375 c 0
 271.668945312 61.9990234375 268.00390625 81.33203125 268.00390625 101.999023438 c 2
 268.00390625 103.999023438 l 2
 268.00390625 142.666015625 277.670898438 174.166015625 297.00390625 198.499023438 c 0
 316.336914062 222.83203125 344.336914062 234.999023438 381.00390625 234.999023438 c 0
 382.00390625 235.01953125 382.999023438 235.030273438 383.98828125 235.030273438 c 0
 414.64453125 235.030273438 439.982421875 225.01953125 460.002929688 204.999023438 c 0
 470.002929688 194.33203125 477.669921875 179.999023438 483.002929688 161.999023438 c 0
 487.669921875 147.999023438 490.002929688 132.33203125 490.002929688 114.999023438 c 0xf340
 490.002929688 110.999023438 489.669921875 104.999023438 489.002929688 96.9990234375 c 0
 487.002929688 58.33203125 476.3359375 29.33203125 457.002929688 9.9990234375 c 0
 437.669921875 -8.66796875 408.336914062 -18.0009765625 369.00390625 -18.0009765625 c 2
 366.00390625 -18.0009765625 l 2
 346.00390625 -18.0009765625 328.334960938 -12.16796875 313.001953125 -0.5009765625 c 0
76.0048828125 517.999023438 m 0
 85.337890625 505.999023438 102.670898438 498.999023438 128.00390625 496.999023438 c 2
 129.00390625 496.999023438 l 2
 147.00390625 496.999023438 160.670898438 503.33203125 170.00390625 515.999023438 c 0
 179.336914062 528.666015625 184.669921875 544.999023438 186.002929688 564.999023438 c 0
 186.669921875 566.33203125 187.002929688 567.999023438 187.002929688 569.999023438 c 0
 186.3359375 593.33203125 181.002929688 610.999023438 171.002929688 622.999023438 c 0
 160.3359375 635.666015625 145.3359375 641.999023438 126.002929688 641.999023438 c 0
 125.162109375 642.028320312 124.329101562 642.04296875 123.504882812 642.04296875 c 0
 105.373046875 642.04296875 91.2060546875 635.028320312 81.0029296875 620.999023438 c 0
 71.669921875 607.666015625 66.0029296875 589.999023438 64.0029296875 567.999023438 c 2
 64.0029296875 562.999023438 l 2xfb
 63.955078125 561.618164062 63.931640625 560.259765625 63.931640625 558.922851562 c 0
 63.931640625 541.545898438 67.95703125 527.904296875 76.0048828125 517.999023438 c 0
134.001953125 195 m 2
 279.001953125 472 l 2
 327.668945312 565.333007812 360.668945312 632.333007812 378.001953125 673 c 0
 386.001953125 685 397.334960938 691 412.001953125 691 c 0
 418.668945312 691 425.3359375 689.333007812 432.002929688 686 c 0
 442.669921875 680.666992188 448.002929688 673.666992188 448.002929688 665 c 0
 448.002929688 657.666992188 444.671875 648.666992188 438.004882812 638 c 0
 412.671875 597.333007812 356.336914062 493.666015625 269.00390625 326.999023438 c 0
 183.00390625 160.33203125 125.336914062 47.33203125 96.00390625 -12.0009765625 c 0
 84.6708984375 -32.0009765625 73.00390625 -42.0009765625 61.00390625 -42.0009765625 c 0
 57.00390625 -42.0009765625 52.1708984375 -40.66796875 46.50390625 -38.0009765625 c 0
 40.8369140625 -35.333984375 36.3369140625 -31.833984375 33.00390625 -27.5009765625 c 0
 29.6708984375 -23.16796875 27.837890625 -17.5009765625 27.5048828125 -10.5009765625 c 0xf780
 27.4853515625 -10.08984375 27.4755859375 -9.6728515625 27.4755859375 -9.2509765625 c 0
 27.4755859375 -2.49609375 29.9853515625 5.5869140625 35.0048828125 14.9990234375 c 0
 49.0048828125 43.666015625 82.001953125 103.666992188 134.001953125 195 c 2
60.5009765625 459.5 m 0
 44.16796875 471.166992188 31.8349609375 486 23.501953125 504 c 0
 15.1689453125 522 11.001953125 541.333007812 11.001953125 562 c 2
 11.001953125 564 l 2xfb
 11.001953125 602.666992188 21.6689453125 634.166992188 43.001953125 658.5 c 0
 64.3349609375 682.833007812 94.3349609375 695 133.001953125 695 c 0
 133.918945312 695.020507812 134.831054688 695.03125 135.73828125 695.03125 c 0
 163.8515625 695.03125 187.272460938 685.020507812 206.000976562 665 c 0
 215.333984375 654.333007812 222.333984375 640 227.000976562 622 c 0
 231.000976562 608 233.000976562 591.666992188 233.000976562 573 c 0
 233.000976562 526.333007812 223.000976562 492.333007812 203.000976562 471 c 0
 185.000976562 451.666992188 157.000976562 442 119.000976562 442 c 2
 117.000976562 442 l 2
 95.66796875 442 76.833984375 447.833007812 60.5009765625 459.5 c 0
EndSplineSet
Validated: 524289
EndChar

StartChar: ampersand
Encoding: 38 38 7
Width: 500
GlyphClass: 2
Flags: HMW
HStem: -32 74.001 655.001 59.1001
VStem: 2.003 80.0029 88.003 76.002 323.005 63.1093
LayerCount: 2
Fore
SplineSet
485 11 m 2
 485 3 l 2
 483 -13 478.333007812 -23 471 -27 c 0
 467 -29.6669921875 462.333007812 -31 457 -31 c 0
 452.333007812 -31 446.666015625 -29.3330078125 439.999023438 -26 c 0
 426.666015625 -19.3330078125 414.999023438 -7.3330078125 404.999023438 10 c 0
 402.999023438 13.3330078125 398.999023438 23 392.999023438 39 c 0
 386.999023438 55 381.999023438 67 377.999023438 75 c 2
 370.999023438 90 l 1
 350.33203125 61.3330078125 338.33203125 45 334.999023438 41 c 0
 331.666015625 37.6669921875 326.333007812 32 319 24 c 0
 311.666992188 16 305.333984375 10 300.000976562 6 c 0
 294.66796875 2.6669921875 287.66796875 -2 279.000976562 -8 c 0
 271.000976562 -14 263.000976562 -18.3330078125 255.000976562 -21 c 0
 247.000976562 -23.6669921875 237.66796875 -26 227.000976562 -28 c 0
 215.66796875 -30.6669921875 204.334960938 -32 193.001953125 -32 c 0
 157.668945312 -32 125.3359375 -23 96.0029296875 -5 c 0
 66.669921875 13 43.669921875 37 27.0029296875 67 c 0
 10.3359375 97.6669921875 2.0029296875 130.333984375 2.0029296875 165.000976562 c 0
 2.0029296875 219.000976562 12.0029296875 265.333984375 32.0029296875 304.000976562 c 0
 56.0029296875 352.000976562 96.0029296875 388.333984375 152.002929688 413.000976562 c 2
 162.002929688 418.000976562 l 1
 152.002929688 434.000976562 142.669921875 449.000976562 134.002929688 463.000976562 c 0
 125.3359375 476.333984375 119.3359375 486.000976562 116.002929688 492.000976562 c 0
 112.669921875 498.000976562 108.669921875 505.333984375 104.002929688 514.000976562 c 0
 99.3359375 522.66796875 96.3359375 530.000976562 95.0029296875 536.000976562 c 0
 90.3359375 554.000976562 88.0029296875 571.66796875 88.0029296875 589.000976562 c 0
 88.0029296875 600.333984375 89.669921875 611.333984375 93.0029296875 622.000976562 c 0
 95.669921875 632.66796875 100.669921875 643.66796875 108.002929688 655.000976562 c 0
 115.3359375 666.333984375 124.3359375 676.333984375 135.002929688 685.000976562 c 0
 145.669921875 693.66796875 160.002929688 700.66796875 178.002929688 706.000976562 c 0
 195.3359375 711.333984375 215.3359375 714.000976562 238.002929688 714.000976562 c 0
 239.870117188 714.067382812 241.73046875 714.100585938 243.583984375 714.100585938 c 0
 260.263671875 714.100585938 276.403320312 711.400390625 292.002929688 706.000976562 c 0
 310.002929688 700.000976562 326.002929688 691.66796875 340.002929688 681.000976562 c 0
 354.002929688 669.66796875 365.3359375 655.334960938 374.002929688 638.001953125 c 0
 382.002929688 620.668945312 386.002929688 601.3359375 386.002929688 580.002929688 c 0
 386.077148438 577.631835938 386.114257812 575.28515625 386.114257812 572.962890625 c 0
 386.114257812 554.396484375 383.744140625 537.41015625 379.00390625 522.00390625 c 0
 373.670898438 504.00390625 367.00390625 489.336914062 359.00390625 478.00390625 c 0
 351.00390625 466.670898438 341.00390625 455.670898438 329.00390625 445.00390625 c 0
 317.00390625 434.336914062 306.00390625 425.669921875 296.00390625 419.002929688 c 0
 285.336914062 412.3359375 273.00390625 405.668945312 259.00390625 399.001953125 c 2
 250.00390625 395.001953125 l 1
 255.00390625 386.001953125 l 2
 267.670898438 364.668945312 288.337890625 333.668945312 317.004882812 293.001953125 c 0
 345.671875 252.334960938 364.004882812 225.66796875 372.004882812 213.000976562 c 2
 381.004882812 198.000976562 l 1
 391.004882812 217.333984375 398.671875 233.333984375 404.004882812 246.000976562 c 0
 410.004882812 258.66796875 414.671875 268.66796875 418.004882812 276.000976562 c 0
 421.337890625 283.333984375 424.004882812 288.666992188 426.004882812 292 c 0
 436.671875 308 446.338867188 317.666992188 455.005859375 321 c 0
 457.672851562 321.666992188 460.672851562 322 464.005859375 322 c 0
 470.005859375 322 476.338867188 320.333007812 483.005859375 317 c 0
 491.005859375 313.666992188 496.005859375 306.333984375 498.005859375 295.000976562 c 0
 498.672851562 291.66796875 499.005859375 288.66796875 499.005859375 286.000976562 c 0
 499.005859375 276.000976562 496.005859375 264.66796875 490.005859375 252.000976562 c 0
 487.338867188 246.66796875 477.671875 233.66796875 461.004882812 213.000976562 c 0
 444.337890625 192.333984375 430.337890625 173.333984375 419.004882812 156.000976562 c 2
 416.004882812 151.000976562 l 1
 426.671875 133.000976562 446.004882812 99.333984375 474.004882812 50.0009765625 c 0
 481.337890625 38.0009765625 485 25 485 11 c 2
164.004882812 572.000976562 m 0
 164.004882812 554.000976562 168.671875 534.333984375 178.004882812 513.000976562 c 0
 188.004882812 492.333984375 199.671875 474.000976562 213.004882812 458.000976562 c 2
 217.004882812 453.000976562 l 1
 223.004882812 455.000976562 l 2
 238.337890625 459.66796875 251.337890625 464.66796875 262.004882812 470.000976562 c 0
 272.671875 475.333984375 283.004882812 482.333984375 293.004882812 491.000976562 c 0
 303.004882812 499.66796875 310.337890625 510.66796875 315.004882812 524.000976562 c 0
 320.337890625 536.66796875 323.004882812 551.66796875 323.004882812 569.000976562 c 0
 323.004882812 597.000976562 314.337890625 618.333984375 297.004882812 633.000976562 c 0
 279.671875 647.66796875 259.338867188 655.000976562 236.005859375 655.000976562 c 0
 209.338867188 655.000976562 190.005859375 646.000976562 178.005859375 628.000976562 c 0
 168.672851562 614.000976562 164.004882812 595.333984375 164.004882812 572.000976562 c 0
82.005859375 174.000976562 m 0
 82.005859375 136.66796875 92.3388671875 105.66796875 113.005859375 81.0009765625 c 0
 133.672851562 55.0009765625 160.672851562 42.0009765625 194.005859375 42.0009765625 c 0
 211.338867188 42.66796875 229.338867188 46.0009765625 248.005859375 52.0009765625 c 0
 254.672851562 54.0009765625 261.672851562 57.66796875 269.005859375 63.0009765625 c 0
 277.005859375 67.66796875 283.005859375 71.66796875 287.005859375 75.0009765625 c 0
 291.005859375 78.333984375 296.005859375 83.333984375 302.005859375 90.0009765625 c 0
 308.005859375 96.66796875 312.005859375 101.334960938 314.005859375 104.001953125 c 0
 316.672851562 106.001953125 320.33984375 110.668945312 325.006835938 118.001953125 c 0
 329.673828125 125.334960938 333.673828125 131.001953125 337.006835938 135.001953125 c 1
 323.006835938 165.001953125 312.006835938 187.334960938 304.006835938 202.001953125 c 0
 295.33984375 218.001953125 279.006835938 243.334960938 255.006835938 278.001953125 c 0
 231.006835938 312.668945312 212.33984375 340.668945312 199.006835938 362.001953125 c 1
 191.006835938 359.001953125 l 2
 170.33984375 349.001953125 152.672851562 337.334960938 138.005859375 324.001953125 c 0
 122.672851562 310.668945312 111.005859375 295.668945312 103.005859375 279.001953125 c 0
 95.6728515625 262.334960938 90.33984375 245.66796875 87.0068359375 229.000976562 c 0
 83.673828125 212.333984375 82.005859375 194.000976562 82.005859375 174.000976562 c 0
EndSplineSet
Validated: 524289
EndChar

StartChar: quotesingle
Encoding: 39 39 8
Width: 500
GlyphClass: 2
Flags: HMW
HStem: 456 307.126
VStem: 208.001 84
LayerCount: 2
Fore
SplineSet
286 487 m 0
 284.666992188 476.333007812 280.334960938 468.333007812 273.001953125 463 c 0
 265.668945312 458.333007812 258.001953125 456 250.001953125 456 c 2
 248.001953125 456 l 2
 236.668945312 456.666992188 226.668945312 460.333984375 218.001953125 467.000976562 c 0
 211.334960938 472.333984375 208.001953125 479.333984375 208.001953125 488.000976562 c 2
 208.001953125 491.000976562 l 1
 208.001953125 492.000976562 l 2
 209.848632812 519.694335938 210.771484375 551.71875 210.771484375 588.075195312 c 0
 210.771484375 630.48828125 209.514648438 678.796875 207.001953125 733.000976562 c 2
 207.001953125 735.000976562 l 2
 207.001953125 740.333984375 208.001953125 745.000976562 210.001953125 749.000976562 c 0
 212.668945312 753.000976562 216.001953125 755.66796875 220.001953125 757.000976562 c 0
 229.334960938 761.083984375 238.922851562 763.125976562 248.765625 763.125976562 c 0
 250.171875 763.125976562 251.583984375 763.083984375 253.000976562 763.000976562 c 0
 263.000976562 762.333984375 272.000976562 759.666992188 280.000976562 755 c 0
 284.000976562 753 287.333984375 749.666992188 290.000976562 745 c 0
 292.000976562 740.333007812 293.000976562 734 293.000976562 726 c 0
 293.66796875 718 294.000976562 705 294.000976562 687 c 0
 294.000976562 669 293.333984375 637 292.000976562 591 c 0
 290.66796875 545 288.666992188 510.333007812 286 487 c 0
EndSplineSet
Validated: 524289
EndChar

StartChar: parenleft
Encoding: 40 40 9
Width: 500
GlyphClass: 2
Flags: HMW
HStem: -122 64.999 743 61<349.667 363>
VStem: 110.856 78.1449
LayerCount: 2
Fore
SplineSet
389 -93 m 0
 389 -101 385.666992188 -107.666992188 379 -113 c 0
 373 -119 366.333007812 -122 359 -122 c 0
 316.333007812 -121.333007812 277.666015625 -105.666015625 242.999023438 -74.9990234375 c 0
 208.33203125 -44.33203125 179.999023438 -1.33203125 157.999023438 54.0009765625 c 0
 135.999023438 110.000976562 121.33203125 174.333984375 113.999023438 247.000976562 c 0
 111.999023438 267.000976562 110.999023438 292.000976562 110.999023438 322.000976562 c 0
 110.903320312 326.288085938 110.85546875 330.731445312 110.85546875 335.331054688 c 0
 110.85546875 362.921875 112.5703125 396.145507812 115.999023438 435.000976562 c 0
 123.33203125 512.333984375 136.33203125 575.666992188 154.999023438 625 c 0
 162.999023438 647 173.999023438 668.333007812 187.999023438 689 c 0
 201.999023438 709.666992188 217.999023438 728.666992188 235.999023438 746 c 0
 253.33203125 763.333007812 272.999023438 777.333007812 294.999023438 788 c 0
 317.666015625 798.666992188 339.333007812 804 360 804 c 0
 370 804 377.333007812 802 382 798 c 0
 387.333007812 793.333007812 390 785.333007812 390 774 c 0
 390 762.666992188 387.333007812 754.666992188 382 750 c 0
 376 745.333007812 368 743 358 743 c 0
 338.666992188 743 320.666992188 737.333007812 304 726 c 0
 288 715.333007812 274 700.666015625 262 681.999023438 c 0
 238.666992188 647.33203125 221.333984375 604.999023438 210.000976562 554.999023438 c 0
 201.333984375 520.33203125 195.333984375 472.33203125 192.000976562 410.999023438 c 0
 190.000976562 379.666015625 189.000976562 351.666015625 189.000976562 326.999023438 c 0
 189.66796875 301.666015625 190.66796875 279.666015625 192.000976562 260.999023438 c 0
 195.333984375 220.33203125 202.666992188 180.33203125 214 140.999023438 c 0
 224.666992188 101.666015625 237.666992188 67.9990234375 253 39.9990234375 c 0
 267.666992188 11.33203125 284.333984375 -12.0009765625 303.000976562 -30.0009765625 c 0
 322.333984375 -48.0009765625 341.000976562 -57.0009765625 359.000976562 -57.0009765625 c 0
 369.000976562 -57.0009765625 376.66796875 -59.333984375 382.000976562 -64.0009765625 c 0
 386.66796875 -68.66796875 389 -78.3330078125 389 -93 c 0
EndSplineSet
Validated: 524289
EndChar

StartChar: parenright
Encoding: 41 41 10
Width: 500
GlyphClass: 2
Flags: HMW
HStem: -122 65.001 743.001 61
VStem: 311.999 78
LayerCount: 2
Fore
SplineSet
387 247 m 0
 379.666992188 174.333007812 365 110 343 54 c 0
 321 -1.3330078125 292.666992188 -44.3330078125 258 -75 c 0
 222.666992188 -106.333007812 184 -122 142 -122 c 0
 135.333007812 -121.333007812 128.666015625 -118.333007812 121.999023438 -113 c 0
 114.666015625 -107.666992188 110.999023438 -101 110.999023438 -93 c 0
 110.999023438 -78.3330078125 113.666015625 -68.666015625 118.999023438 -63.9990234375 c 0
 123.666015625 -59.33203125 131.333007812 -56.9990234375 142 -56.9990234375 c 0
 160 -56.9990234375 178.333007812 -47.9990234375 197 -29.9990234375 c 0
 215.666992188 -11.33203125 232.666992188 12.0009765625 248 40.0009765625 c 0
 262.666992188 68.0009765625 275.666992188 101.66796875 287 141.000976562 c 0
 298.333007812 180.333984375 305.666015625 220.333984375 308.999023438 261.000976562 c 0
 310.999023438 281.000976562 311.999023438 303.333984375 311.999023438 328.000976562 c 0
 311.999023438 352.66796875 310.999023438 380.334960938 308.999023438 411.001953125 c 0
 305.666015625 471.668945312 299.666015625 519.668945312 290.999023438 555.001953125 c 0
 278.999023438 605.001953125 261.666015625 647.668945312 238.999023438 683.001953125 c 0
 227.666015625 700.334960938 213.666015625 714.66796875 196.999023438 726.000976562 c 0
 180.33203125 737.333984375 162.665039062 743.000976562 143.998046875 743.000976562 c 0
 133.998046875 743.000976562 125.665039062 745.333984375 118.998046875 750.000976562 c 0
 113.665039062 754.000976562 110.998046875 761.66796875 110.998046875 773.000976562 c 0
 110.331054688 780.333984375 110.998046875 786.000976562 112.998046875 790.000976562 c 0
 114.998046875 794.66796875 117.331054688 797.66796875 119.998046875 799.000976562 c 0
 125.998046875 802.333984375 132.998046875 804.000976562 140.998046875 804.000976562 c 0
 162.998046875 804.000976562 184.665039062 798.66796875 205.998046875 788.000976562 c 0
 227.331054688 777.333984375 246.998046875 763.333984375 264.998046875 746.000976562 c 0
 282.998046875 728.66796875 298.998046875 709.66796875 312.998046875 689.000976562 c 0
 326.998046875 667.66796875 337.998046875 646.334960938 345.998046875 625.001953125 c 0
 364.665039062 575.668945312 377.33203125 512.3359375 383.999023438 435.002929688 c 0
 387.999023438 389.669921875 389.999023438 352.002929688 389.999023438 322.002929688 c 0
 389.999023438 292.002929688 389 267 387 247 c 0
EndSplineSet
Validated: 524289
EndChar

StartChar: asterisk
Encoding: 42 42 11
Width: 500
GlyphClass: 2
Flags: HMW
HStem: 303 84<44.332 47 44 63.999> 315.998 56.999 315.998 69.999
VStem: 317 71.9951
LayerCount: 2
Fore
SplineSet
379 132 m 0x50
 373 128 365.33203125 126.333007812 355.999023438 127 c 0
 347.33203125 127 339.33203125 128.666992188 331.999023438 132 c 0
 324.666015625 135.333007812 319.666015625 140.666015625 316.999023438 147.999023438 c 0
 308.33203125 175.999023438 290.665039062 215.33203125 263.998046875 265.999023438 c 2
 254.998046875 282.999023438 l 1
 246.998046875 265.999023438 l 2
 214.998046875 203.33203125 195.331054688 161.999023438 187.998046875 141.999023438 c 0
 185.998046875 136.666015625 182.665039062 132.333007812 177.998046875 129 c 0
 173.331054688 126.333007812 167.998046875 124.666015625 161.998046875 123.999023438 c 2
 156.998046875 123.999023438 l 2
 144.998046875 123.999023438 134.998046875 126.33203125 126.998046875 130.999023438 c 0
 122.998046875 132.999023438 119.331054688 136.666015625 115.998046875 141.999023438 c 0
 112.665039062 147.999023438 110.33203125 154.666015625 108.999023438 161.999023438 c 2
 108.999023438 164.999023438 l 2
 108.999023438 171.666015625 110.666015625 178.333007812 113.999023438 185 c 2
 189.999023438 309 l 1
 123.33203125 305 76.9990234375 303 50.9990234375 303 c 0
 37.666015625 303 27.3330078125 307.333007812 20 316 c 0
 12.6669921875 324 9 333 9 343 c 2
 9 346 l 2
 9 356 11.6669921875 365.333007812 17 374 c 0
 19.6669921875 378.666992188 23.333984375 382 28.0009765625 384 c 0
 33.333984375 386 38.6669921875 387 44 387 c 2
 47 387 l 2x90
 77.6669921875 384.333007812 129 380.666015625 201 375.999023438 c 1
 192 391.999023438 l 2
 163.333007812 440.666015625 139.666015625 477.999023438 120.999023438 503.999023438 c 0
 114.33203125 515.33203125 110.999023438 526.33203125 110.999023438 536.999023438 c 2
 110.999023438 542.999023438 l 2
 112.33203125 553.666015625 116.665039062 560.666015625 123.998046875 563.999023438 c 1
 123.998046875 564.999023438 l 1
 129.331054688 568.33203125 135.6640625 569.999023438 142.997070312 569.999023438 c 0
 150.330078125 570.666015625 157.997070312 568.666015625 165.997070312 563.999023438 c 0
 173.997070312 559.33203125 179.997070312 552.665039062 183.997070312 543.998046875 c 0
 191.330078125 527.331054688 213.663085938 483.6640625 250.99609375 412.997070312 c 1
 258.99609375 427.997070312 l 2
 285.663085938 473.997070312 305.99609375 512.330078125 319.99609375 542.997070312 c 0
 323.99609375 550.997070312 329.663085938 557.330078125 336.99609375 561.997070312 c 0
 343.928710938 566.50390625 350.681640625 568.756835938 357.254882812 568.756835938 c 0
 363.322265625 568.756835938 369.236328125 566.836914062 374.99609375 562.997070312 c 0
 379.663085938 560.330078125 383.663085938 556.330078125 386.99609375 550.997070312 c 0
 390.329101562 545.6640625 391.99609375 538.6640625 391.99609375 529.997070312 c 0
 391.99609375 521.330078125 389.329101562 512.997070312 383.99609375 504.997070312 c 0
 362.663085938 473.6640625 338.99609375 434.6640625 312.99609375 387.997070312 c 2
 304.99609375 372.997070312 l 1
 321.99609375 372.997070312 l 2x50
 381.329101562 372.997070312 423.662109375 376.6640625 448.995117188 383.997070312 c 0
 452.328125 385.330078125 455.661132812 385.997070312 458.994140625 385.997070312 c 0
 466.327148438 385.997070312 472.66015625 383.6640625 477.993164062 378.997070312 c 0
 486.66015625 370.997070312 491.327148438 362.6640625 491.994140625 353.997070312 c 0
 491.994140625 348.6640625 491.327148438 343.331054688 489.994140625 337.998046875 c 0
 486.661132812 325.331054688 481.328125 316.998046875 473.995117188 312.998046875 c 0
 471.328125 311.665039062 468.661132812 310.998046875 465.994140625 310.998046875 c 0
 462.661132812 310.331054688 459.994140625 310.331054688 457.994140625 310.998046875 c 0
 440.661132812 314.331054688 409.994140625 315.998046875 365.994140625 315.998046875 c 0x30
 359.328125 316.33203125 350.995117188 316.499023438 340.995117188 316.499023438 c 0
 330.995117188 316.499023438 319.328125 316.33203125 305.995117188 315.998046875 c 1
 381.995117188 185.998046875 l 2
 387.328125 174.665039062 389.995117188 164.665039062 389.995117188 155.998046875 c 0
 389.328125 154.665039062 388.995117188 152.998046875 388.995117188 150.998046875 c 0
 388.328125 141.665039062 385 135.333007812 379 132 c 0x50
EndSplineSet
Validated: 524289
EndChar

StartChar: plus
Encoding: 43 43 12
Width: 500
GlyphClass: 2
Flags: HMW
HStem: 367.001 63.999
VStem: 217.997 62.0029
LayerCount: 2
Fore
SplineSet
108 366 m 2
 94 366 84 369.333007812 78 376 c 0
 71.3330078125 382 68 389.666992188 68 399 c 2
 68 402 l 2
 68.6669921875 410.666992188 71.6669921875 418 77 424 c 0
 83 430 92 433 104 433 c 2
 107 433 l 2
 154.333007812 431.666992188 188.330078125 431 208.997070312 431 c 2
 217.997070312 431 l 1
 217.997070312 441 l 2
 217.997070312 474.333007812 217.333007812 510.333007812 216 549 c 2
 216 553 l 2
 216 563.666992188 219 571.333984375 225 576.000976562 c 0
 230.333007812 580.000976562 238.333007812 582.000976562 249 582.000976562 c 2
 253 582.000976562 l 2
 262.333007812 582.000976562 270 580.000976562 276 576.000976562 c 0
 280.666992188 572.66796875 283 565.66796875 283 555.000976562 c 2
 283 550.000976562 l 2
 281 511.333984375 280 474.333984375 280 439.000976562 c 2
 280 430.000976562 l 1
 400 430.000976562 l 2
 412.666992188 430.000976562 421 427.66796875 425 423.000976562 c 0
 429.666992188 417.66796875 432.333984375 410.666992188 433.000976562 402 c 0
 432.333984375 396.666992188 431.666992188 392.000976562 431 388.000976562 c 0
 430.333007812 384.000976562 428.666015625 380 425.999023438 376 c 0
 422.666015625 370.666992188 415.666015625 368.000976562 404.999023438 368.000976562 c 2
 400.999023438 368.000976562 l 2
 389.666015625 369.333984375 373.666015625 370.000976562 352.999023438 370.000976562 c 0
 332.999023438 370.000976562 308.33203125 369.66796875 278.999023438 369.000976562 c 1
 278.999023438 359.000976562 l 1
 278.999023438 295.000976562 l 2
 279.666015625 270.333984375 280 255.333984375 280 250.000976562 c 0
 279.333007812 238.000976562 276.665039062 229.66796875 271.998046875 225.000976562 c 0
 267.331054688 220.333984375 260.6640625 217.666992188 251.997070312 217 c 0
 241.330078125 217.666992188 233.330078125 220 227.997070312 224 c 0
 221.330078125 228.666992188 217.997070312 237.333984375 217.997070312 250.000976562 c 2
 217.997070312 367.000976562 l 1
 208.997070312 367.000976562 l 1
 108 366 l 2
EndSplineSet
Validated: 524289
EndChar

StartChar: comma
Encoding: 44 44 13
Width: 500
GlyphClass: 2
Flags: HMW
VStem: 158 185.998
LayerCount: 2
Fore
SplineSet
194 -207 m 0
 182 -207 172.333007812 -203.333007812 165 -196 c 0
 161 -191.333007812 158.666992188 -185.666015625 158 -178.999023438 c 0
 157.333007812 -177.666015625 157 -176.666015625 157 -175.999023438 c 0
 157.666992188 -171.999023438 160 -165.999023438 164 -157.999023438 c 0
 178 -137.999023438 197.333007812 -93.666015625 222 -24.9990234375 c 0
 247.333007812 43.66796875 262.666015625 91.66796875 267.999023438 119.000976562 c 0
 269.33203125 125.66796875 272.665039062 131.000976562 277.998046875 135.000976562 c 0
 283.998046875 139.000976562 289.998046875 141.000976562 295.998046875 141.000976562 c 2
 297.998046875 141.000976562 l 2
 304.665039062 141.000976562 310.998046875 140.333984375 316.998046875 139.000976562 c 0
 325.665039062 136.333984375 332.665039062 131.333984375 337.998046875 124.000976562 c 0
 341.998046875 119.333984375 343.998046875 113.333984375 343.998046875 106.000976562 c 0
 343.998046875 104.66796875 343.665039062 102.000976562 342.998046875 98.0009765625 c 0
 336.331054688 65.333984375 321.998046875 15.333984375 299.998046875 -51.9990234375 c 0
 287.998046875 -89.33203125 277.998046875 -117.665039062 269.998046875 -136.998046875 c 0
 261.331054688 -155.665039062 254.6640625 -168.33203125 249.997070312 -174.999023438 c 0
 240.6640625 -187.666015625 228.6640625 -196.666015625 213.997070312 -201.999023438 c 0
 205.997070312 -205.33203125 199.333007812 -207 194 -207 c 0
EndSplineSet
Validated: 524289
EndChar

StartChar: hyphen
Encoding: 45 45 14
Width: 500
GlyphClass: 2
Flags: HMW
HStem: 252 68<138.998 150.665> 259 61
VStem: 105.998 289.002
LayerCount: 2
Fore
SplineSet
106 290 m 2x60
 106 301.333007812 109 309.333007812 115 314 c 0
 119.666992188 318 127 320 137 320 c 0
 175 320 220.333007812 320.333007812 273 321 c 0
 325.666992188 322.333007812 355.666992188 323 363 323 c 0
 375.666992188 323 384 320.666992188 388 316 c 0
 392 310.666992188 394.333007812 303.666992188 395 295 c 0
 395 284.333007812 393 276.333007812 389 271 c 0
 384.333007812 264.333007812 375.666015625 261 362.999023438 261 c 0
 354.33203125 261 320.665039062 259.666992188 261.998046875 257 c 0
 203.331054688 253.666992188 162.331054688 252 138.998046875 252 c 0xa0
 128.331054688 252.666992188 120.331054688 255 114.998046875 259 c 0
 108.998046875 264.333007812 105.998046875 273.333007812 105.998046875 286 c 2
 106 290 l 2x60
EndSplineSet
Validated: 524289
EndChar

StartChar: period
Encoding: 46 46 15
Width: 500
GlyphClass: 2
Flags: HMW
HStem: -4 134.053
VStem: 179.001 143.001
LayerCount: 2
Fore
SplineSet
252 -4 m 2
 243 -4 l 2
 242.086914062 -4.03515625 241.182617188 -4.052734375 240.287109375 -4.052734375 c 0
 224.166015625 -4.052734375 210.737304688 1.6318359375 200.000976562 13 c 0
 186.000976562 27.6669921875 179.000976562 44.6669921875 179.000976562 64 c 0
 179.000976562 81.3330078125 186.333984375 96.3330078125 201.000976562 109 c 0
 217.66796875 123 236.334960938 130 257.001953125 130 c 0
 257.984375 130.03515625 258.958007812 130.052734375 259.922851562 130.052734375 c 0
 277.274414062 130.052734375 291.633789062 124.368164062 303.001953125 113 c 0
 315.668945312 100.333007812 322.001953125 84.666015625 322.001953125 65.9990234375 c 0
 322.001953125 47.33203125 315.668945312 31.6650390625 303.001953125 18.998046875 c 0
 291.001953125 6.3310546875 274 -1.3330078125 252 -4 c 2
EndSplineSet
Validated: 524289
EndChar

StartChar: slash
Encoding: 47 47 16
Width: 500
GlyphClass: 2
Flags: W
LayerCount: 2
Fore
SplineSet
10 -9 m 0
 10 5 13.6669921875 17.6669921875 21 29 c 0
 118.333007812 189 201.666015625 331.333007812 270.999023438 456 c 0
 314.999023438 532.666992188 361.33203125 619.666992188 409.999023438 717 c 0
 414.666015625 725.666992188 420.666015625 732.333984375 427.999023438 737.000976562 c 0
 435.33203125 741.66796875 442.33203125 744.000976562 448.999023438 744.000976562 c 0
 456.33203125 744.000976562 463.999023438 742.333984375 471.999023438 739.000976562 c 0
 480.666015625 733.66796875 486.333007812 726.334960938 489 717.001953125 c 0
 489.666992188 715.001953125 490 712.334960938 490 709.001953125 c 0
 490 704.334960938 487.666992188 695.001953125 483 681.001953125 c 0
 465.666992188 646.334960938 417 562.66796875 337 430.000976562 c 0
 257 297.333984375 208.333007812 214.666992188 191 182 c 0
 183 166.666992188 165.666992188 131.666992188 139 77 c 0
 115 28.3330078125 100 -1.333984375 94 -12.0009765625 c 0
 84.6669921875 -28.66796875 72.6669921875 -40.3349609375 58 -47.001953125 c 0
 51.3330078125 -50.3349609375 45.3330078125 -52.001953125 40 -52.001953125 c 0
 34 -52.001953125 28.6669921875 -50.3349609375 24 -47.001953125 c 0
 16.6669921875 -43.001953125 12.333984375 -33.3349609375 11.0009765625 -18.001953125 c 0
 10.333984375 -14.6689453125 10 -11.6669921875 10 -9 c 0
EndSplineSet
Validated: 524289
EndChar

StartChar: zero
Encoding: 48 48 17
Width: 500
GlyphClass: 2
Flags: HMW
HStem: -14.998 65.001 646.003 61.999
VStem: 35.003 79 391.004 74.998
LayerCount: 2
Fore
SplineSet
36 391 m 0
 36.6669921875 418.333007812 38.333984375 441.83203125 41.0009765625 461.499023438 c 0
 43.66796875 481.166015625 47.3349609375 502.333007812 52.001953125 525 c 0
 56.6689453125 547.666992188 62.001953125 567.666992188 68.001953125 585 c 0
 83.3349609375 625.666992188 109.334960938 656.333984375 146.001953125 677.000976562 c 0
 179.334960938 697.66796875 220.001953125 708.000976562 268.001953125 708.000976562 c 0
 291.334960938 708.000976562 313.334960938 703.66796875 334.001953125 695.000976562 c 0
 356.001953125 686.333984375 376.001953125 673.500976562 394.001953125 656.500976562 c 0
 412.001953125 639.500976562 427.001953125 617.000976562 439.001953125 589.000976562 c 0
 451.001953125 561.000976562 458.668945312 529.000976562 462.001953125 493.000976562 c 0
 464.668945312 453.000976562 466.001953125 409.333984375 466.001953125 362.000976562 c 0
 466.001953125 326.000976562 464.834960938 288.16796875 462.501953125 248.500976562 c 0
 460.168945312 208.833984375 456.001953125 178.000976562 450.001953125 156.000976562 c 0
 438.668945312 114.000976562 424.668945312 80.333984375 408.001953125 55.0009765625 c 0
 400.001953125 43.0009765625 391.001953125 33.0009765625 381.001953125 25.0009765625 c 0
 371.001953125 17.0009765625 360.668945312 10.333984375 350.001953125 5.0009765625 c 0
 340.668945312 -0.33203125 329.3359375 -4.4990234375 316.002929688 -7.4990234375 c 0
 302.669921875 -10.4990234375 289.669921875 -12.4990234375 277.002929688 -13.4990234375 c 0
 264.3359375 -14.4990234375 249.002929688 -14.9990234375 231.002929688 -14.9990234375 c 0
 203.669921875 -14.33203125 178.669921875 -8.6650390625 156.002929688 2.001953125 c 0
 130.669921875 12.6689453125 109.002929688 27.501953125 91.0029296875 46.501953125 c 0
 73.0029296875 65.501953125 59.169921875 89.001953125 49.5029296875 117.001953125 c 0
 39.8359375 145.001953125 35.0029296875 175.334960938 35.0029296875 208.001953125 c 2
 35.0029296875 214.001953125 l 1
 35.0029296875 309.001953125 l 2
 34.7802734375 316.125976562 34.6689453125 323.918945312 34.6689453125 332.380859375 c 0
 34.6689453125 349.258789062 35.1123046875 368.797851562 36 391 c 0
170.001953125 613.000976562 m 0
 148.668945312 591.000976562 132.334960938 555.998046875 121.001953125 507.998046875 c 0
 117.001953125 490.665039062 114.001953125 470.665039062 112.001953125 447.998046875 c 0
 110.3359375 428.33203125 109.502929688 402.166015625 109.502929688 369.5 c 0
 109.502929688 336.833984375 110.3359375 297.66796875 112.002929688 252.001953125 c 0
 112.669921875 234.001953125 113.169921875 222.501953125 113.502929688 217.501953125 c 0
 113.8359375 212.501953125 114.002929688 209.001953125 114.002929688 207.001953125 c 2
 114.002929688 177.001953125 l 1
 132.002929688 201.001953125 l 1
 214.669921875 323.001953125 289.002929688 448.668945312 355.002929688 578.001953125 c 2
 358.002929688 584.001953125 l 1
 354.002929688 589.001953125 l 2
 342.002929688 607.001953125 327.502929688 621.001953125 310.502929688 631.001953125 c 0
 293.502929688 641.001953125 274.669921875 646.001953125 254.002929688 646.001953125 c 0
 218.002929688 646.001953125 190.001953125 635.000976562 170.001953125 613.000976562 c 0
276.501953125 54.9990234375 m 0
 290.168945312 58.33203125 303.3359375 63.9990234375 316.002929688 71.9990234375 c 0
 341.3359375 88.666015625 361.002929688 119.666015625 375.002929688 164.999023438 c 0
 377.669921875 173.666015625 380.502929688 196.166015625 383.502929688 232.499023438 c 0
 386.502929688 268.83203125 388.669921875 310.33203125 390.002929688 356.999023438 c 0
 390.669921875 369.666015625 391.002929688 381.999023438 391.002929688 393.999023438 c 0
 391.002929688 427.999023438 389.669921875 460.666015625 387.002929688 491.999023438 c 2
 384.002929688 526.999023438 l 1
 368.002929688 494.999023438 l 1
 302.002929688 349.666015625 224.669921875 227.666015625 136.002929688 128.999023438 c 1
 132.002929688 123.999023438 l 1
 134.002929688 117.999023438 l 2
 145.3359375 93.33203125 160.3359375 75.33203125 179.002929688 63.9990234375 c 0
 193.669921875 54.666015625 211.002929688 49.9990234375 231.002929688 49.9990234375 c 0
 247.669921875 49.9990234375 262.834960938 51.666015625 276.501953125 54.9990234375 c 0
EndSplineSet
Validated: 524289
EndChar

StartChar: one
Encoding: 49 49 18
Width: 500
GlyphClass: 2
Flags: HMW
HStem: 1 64.9961<431.999 433.999 431.666 440.333> 520.999 21G
VStem: 217.998 70 228.998 61
LayerCount: 2
Fore
SplineSet
465 59 m 0xe0
 471 53 474 45 474 35 c 0
 474 25 471.166992188 16.8330078125 465.5 10.5 c 0
 459.833007812 4.1669921875 448.666015625 1 431.999023438 1 c 0
 208.666015625 3 84.666015625 4 59.9990234375 4 c 0
 47.9990234375 4 39.4990234375 7.1669921875 34.4990234375 13.5 c 0
 29.4990234375 19.8330078125 26.9990234375 28 26.9990234375 38 c 2
 26.9990234375 41 l 2
 26.9990234375 50.3330078125 29.4990234375 58.3330078125 34.4990234375 65 c 0
 39.4990234375 71.6669921875 48.33203125 75 60.9990234375 75 c 0
 90.33203125 75 142.665039062 74.3330078125 217.998046875 73 c 1
 217.998046875 83 l 2xe0
 217.998046875 109 217.665039062 127.666992188 216.998046875 139 c 0
 216.331054688 150.333007812 215.998046875 160.666015625 215.998046875 169.999023438 c 0
 215.998046875 180.666015625 216.331054688 212.333007812 216.998046875 265 c 0
 216.998046875 278.333007812 218.498046875 328.666015625 221.498046875 415.999023438 c 0
 224.498046875 503.33203125 226.998046875 567.999023438 228.998046875 609.999023438 c 1
 212.998046875 595.999023438 l 2
 168.998046875 555.999023438 135.998046875 531.666015625 113.998046875 522.999023438 c 0
 110.665039062 521.666015625 107.665039062 520.999023438 104.998046875 520.999023438 c 0
 98.998046875 520.999023438 91.998046875 524.33203125 83.998046875 530.999023438 c 0
 73.3310546875 540.33203125 67.998046875 549.33203125 67.998046875 557.999023438 c 2
 67.998046875 558.999023438 l 1
 67.998046875 559.999023438 l 2
 67.998046875 568.666015625 69.998046875 576.666015625 73.998046875 583.999023438 c 0
 77.998046875 591.33203125 85.3310546875 598.999023438 95.998046875 606.999023438 c 0
 115.998046875 622.33203125 136.331054688 638.665039062 156.998046875 655.998046875 c 2
 198.998046875 693.998046875 l 2
 206.998046875 701.331054688 215.165039062 707.6640625 223.498046875 712.997070312 c 0
 231.831054688 718.330078125 238.6640625 720.997070312 243.997070312 720.997070312 c 0
 255.330078125 720.997070312 266.997070312 715.6640625 278.997070312 704.997070312 c 0
 285.6640625 698.997070312 290.331054688 693.6640625 292.998046875 688.997070312 c 0
 294.998046875 686.330078125 295.998046875 683.997070312 295.998046875 681.997070312 c 0
 295.331054688 665.997070312 293.331054688 611.330078125 289.998046875 517.997070312 c 0xd0
 286.665039062 424.6640625 284.998046875 369.997070312 284.998046875 353.997070312 c 0
 284.998046875 237.330078125 285.998046875 142.663085938 287.998046875 69.99609375 c 1
 331.331054688 68.6630859375 365.331054688 67.6630859375 389.998046875 66.99609375 c 0
 414.665039062 66.3291015625 429.33203125 65.99609375 433.999023438 65.99609375 c 0
 435.705078125 66.0703125 437.349609375 66.107421875 438.931640625 66.107421875 c 0
 451.5703125 66.107421875 460.260742188 63.7392578125 465 59 c 0xe0
EndSplineSet
Validated: 524289
EndChar

StartChar: two
Encoding: 50 50 19
Width: 500
GlyphClass: 2
Flags: HMW
HStem: -8 64.0029 -1.99512 68.998 647.002 64.998
VStem: 36 81.0029 370.001 80.002
LayerCount: 2
Fore
SplineSet
236 -8 m 0xb8
 206.666992188 -9.3330078125 177 -10 147 -10 c 0
 113.666992188 -9.3330078125 87.6669921875 -8 69 -6 c 0
 63 -5.3330078125 58 -3.166015625 54 0.5009765625 c 0
 50 4.16796875 47 9.0009765625 45 15.0009765625 c 0
 39 30.333984375 36 52.5009765625 36 81.5009765625 c 0
 36 110.500976562 42 140.16796875 54 170.500976562 c 0
 66 200.833984375 83.8330078125 230.000976562 107.5 258.000976562 c 0
 131.166992188 286.000976562 157.333984375 308.66796875 186.000976562 326.000976562 c 0
 251.333984375 366.66796875 293.333984375 395.000976562 312.000976562 411.000976562 c 0
 338.66796875 433.66796875 356.000976562 458.334960938 364.000976562 485.001953125 c 0
 368.000976562 499.668945312 370.000976562 517.668945312 370.000976562 539.001953125 c 0
 370.000976562 577.001953125 359.000976562 604.668945312 337.000976562 622.001953125 c 0
 317.000976562 638.668945312 289.000976562 647.001953125 253.000976562 647.001953125 c 0
 227.66796875 647.001953125 203.66796875 638.668945312 181.000976562 622.001953125 c 0
 158.333984375 605.334960938 140.000976562 586.66796875 126.000976562 566.000976562 c 0
 120.000976562 558.000976562 115.000976562 552.16796875 111.000976562 548.500976562 c 0
 107.000976562 544.833984375 103.000976562 542.666992188 99.0009765625 542 c 2
 93.5009765625 542 l 2
 91.16796875 542 88.3349609375 542.333007812 85.001953125 543 c 0
 81.6689453125 543.666992188 76.3359375 545.666992188 69.0029296875 549 c 0
 60.3359375 553.666992188 55.0029296875 560 53.0029296875 568 c 2
 53.0029296875 575 l 2
 52.9365234375 575.799804688 52.9033203125 576.623046875 52.9033203125 577.469726562 c 0
 52.9033203125 585.08984375 55.603515625 594.599609375 61.0029296875 606 c 0
 67.0029296875 617.333007812 76.3359375 629.166015625 89.0029296875 641.499023438 c 0
 101.669921875 653.83203125 116.336914062 665.33203125 133.00390625 675.999023438 c 0
 149.670898438 686.666015625 168.00390625 695.333007812 188.00390625 702 c 0
 208.00390625 708.666992188 228.336914062 712 249.00390625 712 c 0
 312.336914062 712 361.669921875 696.333007812 397.002929688 665 c 0
 432.3359375 633.666992188 450.002929688 586 450.002929688 522 c 0
 450.002929688 469.333007812 436.669921875 427 410.002929688 395 c 0
 389.3359375 371.666992188 354.3359375 345.333984375 305.002929688 316.000976562 c 0
 289.669921875 306.000976562 269.002929688 293.333984375 243.002929688 278.000976562 c 0
 215.669921875 262.66796875 193.002929688 243.334960938 175.002929688 220.001953125 c 0
 156.3359375 196.668945312 142.502929688 172.8359375 133.502929688 148.502929688 c 0
 124.502929688 124.169921875 119.002929688 98.0029296875 117.002929688 70.0029296875 c 2
 117.002929688 60.0029296875 l 1
 162.3359375 57.3359375 203.002929688 56.0029296875 239.002929688 56.0029296875 c 0xb8
 265.002929688 56.0029296875 286.3359375 56.669921875 303.002929688 58.0029296875 c 0
 319.669921875 59.3359375 341.669921875 61.0029296875 369.002929688 63.0029296875 c 0
 397.669921875 65.0029296875 416.002929688 66.3359375 424.002929688 67.0029296875 c 2
 434.002929688 67.0029296875 l 2
 437.115234375 67.2255859375 439.8203125 67.3369140625 442.1171875 67.3369140625 c 0
 446.708007812 67.3369140625 449.669921875 66.892578125 451.002929688 66.00390625 c 0
 453.002929688 65.3369140625 455.3359375 64.00390625 458.002929688 62.00390625 c 0
 460.002929688 60.6708984375 461.3359375 59.337890625 462.002929688 58.0048828125 c 0
 464.002929688 54.0048828125 465.002929688 48.337890625 465.002929688 41.0048828125 c 0
 465.002929688 26.337890625 461.3359375 14.337890625 454.002929688 5.0048828125 c 0
 450.669921875 0.337890625 446.336914062 -1.9951171875 441.00390625 -1.9951171875 c 0x78
 393.00390625 -1.9951171875 324.666992188 -4 236 -8 c 0xb8
EndSplineSet
Validated: 524289
EndChar

StartChar: three
Encoding: 51 51 20
Width: 500
GlyphClass: 2
Flags: HMW
HStem: -14.998 64.998 328.002 81.002 647.004 65.001
VStem: 355.997 81 378.996 80.002
LayerCount: 2
Fore
SplineSet
436 532 m 0xf0
 436.666992188 530.666992188 436.997070312 529.333984375 436.997070312 528.000976562 c 0xf0
 436.997070312 511.333984375 434.5 495.833984375 429.5 481.500976562 c 0
 424.5 467.16796875 418 455.16796875 410 445.500976562 c 0
 402 435.833984375 392.166992188 427.000976562 380.5 419.000976562 c 0
 368.833007812 411.000976562 356.666015625 404.66796875 343.999023438 400.000976562 c 0
 332.666015625 395.333984375 320.666015625 391.666992188 307.999023438 389 c 2
 265.999023438 380 l 1
 307.999023438 370 l 2
 331.999023438 364.666992188 353.166015625 357.833984375 371.499023438 349.500976562 c 0
 389.83203125 341.16796875 405.665039062 330.500976562 418.998046875 317.500976562 c 0
 432.331054688 304.500976562 442.331054688 288.333984375 448.998046875 269.000976562 c 0
 455.665039062 249.66796875 458.998046875 226.334960938 458.998046875 199.001953125 c 0
 458.998046875 133.668945312 438.665039062 81.6689453125 397.998046875 43.001953125 c 0
 357.998046875 4.3349609375 304.998046875 -14.998046875 238.998046875 -14.998046875 c 0
 218.998046875 -14.998046875 198.998046875 -11.6650390625 178.998046875 -4.998046875 c 0
 157.665039062 2.3349609375 138.498046875 11.16796875 121.498046875 21.5009765625 c 0
 104.498046875 31.833984375 89.8310546875 43.1669921875 77.498046875 55.5 c 0
 65.1650390625 67.8330078125 55.998046875 80 49.998046875 92 c 0
 44.6650390625 102 41.998046875 111.333007812 41.998046875 120 c 0
 41.998046875 122.666992188 42.3310546875 125.333984375 42.998046875 128.000976562 c 0
 44.998046875 137.333984375 49.998046875 144.000976562 57.998046875 148.000976562 c 0
 65.3310546875 152.000976562 72.3310546875 154.000976562 78.998046875 154.000976562 c 0
 81.6650390625 154.000976562 84.33203125 153.66796875 86.9990234375 153.000976562 c 0
 96.33203125 150.333984375 105.665039062 143.000976562 114.998046875 131.000976562 c 0
 130.331054688 110.333984375 149.6640625 91.6669921875 172.997070312 75 c 0
 194.330078125 58.3330078125 217.663085938 50 242.99609375 50 c 0
 280.99609375 50 312.329101562 62.3330078125 336.99609375 87 c 0
 364.99609375 111.666992188 378.99609375 143.333984375 378.99609375 182.000976562 c 0xe8
 378.99609375 204.66796875 375.329101562 224.834960938 367.99609375 242.501953125 c 0
 360.663085938 260.168945312 349.330078125 275.668945312 333.997070312 289.001953125 c 0
 305.997070312 315.001953125 258.997070312 328.001953125 192.997070312 328.001953125 c 0
 182.997070312 328.001953125 174.330078125 332.334960938 166.997070312 341.001953125 c 0
 159.6640625 349.668945312 155.997070312 359.8359375 155.997070312 371.502929688 c 0
 155.997070312 383.169921875 158.6640625 392.336914062 163.997070312 399.00390625 c 0
 168.6640625 405.670898438 175.997070312 409.00390625 185.997070312 409.00390625 c 0
 237.997070312 409.00390625 278.997070312 420.670898438 308.997070312 444.00390625 c 0
 340.330078125 467.336914062 355.997070312 501.00390625 355.997070312 545.00390625 c 2
 355.997070312 549.00390625 l 1
 355.997070312 553.00390625 l 2
 356.016601562 553.899414062 356.026367188 554.7890625 356.026367188 555.671875 c 0
 356.026367188 585.68359375 345.016601562 608.4609375 322.997070312 624.00390625 c 0
 301.6640625 639.336914062 271.6640625 647.00390625 232.997070312 647.00390625 c 0
 220.330078125 647.00390625 206.997070312 644.670898438 192.997070312 640.00390625 c 0
 188.330078125 638.00390625 183.330078125 634.670898438 177.997070312 630.00390625 c 0
 172.6640625 625.336914062 168.331054688 621.669921875 164.998046875 619.002929688 c 0
 161.665039062 616.3359375 157.498046875 611.8359375 152.498046875 605.502929688 c 0
 147.498046875 599.169921875 143.998046875 594.836914062 141.998046875 592.50390625 c 0
 139.998046875 590.170898438 136.665039062 585.337890625 131.998046875 578.004882812 c 0
 122.665039062 565.337890625 113.665039062 558.004882812 104.998046875 556.004882812 c 0
 102.331054688 555.337890625 99.6640625 555.004882812 96.9970703125 555.004882812 c 0
 90.330078125 555.004882812 82.9970703125 557.004882812 74.9970703125 561.004882812 c 0
 66.9970703125 565.004882812 61.9970703125 571.671875 59.9970703125 581.004882812 c 0
 59.330078125 583.004882812 58.9970703125 585.337890625 58.9970703125 588.004882812 c 0
 58.9970703125 596.671875 61.6640625 606.338867188 66.9970703125 617.005859375 c 0
 79.6640625 642.338867188 98.9970703125 664.005859375 124.997070312 682.005859375 c 0
 138.330078125 691.338867188 154.330078125 698.671875 172.997070312 704.004882812 c 0
 190.330078125 709.337890625 208.997070312 712.004882812 228.997070312 712.004882812 c 0
 367.6640625 712.004882812 436.997070312 653.337890625 436.997070312 536.004882812 c 0
 436.330078125 534.671875 436 533.333007812 436 532 c 0xf0
EndSplineSet
Validated: 524289
EndChar

StartChar: four
Encoding: 52 52 21
Width: 500
GlyphClass: 2
Flags: HMW
HStem: -13.998 21G 234 61.002 696.001 20G
VStem: 320.002 65.499 327 67.001 327 75.001
LayerCount: 2
Fore
SplineSet
342 -1 m 0xf0
 332.666992188 7 327.666992188 14.6669921875 327 22 c 2
 327 60 l 1xe4
 327 233 l 1xe8
 305.666992188 233.666992188 288 234 274 234 c 0
 186 233.333007812 121.333007812 228.666015625 80 219.999023438 c 0
 76 219.33203125 72 218.999023438 68 218.999023438 c 0
 64 218.999023438 60 219.666015625 56 220.999023438 c 0
 50 223.666015625 45 227.333007812 41 232 c 0
 31.6669921875 244 27 258.333007812 27 275 c 0
 27 283 28.3330078125 291 31 299 c 0
 37.6669921875 317.666992188 55.333984375 347.833984375 84.0009765625 389.500976562 c 0
 112.66796875 431.16796875 148.66796875 483.000976562 192.000976562 545.000976562 c 0
 234.66796875 607.000976562 265.000976562 652.333984375 283.000976562 681.000976562 c 0
 290.333984375 692.333984375 298.333984375 700.833984375 307.000976562 706.500976562 c 0
 315.66796875 712.16796875 323.66796875 715.000976562 331.000976562 715.000976562 c 0
 333.000976562 715.66796875 335.000976562 716.000976562 337.000976562 716.000976562 c 0
 345.000976562 716.000976562 353.000976562 713.66796875 361.000976562 709.000976562 c 0
 369.000976562 704.333984375 374.000976562 696.333984375 376.000976562 685.000976562 c 0
 380.000976562 662.333984375 383.16796875 626.833984375 385.500976562 578.500976562 c 0xf0
 387.833984375 530.16796875 389.333984375 489.334960938 390.000976562 456.001953125 c 2
 393.000976562 294.001953125 l 1
 410.333984375 292.668945312 425.833984375 292.001953125 439.500976562 292.001953125 c 0
 453.16796875 292.001953125 462.16796875 289.501953125 466.500976562 284.501953125 c 0
 470.833984375 279.501953125 473.333984375 272.668945312 474.000976562 264.001953125 c 0
 474.000976562 253.334960938 472.000976562 245.334960938 468.000976562 240.001953125 c 0
 462.66796875 233.334960938 453.500976562 230.001953125 440.500976562 230.001953125 c 0
 427.500976562 230.001953125 412.000976562 230.668945312 394.000976562 232.001953125 c 1xe8
 394.66796875 126.668945312 396.66796875 67.001953125 400.000976562 53.001953125 c 0
 401.333984375 45.6689453125 402.000976562 39.001953125 402.000976562 33.001953125 c 0xe4
 402.66796875 22.3349609375 400.66796875 12.66796875 396.000976562 4.0009765625 c 0
 393.333984375 -1.33203125 389.833984375 -5.6650390625 385.500976562 -8.998046875 c 0
 381.16796875 -12.3310546875 376.000976562 -13.998046875 370.000976562 -13.998046875 c 0
 360.66796875 -13.3310546875 351.333007812 -9 342 -1 c 0xf0
320.001953125 603.001953125 m 2xf0
 319.001953125 629.001953125 l 1
 304.001953125 608.001953125 l 2
 213.334960938 478.001953125 151.001953125 377.001953125 117.001953125 305.001953125 c 2
 110.001953125 290.001953125 l 1
 126.001953125 291.001953125 l 2
 161.334960938 293.668945312 204.001953125 295.001953125 254.001953125 295.001953125 c 0
 274.001953125 295.001953125 298.334960938 294.668945312 327.001953125 294.001953125 c 1
 327.001953125 304.001953125 l 2
 327.001953125 429.334960938 324.668945312 529.001953125 320.001953125 603.001953125 c 2xf0
EndSplineSet
Validated: 524289
EndChar

StartChar: five
Encoding: 53 53 22
Width: 500
GlyphClass: 2
Flags: HMW
HStem: -7.99902 64.999 430 69.9971 628.997 69.002 639.996 60.0029
VStem: 42 73.999 50 67.999 388.999 80
LayerCount: 2
Fore
SplineSet
451 166 m 0xd6
 439 127.333007812 422.166992188 95.3330078125 400.5 70 c 0
 378.833007812 44.6669921875 354 25.333984375 326 12.0009765625 c 0
 298.666992188 -1.33203125 268.666992188 -7.9990234375 236 -7.9990234375 c 0
 210.666992188 -7.9990234375 187 -4.9990234375 165 1.0009765625 c 0
 141.666992188 7.0009765625 122 14.833984375 106 24.5009765625 c 0
 90 34.16796875 76.6669921875 44.66796875 66 56.0009765625 c 0
 55.3330078125 67.333984375 46.666015625 79.0009765625 39.9990234375 91.0009765625 c 0
 34.666015625 103.66796875 31.9990234375 114.000976562 31.9990234375 122.000976562 c 0
 31.9990234375 133.333984375 37.666015625 141.666992188 48.9990234375 147 c 0
 60.33203125 152.333007812 68.33203125 155 72.9990234375 155 c 0
 74.9990234375 154.333007812 76.666015625 154 77.9990234375 154 c 0
 81.9990234375 154 85.9990234375 152 89.9990234375 148 c 0
 93.9990234375 144 98.9990234375 138 104.999023438 130 c 0
 137.666015625 81.3330078125 178.666015625 57 227.999023438 57 c 0
 275.999023438 57 314.33203125 78 342.999023438 120 c 0
 373.666015625 161.333007812 388.999023438 216.333007812 388.999023438 285 c 0
 388.999023438 328.333007812 378.999023438 363 358.999023438 389 c 0
 339.666015625 416.333007812 311.333007812 430 274 430 c 0
 258 430 241.333007812 428 224 424 c 0
 214.666992188 421.333007812 202.333984375 415.666015625 187.000976562 406.999023438 c 0
 183.000976562 404.999023438 177.833984375 401.166015625 171.500976562 395.499023438 c 0
 165.16796875 389.83203125 161.000976562 385.999023438 159.000976562 383.999023438 c 0
 149.000976562 374.666015625 140.66796875 366.666015625 134.000976562 359.999023438 c 0
 123.333984375 350.666015625 110.333984375 345.333007812 95.0009765625 344 c 2
 91.0009765625 344 l 2
 84.333984375 344 78.0009765625 345.333007812 72.0009765625 348 c 0
 63.333984375 351.333007812 56.6669921875 359.666015625 52 372.999023438 c 0
 46.6669921875 388.33203125 43.6669921875 407.33203125 43 429.999023438 c 0
 42.3330078125 440.666015625 42 450.999023438 42 460.999023438 c 0xda
 42 485.666015625 43.6669921875 520.666015625 47 565.999023438 c 0
 49 590.666015625 50 607.999023438 50 617.999023438 c 2
 50 620.999023438 l 1
 48 622.999023438 l 2
 42 632.999023438 39 644.999023438 39 658.999023438 c 0
 39 674.33203125 43.3330078125 686.33203125 52 694.999023438 c 0
 57.3330078125 700.33203125 63.3330078125 702.999023438 70 702.999023438 c 0
 94.6669921875 702.33203125 150 701.33203125 236 699.999023438 c 0xd6
 320.666992188 698.666015625 387 697.999023438 435 697.999023438 c 0
 439.666992188 697.999023438 444 695.666015625 448 690.999023438 c 0
 452.666992188 684.999023438 455.666992188 677.83203125 457 669.499023438 c 0
 458.333007812 661.166015625 458.666015625 653.666015625 457.999023438 646.999023438 c 0
 457.33203125 640.33203125 455.499023438 636.165039062 452.499023438 634.498046875 c 0
 449.499023438 632.831054688 447.166015625 631.6640625 445.499023438 630.997070312 c 0
 443.83203125 630.330078125 440.999023438 629.830078125 436.999023438 629.497070312 c 0
 432.999023438 629.1640625 430.166015625 628.997070312 428.499023438 628.997070312 c 0xe6
 426.83203125 628.997070312 423.165039062 629.1640625 417.498046875 629.497070312 c 0
 411.831054688 629.830078125 406.498046875 630.163085938 401.498046875 630.49609375 c 0
 396.498046875 630.829101562 381.998046875 631.99609375 357.998046875 633.99609375 c 0
 335.998046875 635.99609375 316.331054688 637.49609375 298.998046875 638.49609375 c 0
 281.665039062 639.49609375 257.83203125 639.99609375 227.499023438 639.99609375 c 0
 197.166015625 639.99609375 161.666015625 638.663085938 120.999023438 635.99609375 c 1
 120.33203125 623.329101562 119.33203125 600.99609375 117.999023438 568.99609375 c 0xd6
 116.666015625 536.99609375 115.999023438 516.663085938 115.999023438 507.99609375 c 0xda
 115.999023438 499.329101562 116.166015625 490.829101562 116.499023438 482.49609375 c 0
 116.83203125 474.163085938 117.33203125 451.330078125 117.999023438 413.997070312 c 1
 133.999023438 431.997070312 l 2
 151.33203125 451.330078125 173.83203125 467.497070312 201.499023438 480.497070312 c 0
 229.166015625 493.497070312 260.999023438 499.997070312 296.999023438 499.997070312 c 0
 322.999023438 499.997070312 346.666015625 494.6640625 367.999023438 483.997070312 c 0
 390.666015625 473.330078125 409.166015625 458.997070312 423.499023438 440.997070312 c 0
 437.83203125 422.997070312 448.999023438 401.497070312 456.999023438 376.497070312 c 0
 464.999023438 351.497070312 468.999023438 324.6640625 468.999023438 295.997070312 c 0
 468.999023438 247.997070312 463 204.666992188 451 166 c 0xd6
EndSplineSet
Validated: 524289
EndChar

StartChar: six
Encoding: 54 54 23
Width: 500
GlyphClass: 2
Flags: HMW
HStem: -13 64.998 401.999 69.999
VStem: 30.001 69.999 393 78.002
LayerCount: 2
Fore
SplineSet
453 144 m 0
 441 112 424.833007812 84.5 404.5 61.5 c 0
 384.166992188 38.5 360.333984375 20.3330078125 333.000976562 7 c 0
 307.000976562 -6.3330078125 279.66796875 -13 251.000976562 -13 c 0
 215.000976562 -13 183.66796875 -5.3330078125 157.000976562 10 c 0
 127.66796875 25.3330078125 103.66796875 47.166015625 85.0009765625 75.4990234375 c 0
 66.333984375 103.83203125 52.5009765625 137.499023438 43.5009765625 176.499023438 c 0
 34.5009765625 215.499023438 30.0009765625 258.666015625 30.0009765625 305.999023438 c 0
 30.0009765625 365.999023438 35.66796875 419.999023438 47.0009765625 467.999023438 c 0
 57.66796875 512.666015625 72.16796875 550.333007812 90.5009765625 581 c 0
 108.833984375 611.666992188 131.333984375 637.333984375 158.000976562 658.000976562 c 0
 182.66796875 679.333984375 209.334960938 695.333984375 238.001953125 706.000976562 c 0
 266.668945312 716.66796875 298.668945312 723.66796875 334.001953125 727.000976562 c 2
 340.001953125 727.000976562 l 2
 350.001953125 727.000976562 359.001953125 725.000976562 367.001953125 721.000976562 c 0
 375.001953125 717.000976562 379.668945312 710.333984375 381.001953125 701.000976562 c 2
 381.001953125 700.000976562 l 2
 381.001953125 695.333984375 378.001953125 689.666992188 372.001953125 683 c 0
 364.668945312 674.333007812 356.668945312 668.666015625 348.001953125 665.999023438 c 0
 341.334960938 663.999023438 331.001953125 661.499023438 317.001953125 658.499023438 c 0
 303.001953125 655.499023438 291.001953125 652.33203125 281.001953125 648.999023438 c 0
 271.001953125 645.666015625 259.334960938 640.999023438 246.001953125 634.999023438 c 0
 219.334960938 622.33203125 192.334960938 598.999023438 165.001953125 564.999023438 c 0
 150.334960938 546.33203125 136.66796875 521.665039062 124.000976562 490.998046875 c 0
 111.333984375 460.331054688 103.333984375 432.998046875 100.000976562 408.998046875 c 2
 96.0009765625 375.998046875 l 1
 117.000976562 400.998046875 l 2
 137.000976562 424.331054688 161.66796875 441.998046875 191.000976562 453.998046875 c 0
 219.66796875 465.998046875 252.000976562 471.998046875 288.000976562 471.998046875 c 0
 314.66796875 471.331054688 338.66796875 466.998046875 360.000976562 458.998046875 c 0
 382.66796875 450.998046875 402.334960938 438.165039062 419.001953125 420.498046875 c 0
 435.668945312 402.831054688 448.501953125 379.498046875 457.501953125 350.498046875 c 0
 466.501953125 321.498046875 471.001953125 286.665039062 471.001953125 245.998046875 c 0
 471.001953125 209.998046875 465 176 453 144 c 0
102.001953125 228.998046875 m 0
 104.668945312 196.331054688 114.668945312 164.998046875 132.001953125 134.998046875 c 0
 140.668945312 118.998046875 150.668945312 104.998046875 162.001953125 92.998046875 c 0
 172.668945312 80.3310546875 185.668945312 70.3310546875 201.001953125 62.998046875 c 0
 216.334960938 55.6650390625 232.66796875 51.998046875 250.000976562 51.998046875 c 2
 252.000976562 51.998046875 l 2
 276.66796875 51.998046875 299.66796875 61.3310546875 321.000976562 79.998046875 c 0
 342.333984375 97.998046875 359.666992188 120.998046875 373 148.998046875 c 0
 386.333007812 176.998046875 393 205.331054688 393 233.998046875 c 0
 393 266.665039062 390 294.165039062 384 316.498046875 c 0
 378 338.831054688 368.666992188 356.331054688 356 368.998046875 c 0
 344 381.665039062 330.666992188 390.33203125 316 394.999023438 c 0
 301.333007812 399.666015625 284 401.999023438 264 401.999023438 c 0
 232 401.999023438 202 392.999023438 174 374.999023438 c 0
 145.333007812 356.999023438 121.333007812 333.999023438 102 305.999023438 c 1
 100 303.999023438 l 1
 100 300.999023438 l 2
 100 269.666015625 100.668945312 245.665039062 102.001953125 228.998046875 c 0
EndSplineSet
Validated: 524289
EndChar

StartChar: seven
Encoding: 55 55 24
Width: 500
GlyphClass: 2
Flags: HMW
HStem: -14 21G<97.669 103.003> 632.8 71.2011
LayerCount: 2
Fore
SplineSet
447.5 693.5 m 0
 453.166992188 691.166992188 458.333984375 687.333984375 463.000976562 682.000976562 c 0
 467.66796875 676.66796875 470.000976562 669.66796875 470.000976562 661.000976562 c 0
 470.000976562 652.333984375 467.333984375 641.666992188 462.000976562 629 c 0
 452.66796875 609 435.834960938 579 411.501953125 539 c 0
 387.168945312 499 362.3359375 457.666992188 337.002929688 415 c 0
 313.002929688 373 283.669921875 316.833007812 249.002929688 246.5 c 0
 214.3359375 176.166992188 181.668945312 104 151.001953125 30 c 0
 143.668945312 14 134.3359375 2.3330078125 123.002929688 -5 c 0
 115.002929688 -11 107.002929688 -14 99.0029296875 -14 c 0
 96.3359375 -14 94.0029296875 -13.6669921875 92.0029296875 -13 c 0
 81.3359375 -10.3330078125 73.6689453125 -3.8330078125 69.001953125 6.5 c 0
 66.9599609375 11.0205078125 65.939453125 15.701171875 65.939453125 20.541015625 c 0
 65.939453125 26.763671875 67.626953125 33.25 71.001953125 40 c 0
 105.668945312 108 141.3359375 176 178.002929688 244 c 0
 213.3359375 312 242.502929688 366.166992188 265.502929688 406.5 c 0
 288.502929688 446.833007812 310.002929688 486.333007812 330.002929688 525 c 0
 350.669921875 563 365.002929688 594 373.002929688 618 c 2
 377.002929688 631 l 1
 339.803710938 632.200195312 302.96484375 632.799804688 266.485351562 632.799804688 c 0
 242.165039062 632.799804688 218.00390625 632.533203125 194.002929688 632 c 0
 130.002929688 630 87.669921875 626.333007812 67.0029296875 621 c 0
 65.0029296875 620.333007812 62.669921875 620 60.0029296875 620 c 0
 57.3359375 620 54.6689453125 620.666992188 52.001953125 622 c 0
 47.3349609375 623.333007812 43.66796875 626 41.0009765625 630 c 0
 35.0009765625 638.666992188 31.66796875 648.666992188 31.0009765625 660 c 0
 31.0009765625 669.333007812 33.16796875 676.833007812 37.5009765625 682.5 c 0
 41.833984375 688.166992188 51.0009765625 692.333984375 65.0009765625 695.000976562 c 0
 100.333984375 701.000976562 156.333984375 704.000976562 233.000976562 704.000976562 c 0
 257.000976562 704.000976562 304.000976562 702.333984375 374.000976562 699.000976562 c 0
 409.333984375 697.66796875 428.333984375 697.000976562 431.000976562 697.000976562 c 0
 436.333984375 697.000976562 441.833007812 695.833007812 447.5 693.5 c 0
EndSplineSet
Validated: 524289
EndChar

StartChar: eight
Encoding: 56 56 25
Width: 500
GlyphClass: 2
Flags: HMW
HStem: -17.999 66.001 656.002 52.001
VStem: 24.002 66.9971 51.003 73.9971 363.002 70 403 74.002
LayerCount: 2
Fore
SplineSet
469 142.5 m 0xc4
 463.666992188 122.166992188 454.5 102.333984375 441.5 83.0009765625 c 0
 428.5 63.66796875 412.833007812 46.66796875 394.5 32.0009765625 c 0
 376.166992188 17.333984375 353.333984375 5.333984375 326.000976562 -3.9990234375 c 0
 300.000976562 -13.33203125 271.333984375 -17.9990234375 240.000976562 -17.9990234375 c 0
 208.66796875 -17.9990234375 181.000976562 -13.666015625 157.000976562 -4.9990234375 c 0
 131.66796875 3.66796875 111.000976562 15.0009765625 95.0009765625 29.0009765625 c 0
 79.0009765625 43.0009765625 65.333984375 59.5009765625 54.0009765625 78.5009765625 c 0
 42.66796875 97.5009765625 34.8349609375 116.66796875 30.501953125 136.000976562 c 0
 26.1689453125 155.333984375 24.001953125 175.500976562 24.001953125 196.500976562 c 0xe4
 24.001953125 217.500976562 29.501953125 240.333984375 40.501953125 265.000976562 c 0
 51.501953125 289.66796875 67.3349609375 312.66796875 88.001953125 334.000976562 c 0
 108.668945312 355.333984375 131.001953125 370.000976562 155.001953125 378.000976562 c 2
 177.001953125 386.000976562 l 1
 156.001953125 396.000976562 l 2
 122.668945312 412.000976562 96.8359375 432.66796875 78.5029296875 458.000976562 c 0
 60.169921875 483.333984375 51.0029296875 509.000976562 51.0029296875 535.000976562 c 0
 51.0029296875 542.333984375 51.5029296875 550.333984375 52.5029296875 559.000976562 c 0
 53.5029296875 567.66796875 56.0029296875 577.834960938 60.0029296875 589.501953125 c 0
 64.0029296875 601.168945312 68.8359375 612.3359375 74.5029296875 623.002929688 c 0
 80.169921875 633.669921875 88.169921875 644.169921875 98.5029296875 654.502929688 c 0
 108.8359375 664.8359375 120.668945312 674.002929688 134.001953125 682.002929688 c 0
 146.668945312 689.3359375 162.168945312 695.502929688 180.501953125 700.502929688 c 0
 198.834960938 705.502929688 219.334960938 708.002929688 242.001953125 708.002929688 c 0
 264.668945312 708.002929688 285.168945312 705.669921875 303.501953125 701.002929688 c 0
 321.834960938 696.3359375 337.334960938 690.002929688 350.001953125 682.002929688 c 0
 363.334960938 674.002929688 375.16796875 664.8359375 385.500976562 654.502929688 c 0
 395.833984375 644.169921875 403.833984375 633.669921875 409.500976562 623.002929688 c 0
 415.16796875 612.3359375 419.834960938 601.002929688 423.501953125 589.002929688 c 0
 427.168945312 577.002929688 429.668945312 566.502929688 431.001953125 557.502929688 c 0
 432.334960938 548.502929688 433.001953125 540.002929688 433.001953125 532.002929688 c 0xd8
 433.001953125 524.002929688 432.001953125 516.502929688 430.001953125 509.502929688 c 0
 428.001953125 502.502929688 425.668945312 496.169921875 423.001953125 490.502929688 c 0
 420.334960938 484.8359375 416.501953125 479.002929688 411.501953125 473.002929688 c 0
 406.501953125 467.002929688 401.668945312 461.669921875 397.001953125 457.002929688 c 0
 389.001953125 448.3359375 375.334960938 437.3359375 356.001953125 424.002929688 c 0
 348.001953125 418.002929688 335.001953125 408.3359375 317.001953125 395.002929688 c 1
 332.001953125 388.002929688 l 2
 354.668945312 378.002929688 375.001953125 366.502929688 393.001953125 353.502929688 c 0
 411.001953125 340.502929688 425.168945312 327.669921875 435.501953125 315.002929688 c 0
 445.834960938 302.3359375 454.334960938 289.168945312 461.001953125 275.501953125 c 0
 467.668945312 261.834960938 472.001953125 249.501953125 474.001953125 238.501953125 c 0
 476.001953125 227.501953125 477.001953125 216.001953125 477.001953125 204.001953125 c 0
 477.001953125 183.334960938 474.333007812 162.833007812 469 142.5 c 0xc4
158.001953125 472.001953125 m 0
 177.334960938 454.001953125 209.001953125 436.334960938 253.001953125 419.001953125 c 1
 256.001953125 417.001953125 l 1
 260.001953125 419.001953125 l 2
 286.001953125 430.334960938 309.334960938 446.334960938 330.001953125 467.001953125 c 0
 352.001953125 488.334960938 363.001953125 509.001953125 363.001953125 529.001953125 c 0
 363.001953125 549.001953125 357.668945312 568.668945312 347.001953125 588.001953125 c 0
 336.334960938 607.334960938 321.66796875 623.501953125 303.000976562 636.501953125 c 0
 284.333984375 649.501953125 264.333984375 656.001953125 243.000976562 656.001953125 c 2
 241.000976562 656.001953125 l 2
 210.333984375 655.334960938 183.666992188 643.001953125 161 619.001953125 c 0
 137 595.001953125 125 568.001953125 125 538.001953125 c 0xd8
 125 513.334960938 136.001953125 491.334960938 158.001953125 472.001953125 c 0
115 113.501953125 m 0
 131 91.8349609375 150.333007812 75.3349609375 173 64.001953125 c 0
 195 53.3349609375 218.666992188 48.001953125 244 48.001953125 c 0
 262 48.001953125 280 51.001953125 298 57.001953125 c 0
 316 63.001953125 332.666992188 71.6689453125 348 83.001953125 c 0
 364 95.001953125 377.166992188 110.168945312 387.5 128.501953125 c 0
 397.833007812 146.834960938 403 166.66796875 403 188.000976562 c 0
 403 200.000976562 402.166992188 211.16796875 400.5 221.500976562 c 0
 398.833007812 231.833984375 394.666015625 243.666992188 387.999023438 257 c 0
 381.33203125 270.333007812 372.33203125 282.666015625 360.999023438 293.999023438 c 0
 350.33203125 305.33203125 336.165039062 316.83203125 318.498046875 328.499023438 c 0
 300.831054688 340.166015625 278.998046875 351.333007812 252.998046875 362 c 1
 249.998046875 361 l 2
 204.665039062 347.666992188 167.33203125 324.666992188 137.999023438 292 c 0
 106.666015625 259.333007812 90.9990234375 224 90.9990234375 186 c 0xe4
 90.9990234375 159.333007812 99 135.168945312 115 113.501953125 c 0
EndSplineSet
Validated: 524289
EndChar

StartChar: nine
Encoding: 57 57 26
Width: 500
GlyphClass: 2
Flags: HMW
HStem: -13 21G<133.001 138.001 138.001 146.001> 244.999 69 664.999 64.002
VStem: 30 78<464 497> 401.999 69.001
LayerCount: 2
Fore
SplineSet
452 238 m 0
 440 196 423.666992188 160.333007812 403 131 c 0
 382.333007812 101.666992188 358 76.6669921875 330 56 c 0
 303.333007812 35.3330078125 274.833007812 19.5 244.5 8.5 c 0
 214.166992188 -2.5 181.333984375 -9.6669921875 146.000976562 -13 c 2
 138.000976562 -13 l 2
 128.000976562 -13 118.833984375 -10.8330078125 110.500976562 -6.5 c 0
 102.16796875 -2.1669921875 97.3349609375 4.3330078125 96.001953125 13 c 2
 96.001953125 14 l 2
 96.001953125 19.3330078125 99.001953125 25.3330078125 105.001953125 32 c 0
 112.334960938 40 120.66796875 45.3330078125 130.000976562 48 c 0
 137.333984375 50.6669921875 148.666992188 53.6669921875 164 57 c 0
 179.333007812 60.3330078125 193 63.666015625 205 66.9990234375 c 0
 217 70.33203125 230.666992188 75.1650390625 246 81.498046875 c 0
 261.333007812 87.8310546875 276.166015625 96.498046875 290.499023438 107.498046875 c 0
 304.83203125 118.498046875 318.33203125 131.665039062 330.999023438 146.998046875 c 0
 346.999023438 167.665039062 361.666015625 190.998046875 374.999023438 216.998046875 c 0
 388.33203125 242.998046875 397.33203125 266.998046875 401.999023438 288.998046875 c 2
 408.999023438 324.998046875 l 1
 384.999023438 296.998046875 l 2
 367.666015625 277.665039062 346.333007812 264.33203125 321 256.999023438 c 0
 296.333007812 248.999023438 264.666015625 244.999023438 225.999023438 244.999023438 c 0
 200.666015625 244.999023438 176.333007812 251.666015625 153 264.999023438 c 0
 128.333007812 277.666015625 107 294.833007812 89 316.5 c 0
 71 338.166992188 56.6669921875 363.166992188 46 391.5 c 0
 35.3330078125 419.833007812 30 449 30 479 c 0
 30 515 36 548.666992188 48 580 c 0
 60 611.333007812 76 637.833007812 96 659.5 c 0
 116 681.166992188 139.666992188 698.333984375 167 711.000976562 c 0
 193 723.000976562 220.666992188 729.000976562 250 729.000976562 c 0
 321.333007812 729.000976562 376 699.66796875 414 641.000976562 c 0
 452 582.333984375 471 498.666992188 471 390 c 0
 471 333.333007812 464.666992188 282.666992188 452 238 c 0
146 359.999023438 m 0
 169.333007812 329.33203125 203.666015625 313.999023438 248.999023438 313.999023438 c 0
 276.999023438 313.999023438 304.33203125 320.999023438 330.999023438 334.999023438 c 0
 359.666015625 348.999023438 382.666015625 368.33203125 399.999023438 392.999023438 c 2
 401.999023438 395.999023438 l 1
 401.999023438 411.999023438 l 2
 401.999023438 430.666015625 400.999023438 455.666015625 398.999023438 486.999023438 c 2
 398.999023438 487.999023438 l 2
 395.666015625 520.666015625 385.666015625 551.999023438 368.999023438 581.999023438 c 0
 360.33203125 597.999023438 350.33203125 611.999023438 338.999023438 623.999023438 c 0
 328.33203125 635.999023438 315.33203125 645.83203125 299.999023438 653.499023438 c 0
 284.666015625 661.166015625 268.333007812 664.999023438 251 664.999023438 c 2
 249 664.999023438 l 2
 225 664.33203125 202.333007812 655.665039062 181 638.998046875 c 0
 159.666992188 622.331054688 142.166992188 600.6640625 128.5 573.997070312 c 0
 114.833007812 547.330078125 108 519.663085938 108 490.99609375 c 0
 108 434.329101562 120.666992188 390.666015625 146 359.999023438 c 0
EndSplineSet
Validated: 524289
EndChar

StartChar: colon
Encoding: 58 58 27
Width: 500
GlyphClass: 2
Flags: HMW
HStem: 49.001 136.124 317 135.143
VStem: 195.997 110.001
LayerCount: 2
Fore
SplineSet
254 317 m 2
 251 317 l 2
 235 317.666992188 222.333007812 320.666992188 213 326 c 0
 203 332 197.333007812 341.333007812 196 354 c 0
 195.333007812 365.333007812 195 377 195 389 c 0
 194.666015625 394.666015625 194.499023438 400.249023438 194.499023438 405.749023438 c 0
 194.499023438 411.249023438 194.666015625 416.666015625 195 422 c 0
 195.666992188 428.666992188 197.666992188 434 201 438 c 0
 204.333007812 442 208.666015625 445 213.999023438 447 c 0
 224.284179688 450.428710938 235.059570312 452.143554688 246.32421875 452.143554688 c 0
 248.202148438 452.143554688 250.09375 452.095703125 251.999023438 452 c 0
 257.33203125 452 262.665039062 451.333007812 267.998046875 450 c 0
 281.998046875 447.333007812 291.665039062 442 296.998046875 434 c 0
 300.331054688 429.333007812 302.331054688 423.333007812 302.998046875 416 c 0
 303.665039062 412 303.998046875 408 303.998046875 404 c 0
 303.998046875 386.666992188 301.331054688 368.333984375 295.998046875 349.000976562 c 0
 293.331054688 338.333984375 287.6640625 330.333984375 278.997070312 325.000976562 c 0
 270.330078125 319.66796875 262 317 254 317 c 2
250.997070312 49.0009765625 m 0
 238.330078125 49.0009765625 225.997070312 53.0009765625 213.997070312 61.0009765625 c 0
 203.997070312 67.0009765625 198.330078125 75.333984375 196.997070312 86.0009765625 c 0
 196.330078125 104.000976562 195.997070312 114.000976562 195.997070312 116.000976562 c 0
 195.997070312 118.000976562 196.330078125 123.66796875 196.997070312 133.000976562 c 0
 197.6640625 142.333984375 198.331054688 149.666992188 198.998046875 155 c 0
 198.998046875 161 200.665039062 166 203.998046875 170 c 0
 206.665039062 174 210.665039062 177 215.998046875 179 c 0
 227.6640625 183.083007812 238.564453125 185.125 248.69921875 185.125 c 0
 250.147460938 185.125 251.580078125 185.083007812 252.997070312 185 c 0
 259.6640625 185 266.331054688 184 272.998046875 182 c 0
 280.331054688 180 286.998046875 176 292.998046875 170 c 0
 298.998046875 164 302.665039062 157 303.998046875 149 c 0
 305.331054688 140.333007812 305.998046875 132 305.998046875 124 c 0
 305.998046875 110 303.998046875 95.6669921875 299.998046875 81 c 0
 297.331054688 70.3330078125 290.6640625 62.3330078125 279.997070312 57 c 0
 269.997070312 51.6669921875 260.330078125 49.0009765625 250.997070312 49.0009765625 c 0
EndSplineSet
Validated: 524289
EndChar

StartChar: semicolon
Encoding: 59 59 28
Width: 500
GlyphClass: 2
Flags: HMW
HStem: 275.002 136.001
VStem: 224.336 109.666
LayerCount: 2
Fore
SplineSet
314.000976562 79.001953125 m 0
 314.000976562 62.3349609375 292.333984375 -25.33203125 249.000976562 -183.999023438 c 0
 245.66796875 -195.999023438 240.334960938 -204.33203125 233.001953125 -208.999023438 c 0
 225.668945312 -213.666015625 218.001953125 -215.999023438 210.001953125 -215.999023438 c 2
 208.001953125 -215.999023438 l 2
 196.668945312 -215.33203125 186.3359375 -211.665039062 177.002929688 -204.998046875 c 0
 170.3359375 -200.331054688 167.002929688 -193.6640625 167.002929688 -184.997070312 c 0
 167.002929688 -173.6640625 174.002929688 -133.331054688 188.002929688 -63.998046875 c 0
 200.669921875 -2.6650390625 211.002929688 44.3349609375 219.002929688 77.001953125 c 0
 221.002929688 85.6689453125 223.502929688 92.3359375 226.502929688 97.0029296875 c 0
 229.502929688 101.669921875 232.3359375 104.669921875 235.002929688 106.002929688 c 0
 241.669921875 108.669921875 248.002929688 110.002929688 254.002929688 110.002929688 c 0
 256.002929688 110.002929688 258.3359375 109.669921875 261.002929688 109.002929688 c 2
 262.002929688 109.002929688 l 2
 273.3359375 109.002929688 285.002929688 106.3359375 297.002929688 101.002929688 c 0
 303.002929688 98.3359375 307.669921875 94.6689453125 311.002929688 90.001953125 c 0
 313.002929688 87.3349609375 314.000976562 83.6689453125 314.000976562 79.001953125 c 0
282.002929688 275.001953125 m 2
 274.669921875 275.668945312 266.833984375 277.333984375 258.500976562 280.000976562 c 0
 250.16796875 282.66796875 242.834960938 286.834960938 236.501953125 292.501953125 c 0
 230.168945312 298.168945312 226.668945312 304.668945312 226.001953125 312.001953125 c 0
 225.334960938 323.334960938 224.834960938 334.834960938 224.501953125 346.501953125 c 0
 224.390625 350.38671875 224.334960938 354.216796875 224.334960938 357.991210938 c 0
 224.334960938 365.55078125 224.557617188 372.887695312 225.002929688 380.002929688 c 0
 225.669921875 386.002929688 227.669921875 391.169921875 231.002929688 395.502929688 c 0
 234.3359375 399.8359375 239.002929688 403.002929688 245.002929688 405.002929688 c 0
 251.002929688 407.002929688 256.8359375 408.502929688 262.502929688 409.502929688 c 0
 268.169921875 410.502929688 272.502929688 411.002929688 275.502929688 411.002929688 c 2
 282.002929688 411.002929688 l 2
 293.3359375 410.3359375 304.000976562 407.668945312 314.000976562 403.001953125 c 0
 319.333984375 401.001953125 323.668945312 397.501953125 327.001953125 392.501953125 c 0
 330.334960938 387.501953125 332.334960938 381.668945312 333.001953125 375.001953125 c 0
 333.668945312 371.001953125 334.001953125 367.001953125 334.001953125 363.001953125 c 0
 334.001953125 345.001953125 331.334960938 326.334960938 326.001953125 307.001953125 c 0
 323.334960938 296.334960938 317.66796875 288.334960938 309.000976562 283.001953125 c 0
 300.333984375 277.668945312 292.000976562 275.001953125 284.000976562 275.001953125 c 2
 282.500976562 275.001953125 l 1
 282.002929688 275.001953125 l 2
EndSplineSet
Validated: 524289
EndChar

StartChar: less
Encoding: 60 60 29
Width: 500
GlyphClass: 2
Flags: HMW
HStem: 683 20G<437.667 445.001>
LayerCount: 2
Fore
SplineSet
479 648 m 0
 472.333007812 637.333007812 458.333007812 624.333007812 437 609 c 0
 399.666992188 583 343 540.333007812 267 481 c 0
 190.333007812 421 138.333007812 380.666992188 111 360 c 1
 122 353 l 2
 147.333007812 333 176 308.666992188 208 280 c 0
 240 251.333007812 268 225.666015625 292 202.999023438 c 0
 316 179.666015625 342 155.999023438 370 131.999023438 c 0
 398.666992188 107.999023438 423.333984375 89.33203125 444.000976562 75.9990234375 c 0
 465.333984375 61.9990234375 479.000976562 50.33203125 485.000976562 40.9990234375 c 0
 487.66796875 36.9990234375 489.000976562 32.666015625 489.000976562 27.9990234375 c 0
 489.000976562 25.9990234375 488.333984375 22.666015625 487.000976562 17.9990234375 c 0
 485.000976562 12.666015625 481.333984375 8.3330078125 476.000976562 5 c 0
 470.66796875 1.6669921875 463.000976562 -0.666015625 453.000976562 -1.9990234375 c 0
 450.333984375 -2.666015625 448.000976562 -2.9990234375 446.000976562 -2.9990234375 c 0
 437.333984375 -2.9990234375 427.666992188 -0.9990234375 417 3.0009765625 c 0
 400.333007812 8.333984375 380.333007812 19.6669921875 357 37 c 0
 333 54.3330078125 307 75.666015625 279 100.999023438 c 0
 251 126.33203125 223 151.999023438 195 177.999023438 c 0
 167 203.999023438 137.333007812 230.666015625 106 257.999023438 c 0
 74.6669921875 285.33203125 48 306.999023438 26 322.999023438 c 0
 19.3330078125 328.33203125 15 335.665039062 13 344.998046875 c 0
 12.3330078125 349.665039062 12 354.33203125 12 358.999023438 c 0
 12 363.666015625 12.6669921875 368.333007812 14 373 c 0
 16.6669921875 381.666992188 21 388 27 392 c 0
 65 420 109.666992188 455.333007812 161 498 c 0
 212.333007812 540.666992188 259 579 301 613 c 0
 343.666992188 647 381.333984375 673.666992188 414.000976562 693 c 0
 424.000976562 699.666992188 433.333984375 703 442.000976562 703 c 0
 448.000976562 703 453.000976562 701.666992188 457.000976562 699 c 0
 468.333984375 693 476.333984375 684.666992188 481.000976562 674 c 0
 483.000976562 669.333007812 484.000976562 665 484.000976562 661 c 0
 483.333984375 657 481.666992188 652.666992188 479 648 c 0
EndSplineSet
Validated: 524289
EndChar

StartChar: equal
Encoding: 61 61 30
Width: 500
GlyphClass: 2
Flags: HMW
HStem: 256.909 63.091 452.907 66.0929
LayerCount: 2
Fore
SplineSet
104 519 m 2
 107 519 l 2
 145 517.666992188 184 517 224 517 c 0
 264.666992188 517 302.333984375 517.333007812 337.000976562 518 c 0
 371.66796875 518.666992188 392.66796875 519 400.000976562 519 c 0
 412.66796875 518.333007812 421.000976562 515.666015625 425.000976562 510.999023438 c 0
 429.66796875 506.33203125 432.334960938 499.665039062 433.001953125 490.998046875 c 0
 432.334960938 473.665039062 427.334960938 462.998046875 418.001953125 458.998046875 c 0
 415.334960938 457.665039062 412.334960938 456.998046875 409.001953125 456.998046875 c 2
 401.001953125 456.998046875 l 2
 385.668945312 457.665039062 371.668945312 457.998046875 359.001953125 457.998046875 c 2
 324.001953125 457.998046875 l 1
 214.001953125 454.998046875 l 2
 168.001953125 453.665039062 134.001953125 452.998046875 112.001953125 452.998046875 c 0
 110.66796875 452.9375 109.364257812 452.907226562 108.090820312 452.907226562 c 0
 95.3642578125 452.907226562 85.66796875 455.9375 79.001953125 461.998046875 c 0
 71.6689453125 467.998046875 68.001953125 475.331054688 68.001953125 483.998046875 c 2
 68.001953125 486.998046875 l 2
 68.6689453125 495.665039062 71.6689453125 502.998046875 77.001953125 508.998046875 c 0
 83.001953125 515.665039062 92 519 104 519 c 2
110.001953125 319.998046875 m 2
 131.334960938 319.331054688 156.66796875 318.998046875 186.000976562 318.998046875 c 0
 216.000976562 319.665039062 252.000976562 320.33203125 294.000976562 320.999023438 c 2
 400.000976562 322.999023438 l 2
 412.66796875 322.999023438 421.000976562 320.666015625 425.000976562 315.999023438 c 0
 429.66796875 310.666015625 432.334960938 303.666015625 433.001953125 294.999023438 c 0
 433.001953125 284.33203125 431.001953125 275.999023438 427.001953125 269.999023438 c 0
 424.334960938 266.666015625 421.334960938 264.333007812 418.001953125 263 c 0
 415.334960938 261.666992188 412.334960938 261 409.001953125 261 c 2
 401.001953125 261 l 2
 384.334960938 261.666992188 365.66796875 262 345.000976562 262 c 0
 324.333984375 262 279.666992188 261 211 259 c 0
 163.666992188 257.666992188 129.333984375 257 108.000976562 257 c 0
 106.727539062 256.939453125 105.487304688 256.909179688 104.280273438 256.909179688 c 0
 92.21484375 256.909179688 83.455078125 259.939453125 78.0009765625 266 c 0
 71.333984375 272.666992188 68.0009765625 280.666992188 68.0009765625 290 c 2
 68.0009765625 292 l 2
 68.66796875 300 72.0009765625 306.666992188 78.0009765625 312 c 0
 84.0009765625 317.333007812 94.0009765625 320 108.000976562 320 c 2
 110.001953125 319.998046875 l 2
EndSplineSet
Validated: 524289
EndChar

StartChar: greater
Encoding: 62 62 31
Width: 500
GlyphClass: 2
Flags: HMW
HStem: 690 20G<53.998 59.332>
LayerCount: 2
Fore
SplineSet
487 334 m 0
 484.333007812 325.333007812 480 319 474 315 c 0
 436 287 391.333007812 251.666992188 340 209 c 0
 288.666992188 166.333007812 242 128 200 94 c 0
 157.333007812 60.6669921875 119.666015625 34 86.9990234375 14 c 0
 76.9990234375 7.3330078125 67.33203125 4 57.9990234375 4 c 0
 52.666015625 4 47.9990234375 5.3330078125 43.9990234375 8 c 0
 32.666015625 14 24.666015625 22.3330078125 19.9990234375 33 c 0
 17.9990234375 37.6669921875 16.9990234375 42 16.9990234375 46 c 0
 16.9990234375 50 18.33203125 54.3330078125 20.9990234375 59 c 0
 27.666015625 69.6669921875 41.9990234375 82.6669921875 63.9990234375 98 c 0
 101.33203125 124 157.999023438 166.666992188 233.999023438 226 c 0
 309.999023438 286 358.666015625 323.666992188 379.999023438 339 c 2
 389.999023438 347 l 1
 379.999023438 354 l 2
 353.999023438 374 324.999023438 398.333007812 292.999023438 427 c 0
 260.999023438 455.666992188 232.999023438 481.333984375 208.999023438 504.000976562 c 0
 184.999023438 527.333984375 158.999023438 551.000976562 130.999023438 575.000976562 c 0
 102.33203125 599.000976562 77.6650390625 617.66796875 56.998046875 631.000976562 c 0
 35.6650390625 645.000976562 21.998046875 656.66796875 15.998046875 666.000976562 c 0
 13.3310546875 670.66796875 11.998046875 675.334960938 11.998046875 680.001953125 c 0
 11.998046875 681.334960938 12.6650390625 684.334960938 13.998046875 689.001953125 c 0
 15.998046875 694.334960938 19.6650390625 698.66796875 24.998046875 702.000976562 c 0
 30.3310546875 705.333984375 37.998046875 707.666992188 47.998046875 709 c 0
 50.6650390625 709.666992188 52.998046875 710 54.998046875 710 c 0
 63.6650390625 710 73.33203125 708 83.9990234375 704 c 0
 99.9990234375 698.666992188 119.999023438 687.333984375 143.999023438 670.000976562 c 0
 167.999023438 652.66796875 193.999023438 631.334960938 221.999023438 606.001953125 c 0
 249.999023438 580.668945312 277.999023438 555.001953125 305.999023438 529.001953125 c 0
 333.999023438 503.001953125 363.666015625 476.334960938 394.999023438 449.001953125 c 0
 425.666015625 421.668945312 452.333007812 400.001953125 475 384.001953125 c 0
 481.666992188 378.668945312 486 371.3359375 488 362.002929688 c 0
 488.666992188 357.3359375 489 352.668945312 489 348.001953125 c 0
 489 343.334960938 488.333007812 338.666992188 487 334 c 0
EndSplineSet
Validated: 524289
EndChar

StartChar: question
Encoding: 63 63 32
Width: 500
GlyphClass: 2
Flags: HMW
HStem: -4.00195 134.053 646.999 64.999
VStem: 156.999 143 367.999 80.001
LayerCount: 2
Fore
SplineSet
448 522 m 0
 448 505.333007812 445.333007812 490 440 476 c 0
 434.666992188 462.666992188 427.666992188 451 419 441 c 0
 410.333007812 431 400.333007812 421.333007812 389 412 c 0
 377 403.333007812 365 394.333007812 353 385 c 0
 341 375.666992188 329.333007812 365.666992188 318 355 c 0
 307.333007812 343.666992188 297.666015625 330.333984375 288.999023438 315.000976562 c 0
 280.33203125 299.66796875 274.665039062 282.66796875 271.998046875 264.000976562 c 0
 269.331054688 248.66796875 263.998046875 237.000976562 255.998046875 229.000976562 c 0
 251.331054688 225.000976562 244.998046875 223.000976562 236.998046875 223.000976562 c 0
 232.998046875 222.333984375 228.665039062 222.666992188 223.998046875 224 c 0
 208.665039062 228 198.665039062 235 193.998046875 245 c 0
 191.331054688 250.333007812 189.998046875 256.666015625 189.998046875 263.999023438 c 0
 189.998046875 271.999023438 190.998046875 280.666015625 192.998046875 289.999023438 c 0
 197.665039062 306.666015625 204.33203125 322.666015625 212.999023438 337.999023438 c 0
 221.666015625 353.33203125 230.999023438 366.33203125 240.999023438 376.999023438 c 0
 251.666015625 388.33203125 262.666015625 398.999023438 273.999023438 408.999023438 c 0
 285.33203125 418.999023438 296.33203125 428.666015625 306.999023438 437.999023438 c 0
 317.666015625 447.33203125 327.666015625 456.999023438 336.999023438 466.999023438 c 0
 345.666015625 476.999023438 352.999023438 487.999023438 358.999023438 499.999023438 c 0
 364.999023438 511.999023438 367.999023438 524.999023438 367.999023438 538.999023438 c 0
 367.999023438 576.999023438 356.666015625 604.666015625 333.999023438 621.999023438 c 0
 312.666015625 638.666015625 281.999023438 646.999023438 241.999023438 646.999023438 c 0
 231.33203125 646.999023438 220.665039062 644.666015625 209.998046875 639.999023438 c 0
 199.331054688 635.999023438 190.331054688 630.999023438 182.998046875 624.999023438 c 0
 175.665039062 618.999023438 167.998046875 611.33203125 159.998046875 601.999023438 c 0
 151.331054688 591.999023438 144.998046875 583.999023438 140.998046875 577.999023438 c 0
 136.998046875 571.999023438 131.998046875 564.666015625 125.998046875 555.999023438 c 0
 119.998046875 547.33203125 114.998046875 540.999023438 110.998046875 536.999023438 c 0
 106.998046875 533.666015625 102.998046875 531.666015625 98.998046875 530.999023438 c 2
 92.998046875 530.999023438 l 2
 90.998046875 530.999023438 88.3310546875 531.33203125 84.998046875 531.999023438 c 0
 81.6650390625 532.666015625 76.33203125 534.666015625 68.9990234375 537.999023438 c 0
 60.9990234375 542.666015625 55.9990234375 548.999023438 53.9990234375 556.999023438 c 0
 53.318359375 559.040039062 52.8994140625 562.078125 52.8994140625 566.469726562 c 0
 52.8994140625 574.08984375 55.599609375 583.599609375 60.9990234375 594.999023438 c 0
 75.666015625 622.33203125 96.666015625 647.665039062 123.999023438 670.998046875 c 0
 138.666015625 683.665039062 155.999023438 693.665039062 175.999023438 700.998046875 c 0
 195.999023438 708.331054688 216.666015625 711.998046875 237.999023438 711.998046875 c 0
 307.33203125 711.998046875 359.665039062 696.331054688 394.998046875 664.998046875 c 0
 430.331054688 633.665039062 448 586 448 522 c 0
228.998046875 -4.001953125 m 2
 219.999023438 -4.001953125 l 2
 219.0859375 -4.037109375 218.181640625 -4.0546875 217.286132812 -4.0546875 c 0
 201.165039062 -4.0546875 187.736328125 1.6298828125 177 12.998046875 c 0
 163.666992188 27.6650390625 157 44.6650390625 157 63.998046875 c 0
 157 81.3310546875 164.333007812 96.3310546875 179 108.998046875 c 0
 195 122.998046875 213.666992188 129.998046875 235 129.998046875 c 0
 235.947265625 130.033203125 236.88671875 130.05078125 237.817382812 130.05078125 c 0
 254.5703125 130.05078125 268.630859375 124.366210938 279.999023438 112.998046875 c 0
 293.33203125 100.331054688 299.999023438 84.6640625 299.999023438 65.9970703125 c 0
 299.999023438 47.330078125 293.666015625 31.6630859375 280.999023438 18.99609375 c 0
 267.666015625 6.3291015625 250.331054688 -1.3349609375 228.998046875 -4.001953125 c 2
EndSplineSet
Validated: 524289
EndChar

StartChar: at
Encoding: 64 64 33
Width: 500
GlyphClass: 2
Flags: HMW
HStem: -120 66.0049 111.004 59 127.005 61.002 391.008 56.998 623.005 69.9971
VStem: 1.999 67.0049 125.001 58.0029 307.004 61.001 445.005 53.9971
LayerCount: 2
Fore
SplineSet
449 9 m 0xdf80
 445.666992188 -0.3330078125 442 -8.3330078125 438 -15 c 0
 434.666992188 -22.3330078125 430 -30.666015625 424 -39.9990234375 c 0
 418 -49.9990234375 411.666992188 -58.33203125 405 -64.9990234375 c 0
 398.333007812 -71.666015625 389.666015625 -78.666015625 378.999023438 -85.9990234375 c 0
 368.999023438 -93.33203125 357.666015625 -99.33203125 344.999023438 -103.999023438 c 0
 332.33203125 -108.666015625 317.665039062 -112.333007812 300.998046875 -115 c 0
 284.331054688 -118.333007812 266.998046875 -120 248.998046875 -120 c 2
 242.998046875 -120 l 2
 209.665039062 -120 178.33203125 -111.666992188 148.999023438 -95 c 0
 118.999023438 -78.3330078125 93.33203125 -55 71.9990234375 -25 c 0
 50.666015625 5 33.666015625 41.6669921875 20.9990234375 85 c 0
 8.33203125 129 1.9990234375 176.666992188 1.9990234375 228 c 0
 2.666015625 286 7.3330078125 340 16 390 c 0
 25.3330078125 440.666992188 38 484.333984375 54 521.000976562 c 0
 70 557.66796875 89 589.000976562 111 615.000976562 c 0
 132.333007812 641.66796875 156 661.334960938 182 674.001953125 c 0
 208 686.668945312 235.333007812 693.001953125 264 693.001953125 c 0
 286 693.001953125 305.666992188 691.334960938 323 688.001953125 c 0
 341 684.668945312 358 679.001953125 374 671.001953125 c 0
 390 663.001953125 404 652.334960938 416 639.001953125 c 0
 428.666992188 625.668945312 440.333984375 609.001953125 451.000976562 589.001953125 c 0
 461.66796875 569.001953125 470.334960938 545.334960938 477.001953125 518.001953125 c 0
 491.668945312 458.668945312 499.001953125 383.3359375 499.001953125 292.002929688 c 0
 498.334960938 244.669921875 491.334960938 203.336914062 478.001953125 168.00390625 c 0
 471.334960938 150.00390625 462.001953125 136.00390625 450.001953125 126.00390625 c 0
 438.668945312 116.00390625 425.001953125 111.00390625 409.001953125 111.00390625 c 0xdf80
 385.668945312 111.670898438 368.001953125 119.337890625 356.001953125 134.004882812 c 0
 346.001953125 146.004882812 339.668945312 163.671875 337.001953125 187.004882812 c 2
 333.001953125 232.004882812 l 1
 318.001953125 189.00390625 l 2
 311.334960938 170.336914062 302.66796875 156.004882812 292.000976562 146.004882812 c 0
 279.333984375 133.337890625 262.333984375 127.004882812 241.000976562 127.004882812 c 0
 204.333984375 127.671875 176.000976562 139.338867188 156.000976562 162.005859375 c 0
 135.333984375 184.672851562 125.000976562 220.005859375 125.000976562 268.005859375 c 0
 125.000976562 292.005859375 127.66796875 314.338867188 133.000976562 335.005859375 c 0
 138.333984375 355.672851562 145.666992188 373.005859375 155 387.005859375 c 0
 164.333007812 400.338867188 175 412.005859375 187 422.005859375 c 0
 199.666992188 432.005859375 212.333984375 439.005859375 225.000976562 443.005859375 c 0
 237.66796875 446.338867188 250.334960938 448.005859375 263.001953125 448.005859375 c 0
 281.001953125 448.005859375 298.334960938 444.672851562 315.001953125 438.005859375 c 0
 329.001953125 432.672851562 340.001953125 425.672851562 348.001953125 417.005859375 c 0
 352.668945312 411.672851562 355.001953125 407.33984375 355.001953125 404.006835938 c 0
 355.001953125 402.673828125 354.668945312 401.340820312 354.001953125 400.0078125 c 0
 350.001953125 392.0078125 345.001953125 387.0078125 339.001953125 385.0078125 c 0
 332.334960938 383.0078125 327.334960938 382.0078125 324.001953125 382.0078125 c 0
 318.668945312 382.674804688 311.3359375 384.0078125 302.002929688 386.0078125 c 2
 287.002929688 389.0078125 l 2
 281.002929688 390.340820312 275.3359375 391.0078125 270.002929688 391.0078125 c 2
 258.002929688 391.0078125 l 2
 248.669921875 390.340820312 239.336914062 387.0078125 230.00390625 381.0078125 c 0
 220.670898438 375.0078125 212.670898438 367.674804688 206.00390625 359.0078125 c 0
 198.670898438 351.0078125 193.00390625 340.005859375 189.00390625 326.005859375 c 0
 185.00390625 312.005859375 183.00390625 296.674804688 183.00390625 280.0078125 c 0
 183.00390625 271.340820312 183.670898438 262.673828125 185.00390625 254.006835938 c 0
 185.670898438 246.006835938 187.670898438 236.670898438 191.00390625 226.00390625 c 0
 194.336914062 215.336914062 200.00390625 206.33984375 208.00390625 199.006835938 c 0
 216.00390625 191.673828125 226.00390625 188.006835938 238.00390625 188.006835938 c 0xbf80
 262.670898438 188.006835938 280.337890625 198.006835938 291.004882812 218.006835938 c 0
 300.337890625 235.33984375 305.670898438 263.672851562 307.00390625 303.005859375 c 0
 307.670898438 309.672851562 314.337890625 315.672851562 327.004882812 321.005859375 c 0
 337.004882812 324.338867188 345.671875 326.005859375 353.004882812 326.005859375 c 0
 357.671875 326.005859375 362.002929688 325.338867188 366.002929688 324.005859375 c 0
 370.002929688 322.005859375 372.004882812 319.672851562 372.004882812 317.005859375 c 2
 372.004882812 315.005859375 l 2
 369.337890625 290.338867188 368.004882812 269.671875 368.004882812 253.004882812 c 0
 368.004882812 244.337890625 368.337890625 236.670898438 369.004882812 230.00390625 c 0
 371.671875 208.670898438 375.671875 193.670898438 381.004882812 185.00390625 c 0
 387.671875 175.00390625 397.001953125 170.00390625 409.001953125 170.00390625 c 0
 419.001953125 170.00390625 426.671875 176.336914062 432.004882812 189.00390625 c 0
 436.004882812 199.00390625 439.004882812 211.336914062 441.004882812 226.00390625 c 0
 443.671875 250.670898438 445.004882812 273.670898438 445.004882812 295.00390625 c 0
 445.004882812 329.670898438 443.671875 361.333007812 441.004882812 390 c 0
 437.671875 419.333007812 433.670898438 444.337890625 429.00390625 465.004882812 c 0
 424.336914062 486.337890625 418.336914062 505.337890625 411.00390625 522.004882812 c 0
 403.670898438 539.337890625 396.338867188 553.337890625 389.005859375 564.004882812 c 0
 381.672851562 574.671875 373.005859375 584.004882812 363.005859375 592.004882812 c 0
 353.005859375 599.337890625 344.334960938 605.004882812 337.001953125 609.004882812 c 0
 329.668945312 613.671875 321.005859375 617.004882812 311.005859375 619.004882812 c 0
 301.005859375 621.004882812 293.672851562 622.004882812 289.005859375 622.004882812 c 0
 284.338867188 622.671875 278.671875 623.004882812 272.004882812 623.004882812 c 0
 243.337890625 622.337890625 216.670898438 613.337890625 192.00390625 596.004882812 c 0
 167.336914062 578.671875 146.00390625 554.671875 128.00390625 524.004882812 c 0
 110.00390625 492.671875 95.6708984375 454.671875 85.00390625 410.004882812 c 0
 74.3369140625 365.337890625 69.00390625 316.670898438 69.00390625 264.00390625 c 0
 69.6708984375 218.00390625 73.337890625 176.670898438 80.0048828125 140.00390625 c 0
 87.337890625 102.670898438 96.6708984375 72.337890625 108.00390625 49.0048828125 c 0
 119.336914062 25.671875 132.999023438 6.0048828125 148.999023438 -9.9951171875 c 0
 164.33203125 -25.9951171875 180.336914062 -37.328125 197.00390625 -43.9951171875 c 0
 213.670898438 -50.662109375 230.998046875 -53.9951171875 248.998046875 -53.9951171875 c 0
 266.331054688 -53.9951171875 282.669921875 -52.328125 298.002929688 -48.9951171875 c 0
 313.3359375 -45.662109375 326.002929688 -41.3291015625 336.002929688 -35.99609375 c 0
 346.669921875 -30.6630859375 356.669921875 -23.6669921875 366.002929688 -15 c 0
 374.669921875 -7 381.669921875 0.6708984375 387.002929688 8.00390625 c 0
 391.669921875 15.3369140625 397.336914062 24.3369140625 404.00390625 35.00390625 c 0
 406.670898438 39.6708984375 409.00390625 43.337890625 411.00390625 46.0048828125 c 0
 413.00390625 48.0048828125 415.00390625 50.671875 417.00390625 54.0048828125 c 0
 419.670898438 57.337890625 421.670898438 59.6708984375 423.00390625 61.00390625 c 2
 429.00390625 64.00390625 l 2
 431.670898438 66.00390625 435.337890625 66.00390625 440.004882812 64.00390625 c 0
 447.337890625 61.3369140625 452.337890625 57.00390625 455.004882812 51.00390625 c 0
 456.337890625 48.3369140625 457.004882812 45.669921875 457.004882812 43.0029296875 c 0
 457.004882812 34.3359375 454.333007812 23 449 9 c 0xdf80
EndSplineSet
Validated: 524289
EndChar

StartChar: A
Encoding: 65 65 34
Width: 500
GlyphClass: 2
Flags: HMW
HStem: 271 50.998
VStem: 2.999 72.001
LayerCount: 2
Fore
SplineSet
286.000976562 606.997070312 m 2
 258.66796875 561.6640625 219.66796875 466.331054688 169.000976562 320.998046875 c 2
 164.000976562 305.998046875 l 1
 178.000976562 307.998046875 l 2
 240.66796875 315.998046875 296.334960938 320.665039062 345.001953125 321.998046875 c 2
 356.001953125 321.998046875 l 1
 298.001953125 626.998046875 l 1
 286.000976562 606.997070312 l 2
418 53.9990234375 m 0
 410 74.666015625 393 147 367 271 c 0
 365 277.666992188 362.666992188 277.666992188 360 271 c 1
 280.666992188 267 207.666992188 259.33203125 141 247.999023438 c 1
 119 189.33203125 97 124.333007812 75 53 c 0
 69.6669921875 35 62 23.330078125 52 17.9970703125 c 0
 46.6669921875 15.330078125 41.6669921875 13.9970703125 37 13.9970703125 c 0
 32.3330078125 13.9970703125 27.666015625 14.9970703125 22.9990234375 16.9970703125 c 0
 9.666015625 22.330078125 2.9990234375 34.3330078125 2.9990234375 53 c 0
 2.9990234375 61 4.33203125 70.3330078125 6.9990234375 81 c 0
 11.666015625 104.333007812 31.666015625 158.666015625 66.9990234375 243.999023438 c 1
 64.33203125 251.999023438 61.9990234375 253.33203125 59.9990234375 247.999023438 c 1
 51.33203125 253.999023438 46.9990234375 260.999023438 46.9990234375 268.999023438 c 2
 46.9990234375 269.999023438 l 2
 46.33203125 275.999023438 49.33203125 281.999023438 55.9990234375 287.999023438 c 0
 64.666015625 295.33203125 75.3330078125 300.999023438 88 304.999023438 c 1
 89.3330078125 311.666015625 90.666015625 311.998046875 91.9990234375 305.998046875 c 1
 170.666015625 499.331054688 230.333007812 627.665039062 271 690.998046875 c 0
 279.666992188 703.665039062 286.833984375 712.498046875 292.500976562 717.498046875 c 0
 298.16796875 722.498046875 304.334960938 724.998046875 311.001953125 724.998046875 c 2
 312.001953125 724.998046875 l 1
 318.001953125 724.998046875 l 2
 325.334960938 724.998046875 332.334960938 722.998046875 339.001953125 718.998046875 c 0
 345.668945312 714.998046875 350.001953125 706.998046875 352.001953125 694.998046875 c 0
 365.334960938 612.331054688 388.334960938 494.998046875 421.001953125 342.998046875 c 0
 453.668945312 190.331054688 476.668945312 102.331054688 490.001953125 78.998046875 c 0
 495.334960938 69.6650390625 498.001953125 61.33203125 498.001953125 53.9990234375 c 0
 497.334960938 53.33203125 497.001953125 52.33203125 497.001953125 50.9990234375 c 0
 496.334960938 42.33203125 493.834960938 35.1650390625 489.501953125 29.498046875 c 0
 485.168945312 23.8310546875 480.001953125 19.6640625 474.001953125 16.9970703125 c 0
 469.334960938 14.9970703125 464.66796875 13.9970703125 460.000976562 13.9970703125 c 0
 454.66796875 13.9970703125 449.334960938 15.330078125 444.001953125 17.9970703125 c 0
 433.334960938 23.330078125 424.666992188 35.33203125 418 53.9990234375 c 0
EndSplineSet
Validated: 524289
EndChar

StartChar: B
Encoding: 66 66 35
Width: 500
GlyphClass: 2
Flags: HMW
HStem: -20.3672 79.3672 307 51.999 640.002 49.998
VStem: 26.998 77.7998 30.998 82.999 361.998 72.001 396 79.998
LayerCount: 2
Fore
SplineSet
347.995117188 260.001953125 m 0xea
 333.995117188 269.334960938 314.828125 278.16796875 290.495117188 286.500976562 c 0
 266.162109375 294.833984375 238.329101562 301.666992188 206.99609375 307 c 1
 205.99609375 307 l 2
 160.663085938 307 127.330078125 306.666992188 105.997070312 306 c 1
 109.330078125 192 111.997070312 109 113.997070312 57 c 1
 127.330078125 58.3330078125 141.997070312 59 157.997070312 59 c 0
 173.997070312 59.6669921875 185.997070312 60 193.997070312 60 c 0
 222.6640625 61.3330078125 249.831054688 66.666015625 275.498046875 75.9990234375 c 0
 301.165039062 85.33203125 322.33203125 96.9990234375 338.999023438 110.999023438 c 0
 355.666015625 124.33203125 369.333007812 138.83203125 380 154.499023438 c 0
 390.666992188 170.166015625 396 184.999023438 396 198.999023438 c 0
 396 219.666015625 379.995117188 240.001953125 347.995117188 260.001953125 c 0xea
116.998046875 626.999023438 m 2
 109.998046875 624.999023438 l 1
 109.998046875 607.666015625 109.331054688 584.999023438 107.998046875 556.999023438 c 0
 105.864257812 503.668945312 104.797851562 451.40625 104.797851562 400.209960938 c 0
 104.797851562 387.40625 104.864257812 374.668945312 104.998046875 361.999023438 c 1
 140.998046875 359.999023438 171.998046875 358.999023438 197.998046875 358.999023438 c 0
 217.331054688 358.999023438 234.831054688 360.83203125 250.498046875 364.499023438 c 0
 266.165039062 368.166015625 279.665039062 372.833007812 290.998046875 378.5 c 0
 302.331054688 384.166992188 312.331054688 391.166992188 320.998046875 399.5 c 0
 329.665039062 407.833007812 336.331054688 416.333007812 340.998046875 425 c 0
 345.665039062 433.666992188 349.666015625 443 352.999023438 453 c 0
 356.33203125 463 358.665039062 472.333007812 359.998046875 481 c 0
 361.331054688 489.666992188 361.998046875 498.333984375 361.998046875 507.000976562 c 0xf4
 361.331054688 525.66796875 357.6640625 543.000976562 350.997070312 559.000976562 c 0
 344.330078125 575.000976562 335.663085938 587.833984375 324.99609375 597.500976562 c 0
 314.329101562 607.16796875 302.662109375 615.334960938 289.995117188 622.001953125 c 0
 267.328125 634.001953125 243.328125 640.001953125 217.995117188 640.001953125 c 0
 183.995117188 640.001953125 150.331054688 635.666015625 116.998046875 626.999023438 c 2
457.5 130 m 0
 445.166992188 106.666992188 427.1640625 84.833984375 403.497070312 64.5009765625 c 0
 379.830078125 44.16796875 350.665039062 27.0009765625 315.998046875 13.0009765625 c 0
 281.998046875 -0.9990234375 244.331054688 -9.9990234375 202.998046875 -13.9990234375 c 1
 183.314453125 -20.3671875 l 2
 178.54296875 -20.3671875 173.771484375 -19.244140625 169 -16.9990234375 c 2
 150.47265625 -23.3671875 l 2
 145.981445312 -23.3671875 141.490234375 -22.244140625 136.999023438 -19.9990234375 c 0
 116.999023438 -21.9990234375 101.33203125 -22.9990234375 89.9990234375 -22.9990234375 c 0
 82.666015625 -22.9990234375 75.666015625 -22.33203125 68.9990234375 -20.9990234375 c 2
 64.9990234375 -20.9990234375 l 2
 54.33203125 -21.666015625 45.6650390625 -18.3330078125 38.998046875 -11 c 0
 33.6650390625 -5 30.998046875 3.3330078125 30.998046875 14 c 2
 30.998046875 19 l 2xea
 32.3310546875 39.6669921875 32.998046875 74.333984375 32.998046875 123.000976562 c 0
 32.998046875 213.66796875 30.998046875 314.000976562 26.998046875 424.000976562 c 0
 25.6650390625 468.66796875 24.998046875 498.500976562 24.998046875 513.500976562 c 0
 24.998046875 528.500976562 25.6650390625 549.000976562 26.998046875 575.000976562 c 0
 28.3310546875 601.000976562 28.998046875 619.000976562 28.998046875 629.000976562 c 0
 29.6650390625 644.333984375 33.83203125 655.666992188 41.4990234375 663 c 0
 49.166015625 670.333007812 58.33203125 674 68.9990234375 674 c 2
 73 674 l 1
 74 674 l 2
 85.3330078125 677.333007812 96.6650390625 680 107.998046875 682 c 0
 129.998046875 686 149.999023438 688.333007812 167.999023438 689 c 0
 177.999023438 689.666992188 185.666015625 690 190.999023438 690 c 2
 209.999023438 690 l 1
 219.999023438 690 l 2
 259.999023438 690 295.33203125 682 325.999023438 666 c 0
 357.999023438 650 383.999023438 626.833007812 403.999023438 596.5 c 0
 423.999023438 566.166992188 433.999023438 530 433.999023438 488 c 0xf4
 433.999023438 452.666992188 425.666015625 422.333984375 408.999023438 397.000976562 c 0
 392.33203125 371.66796875 369.665039062 353.000976562 340.998046875 341.000976562 c 1
 332.998046875 331.000976562 325.331054688 327.66796875 317.998046875 331.000976562 c 1
 325.998046875 321.000976562 333.665039062 318.000976562 340.998046875 322.000976562 c 1
 361.665039062 314.66796875 382.498046875 304.16796875 403.498046875 290.500976562 c 0
 424.498046875 276.833984375 441.831054688 261.666992188 455.498046875 245 c 0
 469.165039062 228.333007812 475.998046875 213.666015625 475.998046875 200.999023438 c 2
 475.998046875 198.999023438 l 2xe2
 475.998046875 176.33203125 469.833007812 153.333007812 457.5 130 c 0
EndSplineSet
Validated: 524289
EndChar

StartChar: C
Encoding: 67 67 36
Width: 500
GlyphClass: 2
Flags: HMW
HStem: -30.999 72.001 650.002 62.999
VStem: 11.999 80.999 405 83.001
LayerCount: 2
Fore
SplineSet
475 553.5 m 0
 466.333007812 541.166992188 458 534.333984375 450 533.000976562 c 2
 444 533.000976562 l 2
 436 533.000976562 427.666992188 535.66796875 419 541.000976562 c 0
 409.666992188 547.66796875 405 556.334960938 405 567.001953125 c 0
 405 572.334960938 405.666992188 588.334960938 407 615.001953125 c 1
 391.666992188 625.668945312 382.666992188 632.001953125 380 634.001953125 c 0
 377.333007812 636.001953125 373.333007812 638.334960938 368 641.001953125 c 0
 358 647.001953125 347.666992188 650.001953125 337 650.001953125 c 0
 316.333007812 650.001953125 294.5 642.668945312 271.5 628.001953125 c 0
 248.5 613.334960938 226.666992188 593.001953125 206 567.001953125 c 0
 185.333007812 541.001953125 166.666015625 511.334960938 149.999023438 478.001953125 c 0
 133.33203125 444.001953125 119.665039062 406.001953125 108.998046875 364.001953125 c 0
 98.3310546875 322.001953125 92.998046875 279.668945312 92.998046875 237.001953125 c 0
 92.998046875 205.001953125 98.998046875 174.168945312 110.998046875 144.501953125 c 0
 122.998046875 114.834960938 139.665039062 90.001953125 160.998046875 70.001953125 c 0
 181.665039062 50.6689453125 204.665039062 41.001953125 229.998046875 41.001953125 c 0
 250.665039062 41.001953125 270.665039062 43.3349609375 289.998046875 48.001953125 c 0
 309.331054688 52.6689453125 326.831054688 58.8359375 342.498046875 66.5029296875 c 0
 358.165039062 74.169921875 371.998046875 81.669921875 383.998046875 89.0029296875 c 0
 395.331054688 96.3359375 406.331054688 104.3359375 416.998046875 113.002929688 c 0
 424.998046875 118.3359375 431.831054688 122.3359375 437.498046875 125.002929688 c 0
 443.165039062 127.669921875 448.998046875 129.002929688 454.998046875 129.002929688 c 0
 460.331054688 129.002929688 465.331054688 127.3359375 469.998046875 124.002929688 c 0
 478.665039062 117.3359375 482.998046875 109.668945312 482.998046875 101.001953125 c 0
 482.998046875 90.3349609375 476.665039062 77.66796875 463.998046875 63.0009765625 c 0
 409.998046875 0.333984375 330.998046875 -30.9990234375 226.998046875 -30.9990234375 c 2
 218.998046875 -30.9990234375 l 2
 194.998046875 -30.9990234375 172.331054688 -26.666015625 150.998046875 -17.9990234375 c 0
 128.998046875 -8.666015625 109.665039062 3.6669921875 92.998046875 19 c 0
 76.3310546875 34.3330078125 61.8310546875 52 49.498046875 72 c 0
 37.1650390625 92 27.83203125 113.333007812 21.4990234375 136 c 0
 15.166015625 158.666992188 11.9990234375 181.333984375 11.9990234375 204.000976562 c 0
 11.9990234375 252.66796875 16.9990234375 300.16796875 26.9990234375 346.500976562 c 0
 36.9990234375 392.833984375 50.33203125 434.333984375 66.9990234375 471.000976562 c 0
 83.666015625 507.66796875 103.333007812 541.334960938 126 572.001953125 c 0
 146.666992188 603.334960938 168.5 629.16796875 191.5 649.500976562 c 0
 214.5 669.833984375 237.833007812 685.500976562 261.5 696.500976562 c 0
 285.166992188 707.500976562 308 713.000976562 330 713.000976562 c 0
 352 713.000976562 372.666992188 710.333984375 392 705.000976562 c 1
 394.666992188 710.333984375 397.666992188 709.333984375 401 702.000976562 c 1
 402.333007812 712.000976562 403.333007812 715.333984375 404 712.000976562 c 1
 406 720.000976562 410 726.66796875 416 732.000976562 c 0
 422 736.66796875 428.666992188 739.334960938 436 740.001953125 c 0
 439.333007812 740.668945312 441.333007812 741.001953125 442 741.001953125 c 0
 448.666992188 741.001953125 455.666992188 738.668945312 463 734.001953125 c 0
 471.666992188 728.668945312 477.333984375 720.3359375 480.000976562 709.002929688 c 0
 485.333984375 683.669921875 488.000976562 656.668945312 488.000976562 628.001953125 c 2
 488.000976562 591.002929688 l 2
 488.000976562 578.3359375 483.666992188 565.833007812 475 553.5 c 0
EndSplineSet
Validated: 524289
EndChar

StartChar: D
Encoding: 68 68 37
Width: 500
GlyphClass: 2
Flags: HMW
HStem: -31 75.999 675 20G<47.332 63.665>
VStem: 9.999 77.7113 414.001 76.9953
LayerCount: 2
Fore
SplineSet
264.99609375 551 m 0
 230.99609375 574.333007812 181.99609375 598.666015625 117.99609375 623.999023438 c 1
 116.99609375 624.999023438 l 1
 115.99609375 624.999023438 l 1
 114.99609375 625.999023438 l 1
 113.99609375 625.999023438 l 1
 112.99609375 625.999023438 l 1
 112.99609375 626.999023438 l 1
 111.99609375 626.999023438 l 1
 110.99609375 626.999023438 l 1
 109.99609375 626.999023438 l 1
 109.99609375 627.999023438 l 1
 108.99609375 627.999023438 l 1
 107.99609375 627.999023438 l 1
 106.99609375 627.999023438 l 1
 106.99609375 628.999023438 l 1
 105.99609375 628.999023438 l 1
 104.99609375 628.999023438 l 1
 103.994140625 629.999023438 l 1
 102.99609375 629.999023438 l 1
 89.99609375 643.999023438 l 1
 88.99609375 620.999023438 l 2
 88.138671875 583.283203125 87.7099609375 546.118164062 87.7099609375 509.50390625 c 0
 87.7099609375 460.689453125 88.4716796875 412.854492188 89.99609375 365.999023438 c 0
 91.3291015625 324.666015625 92.662109375 275.166015625 93.9951171875 217.499023438 c 0
 95.328125 159.83203125 96.6611328125 114.33203125 97.994140625 80.9990234375 c 1
 103.994140625 78.9990234375 l 2
 131.327148438 66.33203125 158.994140625 57.4990234375 186.994140625 52.4990234375 c 0
 214.994140625 47.4990234375 246.994140625 44.9990234375 282.994140625 44.9990234375 c 0
 302.327148438 44.9990234375 320.327148438 51.83203125 336.994140625 65.4990234375 c 0
 353.661132812 79.166015625 367.328125 96.3330078125 377.995117188 117 c 0
 389.328125 137.666992188 398.161132812 160.166992188 404.494140625 184.5 c 0
 413.956054688 220.85546875 414.000976562 247.245117188 414.000976562 258.552734375 c 0
 414.000976562 385.967773438 364.333984375 483.450195312 264.99609375 551 c 0
482 152.5 m 0
 476 128.833007812 466.666992188 106 454 84 c 0
 441.333007812 62 426.666015625 42.5 409.999023438 25.5 c 0
 393.33203125 8.5 373.999023438 -5.3330078125 351.999023438 -16 c 0
 330.666015625 -26 307.999023438 -31 283.999023438 -31 c 2
 274.999023438 -31 l 2
 247.666015625 -31 220.166015625 -29.6669921875 192.499023438 -27 c 0
 164.83203125 -24.3330078125 142.33203125 -21 124.999023438 -17 c 0
 106.999023438 -12.3330078125 90.83203125 -8.3330078125 76.4990234375 -5 c 0
 62.166015625 -1.6669921875 53.3330078125 0 50 0 c 0
 39.3330078125 0 30.666015625 3.3330078125 23.9990234375 10 c 0
 17.9990234375 16 14.9990234375 24.3330078125 14.9990234375 35 c 2
 14.9990234375 41 l 2
 16.9990234375 65 17.9990234375 102.333007812 17.9990234375 153 c 0
 17.33203125 243.666992188 14.9990234375 351.666992188 10.9990234375 477 c 0
 10.33203125 514.333007812 9.9990234375 538.833007812 9.9990234375 550.5 c 0
 9.9990234375 562.166992188 10.4990234375 580.333984375 11.4990234375 605.000976562 c 0
 12.4990234375 629.66796875 12.9990234375 644.66796875 12.9990234375 650.000976562 c 0
 13.666015625 665.333984375 17.666015625 676.666992188 24.9990234375 684 c 0
 32.33203125 691.333007812 41.6650390625 695 52.998046875 695 c 0
 74.3310546875 695 101.6640625 691.666992188 134.997070312 685 c 0
 154.330078125 681 173.997070312 675.5 193.997070312 668.5 c 0
 213.997070312 661.5 235.6640625 651.833007812 258.997070312 639.5 c 0
 282.330078125 627.166992188 304.330078125 612.666992188 324.997070312 596 c 0
 345.6640625 579.333007812 365.997070312 559 385.997070312 535 c 0
 407.330078125 511 425.663085938 484.5 440.99609375 455.5 c 0
 456.329101562 426.5 468.49609375 391.833007812 477.49609375 351.5 c 0
 486.49609375 311.166992188 490.99609375 267.666992188 490.99609375 221 c 0
 490.99609375 199 488 176.166992188 482 152.5 c 0
EndSplineSet
Validated: 524289
EndChar

StartChar: E
Encoding: 69 69 38
Width: 500
GlyphClass: 2
Flags: HMW
HStem: -20 68.0039<131.666 192.338> -6 71.0039<418.333 450.338 426 450.338> 312.004 65.998 332.004 61.999 615.002 63.999
VStem: 23.999 76.0039
LayerCount: 2
Fore
SplineSet
439 -6 m 2x4c
 426 -6 l 2x4c
 410.666992188 -6 385.666992188 -7 351 -9 c 0
 250.333007812 -16.3330078125 180.666015625 -20 141.999023438 -20 c 0
 121.33203125 -20 103.999023438 -19.3330078125 89.9990234375 -18 c 0
 76.666015625 -17.3330078125 63.166015625 -10.666015625 49.4990234375 2.0009765625 c 0
 35.83203125 14.66796875 27.9990234375 30.00390625 25.9990234375 48.00390625 c 0
 23.9990234375 64.00390625 22.9990234375 91.333984375 22.9990234375 130.000976562 c 0
 22.9990234375 168.66796875 23.33203125 210.66796875 23.9990234375 256.000976562 c 2
 23.9990234375 343.500976562 l 2
 23.9990234375 370.500976562 23.33203125 408.000976562 21.9990234375 456.000976562 c 0
 21.33203125 496.000976562 20.9990234375 522.333984375 20.9990234375 535.000976562 c 0
 20.9990234375 547.66796875 21.4990234375 566.500976562 22.4990234375 591.500976562 c 0
 23.4990234375 616.500976562 23.9990234375 632.333984375 23.9990234375 639.000976562 c 0
 24.666015625 654.333984375 28.8330078125 665.833984375 36.5 673.500976562 c 0
 44.1669921875 681.16796875 53.333984375 685.000976562 64.0009765625 685.000976562 c 1
 64.66796875 678.333984375 65.66796875 678.333984375 67.0009765625 685.000976562 c 1
 79.66796875 684.333984375 89.3349609375 679.666992188 96.001953125 671 c 0
 97.3349609375 663.666992188 98.669921875 662.333984375 100.002929688 667.000976562 c 1
 102.002929688 661.000976562 104.000976562 661.333984375 106.000976562 668.000976562 c 1
 156.66796875 675.333984375 220.334960938 679.000976562 297.001953125 679.000976562 c 0
 318.334960938 679.000976562 337.334960938 678.66796875 354.001953125 678.000976562 c 0
 392.668945312 676.000976562 423.3359375 673.666992188 446.002929688 671 c 0
 460.002929688 669.666992188 469.169921875 666.834960938 473.502929688 662.501953125 c 0
 477.8359375 658.168945312 480.002929688 652.001953125 480.002929688 644.001953125 c 0
 480.002929688 626.668945312 475.3359375 616.001953125 466.002929688 612.001953125 c 0
 462.002929688 610.001953125 458.502929688 609.168945312 455.502929688 609.501953125 c 0
 452.502929688 609.834960938 450.002929688 610.001953125 448.002929688 610.001953125 c 0
 401.3359375 613.334960938 356.002929688 615.001953125 312.002929688 615.001953125 c 0
 296.669921875 615.001953125 281.336914062 614.668945312 266.00390625 614.001953125 c 0
 208.00390625 612.668945312 157.00390625 608.668945312 113.00390625 602.001953125 c 1
 110.336914062 595.334960938 107.669921875 595.001953125 105.002929688 601.001953125 c 1
 101.669921875 525.668945312 100.002929688 454.668945312 100.002929688 388.001953125 c 2
 100.002929688 378.001953125 l 1xac
 153.3359375 378.668945312 218.668945312 381.3359375 296.001953125 386.002929688 c 0
 376.001953125 391.3359375 421.001953125 394.002929688 431.001953125 394.002929688 c 0
 443.668945312 394.002929688 452.3359375 391.502929688 457.002929688 386.502929688 c 0
 461.669921875 381.502929688 464.002929688 374.669921875 464.002929688 366.002929688 c 0
 464.002929688 354.669921875 462.002929688 346.336914062 458.002929688 341.00390625 c 0
 452.669921875 335.00390625 443.836914062 332.00390625 431.50390625 332.00390625 c 0x1c
 419.170898438 332.00390625 370.00390625 328.670898438 284.00390625 322.00390625 c 0
 200.00390625 315.336914062 142.00390625 312.00390625 110.00390625 312.00390625 c 1
 107.336914062 304.670898438 104.336914062 304.337890625 101.00390625 311.004882812 c 1
 101.00390625 284.337890625 101.336914062 247.670898438 102.00390625 201.00390625 c 0
 102.00390625 172.336914062 102.336914062 149.00390625 103.00390625 131.00390625 c 0
 104.336914062 93.00390625 107.00390625 68.6708984375 111.00390625 58.00390625 c 0
 111.670898438 50.00390625 112.336914062 48.6708984375 113.00390625 54.00390625 c 1
 115.00390625 47.3369140625 116.671875 47.00390625 118.004882812 53.00390625 c 1
 128.671875 49.6708984375 149.671875 48.00390625 181.004882812 48.00390625 c 0xac
 203.671875 48.00390625 232.00390625 48.6708984375 266.00390625 50.00390625 c 0
 347.336914062 54.00390625 400.666992188 58.3369140625 426 63.00390625 c 0
 434.666992188 64.3369140625 441.837890625 65.00390625 447.504882812 65.00390625 c 0x4c
 453.171875 65.00390625 458.004882812 64.00390625 462.004882812 62.00390625 c 0
 466.004882812 60.00390625 469.004882812 58.00390625 471.004882812 56.00390625 c 0
 473.004882812 54.00390625 474.671875 51.3369140625 476.004882812 48.00390625 c 0x8c
 477.337890625 44.6708984375 478.337890625 41.837890625 479.004882812 39.5048828125 c 0
 479.671875 37.171875 480.002929688 34.3388671875 480.002929688 31.005859375 c 0
 480.669921875 20.3388671875 477.338867188 11.005859375 470.005859375 3.005859375 c 0
 464.672851562 -3.6611328125 456.33984375 -6.994140625 445.006835938 -6.994140625 c 0
 443.006835938 -6.3271484375 441 -6 439 -6 c 2x4c
EndSplineSet
Validated: 524289
EndChar

StartChar: F
Encoding: 70 70 39
Width: 500
GlyphClass: 2
Flags: HMW
HStem: 310.003 62 323.003 64.999 619.002 67.998 675.001 20G
VStem: 21.995 77.8028 25.995 84.001
LayerCount: 2
Fore
SplineSet
447 682 m 0x28
 460.333007812 680.666992188 469 677.833007812 473 673.5 c 0
 477 669.166992188 479.333007812 662.666992188 480 654 c 0
 480 644.666992188 477 636.333984375 471 629.000976562 c 0
 466.333007812 622.333984375 457.666015625 619.000976562 444.999023438 619.000976562 c 2
 443.999023438 619.000976562 l 2
 407.33203125 621.000976562 370.33203125 622.000976562 332.999023438 622.000976562 c 0
 264.33203125 622.000976562 188.33203125 618.333984375 104.999023438 611.000976562 c 1
 104.33203125 594.333984375 103.665039062 573.333984375 102.998046875 548.000976562 c 0
 100.864257812 502.670898438 99.7978515625 458.194335938 99.7978515625 414.571289062 c 0
 99.7978515625 403.661132812 99.8642578125 392.8046875 99.998046875 382.001953125 c 0
 103.998046875 376.001953125 107.665039062 376.334960938 110.998046875 383.001953125 c 1
 138.331054688 386.334960938 167.6640625 388.001953125 198.997070312 388.001953125 c 2
 220.997070312 388.001953125 l 2x68
 260.997070312 386.668945312 296.997070312 384.668945312 328.997070312 382.001953125 c 0
 361.6640625 378.668945312 388.331054688 375.3359375 408.998046875 372.002929688 c 0
 423.665039062 369.3359375 432.998046875 366.002929688 436.998046875 362.002929688 c 0
 440.998046875 358.002929688 443.331054688 352.002929688 443.998046875 344.002929688 c 0
 443.998046875 334.002929688 441.665039062 325.3359375 436.998046875 318.002929688 c 0
 434.331054688 312.669921875 427.6640625 310.002929688 416.997070312 310.002929688 c 2
 411.997070312 310.002929688 l 2x88
 391.330078125 313.3359375 362.997070312 316.3359375 326.997070312 319.002929688 c 0
 292.997070312 321.669921875 254.6640625 323.002929688 211.997070312 323.002929688 c 0
 171.330078125 322.3359375 136.997070312 320.002929688 108.997070312 316.002929688 c 1
 106.330078125 309.3359375 103.663085938 309.002929688 100.99609375 315.002929688 c 1
 103.663085938 208.3359375 106.663085938 108.3359375 109.99609375 15.0029296875 c 0
 108.663085938 3.669921875 103.49609375 -5.330078125 94.49609375 -11.9970703125 c 0
 85.49609375 -18.6640625 75.3291015625 -21.9970703125 63.99609375 -21.9970703125 c 1
 63.3291015625 -27.9970703125 62.3291015625 -27.6640625 60.99609375 -20.9970703125 c 1
 50.3291015625 -21.6640625 41.662109375 -18.3310546875 34.9951171875 -10.998046875 c 0
 28.9951171875 -4.998046875 25.9951171875 3.3349609375 25.9951171875 14.001953125 c 2
 25.9951171875 19.001953125 l 2x44
 27.9951171875 41.001953125 28.9951171875 77.6689453125 28.9951171875 129.001953125 c 0
 28.328125 223.668945312 25.9951171875 329.001953125 21.9951171875 445.001953125 c 0
 20.662109375 489.668945312 19.9951171875 519.668945312 19.9951171875 535.001953125 c 0
 19.9951171875 550.334960938 20.662109375 570.834960938 21.9951171875 596.501953125 c 0
 23.328125 622.168945312 23.9951171875 640.001953125 23.9951171875 650.001953125 c 0
 24.662109375 665.334960938 28.662109375 676.66796875 35.9951171875 684.000976562 c 0
 43.328125 691.333984375 52.6611328125 695.000976562 63.994140625 695.000976562 c 1
 65.994140625 688.333984375 67.6611328125 688.333984375 68.994140625 695.000976562 c 1x58
 81.6611328125 695.000976562 91.328125 690.66796875 97.9951171875 682.000976562 c 1
 98.662109375 673.333984375 99.662109375 671.666992188 100.995117188 677 c 1
 180.995117188 683.666992188 255.995117188 687 325.995117188 687 c 0
 372.662109375 687 413 685.333007812 447 682 c 0x28
EndSplineSet
Validated: 524289
EndChar

StartChar: G
Encoding: 71 71 40
Width: 500
GlyphClass: 2
Flags: HMW
HStem: -31.002 72.002 248.5 74.501 285.998 64.5022 661 62.998
VStem: 11.003 79.998
LayerCount: 2
Fore
SplineSet
415 705 m 0xb8
 448.333007812 692.333007812 469.333007812 681.333007812 478 672 c 0
 486 664 490 654.666992188 490 644 c 0
 490.666992188 638 489.666992188 631.333007812 487 624 c 0
 485.666992188 618 481.333984375 613.666992188 474.000976562 611 c 0
 469.333984375 609.666992188 465.500976562 609 462.500976562 609 c 0
 459.500976562 609 455.333984375 609.666992188 450.000976562 611 c 0
 446.000976562 612.333007812 436.833984375 617.333007812 422.500976562 626 c 0
 408.16796875 634.666992188 393.000976562 642.666992188 377.000976562 650 c 0
 361.66796875 657.333007812 347.66796875 661 335.000976562 661 c 0
 314.333984375 661 292.500976562 653.5 269.500976562 638.5 c 0
 246.500976562 623.5 224.833984375 602.5 204.500976562 575.5 c 0
 184.16796875 548.5 165.66796875 518 149.000976562 484 c 0
 131.66796875 449.333007812 117.66796875 410.5 107.000976562 367.5 c 0
 96.333984375 324.5 91.0009765625 281 91.0009765625 237 c 0
 91.0009765625 205 97.0009765625 174.166992188 109.000976562 144.5 c 0
 121.000976562 114.833007812 137.66796875 90 159.000976562 70 c 0
 179.66796875 50.6669921875 202.66796875 41 228.000976562 41 c 0
 244.66796875 41 261.334960938 46.6669921875 278.001953125 58 c 0
 294.668945312 69.3330078125 309.501953125 83.666015625 322.501953125 100.999023438 c 0
 335.501953125 118.33203125 347.668945312 137.33203125 359.001953125 157.999023438 c 0
 370.334960938 178.666015625 380.001953125 198.999023438 388.001953125 218.999023438 c 0
 396.001953125 238.999023438 402.334960938 257.33203125 407.001953125 273.999023438 c 0
 408.334960938 276.666015625 409.66796875 280.999023438 411.000976562 286.999023438 c 1
 406.333984375 285.666015625 401.666992188 285.333007812 397 286 c 0
 357 284 318 280.166992188 280 274.5 c 0
 242 268.833007812 215.333007812 261.333007812 200 252 c 0
 196.666992188 250 193.333984375 248.833007812 190.000976562 248.5 c 0
 186.66796875 248.166992188 183.334960938 249.333984375 180.001953125 252.000976562 c 0
 172.668945312 257.333984375 168.3359375 264.333984375 167.002929688 273.000976562 c 2
 167.002929688 281.000976562 l 2
 167.002929688 298.333984375 177.3359375 312.333984375 198.002929688 323.000976562 c 0xd8
 214.002929688 332.333984375 250.3359375 339.666992188 307.002929688 345 c 0
 349.002929688 348.333007812 385.669921875 350 417.002929688 350 c 0
 423.002929688 350.333984375 428.669921875 350.500976562 434.002929688 350.500976562 c 0
 439.3359375 350.500976562 444.3359375 350.333984375 449.002929688 350 c 0
 463.669921875 348.666992188 473.336914062 346 478.00390625 342 c 0
 484.00390625 337.333007812 487.00390625 328.666015625 487.00390625 315.999023438 c 0
 487.00390625 309.33203125 485.836914062 303.665039062 483.50390625 298.998046875 c 0
 481.170898438 294.331054688 477.00390625 290.998046875 471.00390625 288.998046875 c 0
 469.00390625 286.331054688 467.00390625 285.331054688 465.00390625 285.998046875 c 1
 465.00390625 278.998046875 l 2
 465.00390625 276.998046875 464.50390625 271.665039062 463.50390625 262.998046875 c 0
 462.50390625 254.331054688 461.670898438 247.331054688 461.00390625 241.998046875 c 0
 459.670898438 227.998046875 455.670898438 211.831054688 449.00390625 193.498046875 c 0
 442.336914062 175.165039062 433.50390625 155.498046875 422.50390625 134.498046875 c 0
 411.50390625 113.498046875 398.336914062 92.998046875 383.00390625 72.998046875 c 0
 368.336914062 53.6650390625 352.669921875 35.998046875 336.002929688 19.998046875 c 0
 319.3359375 3.998046875 301.002929688 -8.6689453125 281.002929688 -18.001953125 c 0
 261.002929688 -26.6689453125 240.669921875 -31.001953125 220.002929688 -31.001953125 c 2
 218.002929688 -31.001953125 l 1
 217.002929688 -31.001953125 l 2
 193.002929688 -31.001953125 170.3359375 -26.6689453125 149.002929688 -18.001953125 c 0
 127.002929688 -8.6689453125 107.669921875 3.6640625 91.0029296875 18.9970703125 c 0
 74.3359375 34.330078125 59.8359375 51.9970703125 47.5029296875 71.9970703125 c 0
 35.169921875 91.9970703125 26.0029296875 113.330078125 20.0029296875 135.997070312 c 0
 14.0029296875 158.6640625 11.0029296875 181.331054688 11.0029296875 203.998046875 c 0
 11.0029296875 253.998046875 15.8359375 302.665039062 25.5029296875 349.998046875 c 0
 35.169921875 397.331054688 48.3369140625 439.831054688 65.00390625 477.498046875 c 0
 81.6708984375 515.165039062 101.337890625 549.665039062 124.004882812 580.998046875 c 0
 144.671875 612.331054688 166.504882812 638.331054688 189.504882812 658.998046875 c 0
 212.504882812 679.665039062 236.004882812 695.665039062 260.004882812 706.998046875 c 0
 284.004882812 718.331054688 307.004882812 723.998046875 329.004882812 723.998046875 c 0
 353.004882812 723.998046875 381.666992188 717.666992188 415 705 c 0xb8
EndSplineSet
Validated: 524289
EndChar

StartChar: H
Encoding: 72 72 41
Width: 500
GlyphClass: 2
Flags: HMW
HStem: 311.994 66.002 674.994 20G
VStem: 38.502 79.499 380 83.001 389 80.001
LayerCount: 2
Fore
SplineSet
115.5 292 m 0xe8
 115.166992188 287.333007812 115 284 115 282 c 0
 113 248.666992188 112 209.833984375 112 165.500976562 c 0
 112 121.16796875 113 70.9951171875 115 14.9951171875 c 0
 113.666992188 3.662109375 108.333984375 -5.337890625 99.0009765625 -12.0048828125 c 0
 89.66796875 -18.671875 79.3349609375 -22.0048828125 68.001953125 -22.0048828125 c 1
 67.3349609375 -28.0048828125 66.3349609375 -27.671875 65.001953125 -21.0048828125 c 1
 55.001953125 -21.671875 46.6689453125 -18.3388671875 40.001953125 -11.005859375 c 0
 34.001953125 -5.005859375 31.001953125 3 31.001953125 13 c 0
 31.6689453125 15 32.001953125 16.994140625 32.001953125 18.994140625 c 0
 33.3349609375 38.3271484375 34.001953125 81.3330078125 34.001953125 148 c 0
 34.001953125 182.666992188 34.3349609375 214 35.001953125 242 c 2
 35.001953125 243 l 2
 35.001953125 265 35.501953125 297.166992188 36.501953125 339.5 c 0
 37.501953125 381.833007812 38.1689453125 409.166015625 38.501953125 421.499023438 c 0
 38.8349609375 433.83203125 39.001953125 446.165039062 39.001953125 458.498046875 c 0
 39.001953125 470.831054688 38.6689453125 490.998046875 38.001953125 518.998046875 c 0
 37.3349609375 546.998046875 37.001953125 565.498046875 37.001953125 574.498046875 c 0
 37.001953125 583.498046875 38.001953125 608.662109375 40.001953125 649.995117188 c 0
 40.6689453125 665.328125 44.6689453125 676.661132812 52.001953125 683.994140625 c 0
 59.3349609375 691.327148438 68.66796875 694.994140625 80.0009765625 694.994140625 c 2
 83.0009765625 694.994140625 l 2
 93.66796875 694.994140625 102.66796875 691.827148438 110.000976562 685.494140625 c 0
 117.333984375 679.161132812 121.000976562 668.328125 121.000976562 652.995117188 c 0
 121.000976562 646.328125 120.16796875 632.1640625 118.500976562 610.497070312 c 0
 116.833984375 588.830078125 116 568.830078125 116 550.497070312 c 0
 116 532.1640625 116.333984375 505.1640625 117.000976562 469.497070312 c 0
 117.66796875 433.830078125 118.000976562 406.663085938 118.000976562 387.99609375 c 2
 118.000976562 377.99609375 l 2
 120.66796875 371.329101562 123.66796875 371.329101562 127.000976562 377.99609375 c 1
 180.333984375 379.329101562 244.333984375 385.662109375 319.000976562 396.995117188 c 0
 347.66796875 400.995117188 370.66796875 403.662109375 388.000976562 404.995117188 c 1
 388.000976562 413.995117188 l 2
 388.000976562 418.662109375 387.66796875 425.662109375 387.000976562 434.995117188 c 0
 386.333984375 444.328125 386.000976562 451.328125 386.000976562 455.995117188 c 0
 385.333984375 497.328125 385.000976562 524.495117188 385.000976562 537.495117188 c 0
 385.000976562 550.495117188 385.66796875 570.995117188 387.000976562 598.995117188 c 0
 388.333984375 626.995117188 389 643.995117188 389 649.995117188 c 0
 389 665.328125 392.833984375 676.661132812 400.500976562 683.994140625 c 0
 408.16796875 691.327148438 417.334960938 694.994140625 428.001953125 694.994140625 c 2
 431.001953125 694.994140625 l 2
 442.334960938 694.994140625 451.66796875 691.827148438 459.000976562 685.494140625 c 0
 466.333984375 679.161132812 470.000976562 668.328125 470.000976562 652.995117188 c 0
 470.000976562 640.328125 469.500976562 614.495117188 468.500976562 575.495117188 c 0
 467.500976562 536.495117188 467.000976562 501.995117188 467.000976562 471.995117188 c 0
 467.000976562 441.995117188 467.333984375 398.995117188 468.000976562 342.995117188 c 0
 468.66796875 327.662109375 469.000976562 305.995117188 469.000976562 277.995117188 c 0xe8
 469.000976562 249.995117188 468.000976562 206.495117188 466.000976562 147.495117188 c 0
 464.000976562 88.4951171875 463.000976562 46.9951171875 463.000976562 22.9951171875 c 2
 463.000976562 16.9951171875 l 1
 463.000976562 14.9951171875 l 2
 463.000976562 4.328125 457.66796875 -4.671875 447.000976562 -12.0048828125 c 0
 438.333984375 -18.671875 428.333984375 -22.0048828125 417.000976562 -22.0048828125 c 1
 416.333984375 -28.0048828125 415.333984375 -27.671875 414.000976562 -21.0048828125 c 1
 403.333984375 -21.671875 394.66796875 -18.3388671875 388.000976562 -11.005859375 c 0
 382.66796875 -5.005859375 380 3.3271484375 380 13.994140625 c 2
 380 18.994140625 l 1xf0
 386 103.661132812 389 197.661132812 389 300.994140625 c 2
 389 342.995117188 l 1
 385 336.328125 381.333007812 335.994140625 378 341.994140625 c 1
 366.666992188 341.327148438 328.666992188 335.994140625 264 325.994140625 c 0
 200 316.661132812 153.666992188 311.994140625 125 311.994140625 c 2
 116 311.994140625 l 1
 116 301.994140625 l 2
 116 299.994140625 115.833007812 296.666992188 115.5 292 c 0xe8
EndSplineSet
Validated: 524289
EndChar

StartChar: I
Encoding: 73 73 42
Width: 500
GlyphClass: 2
Flags: HMW
HStem: -6.40211 58.3992 612 69.001 624 64.001
VStem: 208.998 76.001 215.998 75.001
LayerCount: 2
Fore
SplineSet
212.999023438 540 m 2xc8
 212.999023438 546.666992188 213.665039062 560.001953125 214.998046875 580.001953125 c 0
 216.331054688 600.001953125 216.999023438 611.668945312 216.999023438 615.001953125 c 2
 216.999023438 624.001953125 l 1
 182.999023438 624.668945312 154.666015625 625.001953125 131.999023438 625.001953125 c 0
 107.33203125 625.001953125 90.33203125 624.834960938 80.9990234375 624.501953125 c 0
 71.666015625 624.168945312 66.666015625 624.001953125 65.9990234375 624.001953125 c 0
 52.666015625 624.001953125 42.8330078125 626.834960938 36.5 632.501953125 c 0
 30.1669921875 638.168945312 27 645.3359375 27 654.002929688 c 2
 27 657.002929688 l 2
 27 665.002929688 30 672.169921875 36 678.502929688 c 0
 42 684.8359375 52.3330078125 688.002929688 67 688.002929688 c 0xa8
 122.333007812 690.002929688 171.997070312 691.002929688 215.997070312 691.002929688 c 0
 303.997070312 691.002929688 379.666015625 687.669921875 442.999023438 681.002929688 c 0
 454.33203125 679.669921875 463 677.002929688 469 673.002929688 c 0
 475.666992188 668.3359375 479.333984375 660.668945312 480.000976562 650.001953125 c 0
 480.000976562 640.001953125 477.000976562 630.668945312 471.000976562 622.001953125 c 0
 468.333984375 618.001953125 464.666992188 615.001953125 460 613.001953125 c 0
 456.666992188 611.668945312 453.666992188 611.001953125 451 611.001953125 c 0
 448.333007812 611.001953125 445.666015625 611.334960938 442.999023438 612.001953125 c 0
 422.33203125 615.334960938 371.665039062 619.001953125 290.998046875 623.001953125 c 1
 290.998046875 613.001953125 l 2
 290.998046875 607.668945312 290.665039062 590.168945312 289.998046875 560.501953125 c 0
 289.331054688 530.834960938 288.998046875 504.66796875 288.998046875 482.000976562 c 2
 288.998046875 436.000976562 l 2
 288.998046875 415.333984375 289.331054688 394.166992188 289.998046875 372.5 c 0
 290.665039062 350.833007812 290.998046875 326.166015625 290.998046875 298.499023438 c 0xc8
 290.998046875 270.83203125 289.998046875 227.999023438 287.998046875 169.999023438 c 0
 285.998046875 111.999023438 284.998046875 75.9990234375 284.998046875 61.9990234375 c 2
 284.998046875 51.9990234375 l 1
 293.998046875 51.9990234375 l 2
 317.998046875 51.9990234375 369.331054688 51.666015625 447.998046875 50.9990234375 c 0
 461.331054688 50.9990234375 470.1640625 48.4990234375 474.497070312 43.4990234375 c 0
 478.830078125 38.4990234375 481.330078125 31.666015625 481.997070312 22.9990234375 c 0
 481.997070312 17.666015625 481.497070312 12.9990234375 480.497070312 8.9990234375 c 0
 479.497070312 4.9990234375 477.6640625 0.9990234375 474.997070312 -3.0009765625 c 0
 473.6640625 -6.333984375 471.331054688 -8.5009765625 467.998046875 -9.5009765625 c 0
 464.665039062 -10.5009765625 461.498046875 -11.16796875 458.498046875 -11.5009765625 c 0
 455.498046875 -11.833984375 452.665039062 -11.6669921875 449.998046875 -11 c 0
 431.998046875 -8.3330078125 403.331054688 -7 363.998046875 -7 c 0
 359.331054688 -7 347.998046875 -6.8330078125 329.998046875 -6.5 c 0
 326.400390625 -6.43359375 322.549804688 -6.400390625 318.446289062 -6.400390625 c 0
 302.018554688 -6.400390625 281.536132812 -6.93359375 256.999023438 -8 c 2
 190.999023438 -15.2001953125 l 2
 176.33203125 -15.2001953125 161.665039062 -14.1337890625 146.998046875 -12.0009765625 c 0
 105.665039062 -13.333984375 77.1650390625 -14.0009765625 61.498046875 -14.0009765625 c 0
 45.8310546875 -14.0009765625 34.8310546875 -11.5009765625 28.498046875 -6.5009765625 c 0
 22.1650390625 -1.5009765625 18.998046875 4.9990234375 18.998046875 12.9990234375 c 2
 18.998046875 14.9990234375 l 2
 18.998046875 22.9990234375 21.998046875 30.166015625 27.998046875 36.4990234375 c 0
 33.998046875 42.83203125 44.3310546875 46.33203125 58.998046875 46.9990234375 c 0
 86.998046875 47.666015625 136.998046875 48.998046875 208.998046875 50.998046875 c 1xd0
 213.665039062 133.665039062 215.998046875 215.999023438 215.998046875 297.999023438 c 0
 216.220703125 311.783203125 216.33203125 325.641601562 216.33203125 339.57421875 c 0
 216.33203125 367.418945312 215.887695312 395.560546875 214.999023438 423.998046875 c 0
 213.666015625 453.331054688 212.999023438 484.998046875 212.999023438 518.998046875 c 2
 212.999023438 540 l 2xc8
EndSplineSet
Validated: 524289
EndChar

StartChar: J
Encoding: 74 74 43
Width: 500
GlyphClass: 2
Flags: HMW
HStem: -34.999 82.001 626 65.001
VStem: 16.999 70 270.999 64.001
LayerCount: 2
Fore
SplineSet
155 626 m 0
 123.666992188 626 101.999023438 625.666015625 89.9990234375 624.999023438 c 0
 77.9990234375 624.33203125 71.666015625 623.999023438 70.9990234375 623.999023438 c 0
 57.666015625 623.999023438 47.666015625 626.83203125 40.9990234375 632.499023438 c 0
 34.33203125 638.166015625 30.9990234375 645.333007812 30.9990234375 654 c 2
 30.9990234375 657 l 2
 30.9990234375 665 34.166015625 672.166992188 40.4990234375 678.5 c 0
 46.83203125 684.833007812 57.33203125 688 71.9990234375 688 c 0
 126.666015625 690 175.999023438 691 219.999023438 691 c 0
 307.999023438 691 383.666015625 687.666992188 446.999023438 681 c 0
 458.33203125 680.333007812 466.999023438 677.666015625 472.999023438 672.999023438 c 0
 479.666015625 668.33203125 483.333007812 660.665039062 484 649.998046875 c 0
 484 639.998046875 481 630.665039062 475 621.998046875 c 0
 472.333007812 617.998046875 468.666015625 614.998046875 463.999023438 612.998046875 c 0
 461.33203125 611.665039062 458.499023438 610.998046875 455.499023438 610.998046875 c 0
 452.499023438 610.998046875 449.666015625 611.331054688 446.999023438 611.998046875 c 0
 426.999023438 615.331054688 388.33203125 618.331054688 330.999023438 620.998046875 c 1
 330.999023438 610.998046875 l 2
 330.999023438 591.665039062 331.666015625 562.33203125 332.999023438 522.999023438 c 0
 333.666015625 480.999023438 334.666015625 445.33203125 335.999023438 415.999023438 c 0
 337.33203125 387.999023438 337.999023438 353.83203125 337.999023438 313.499023438 c 0
 337.999023438 273.166015625 336.999023438 237.333007812 334.999023438 206 c 0
 330.33203125 146 323.165039062 98 313.498046875 62 c 0
 303.831054688 26 292.6640625 0.8330078125 279.997070312 -13.5 c 0
 267.330078125 -27.8330078125 252.330078125 -35 234.997070312 -35 c 0
 215.6640625 -35 196.331054688 -31.1669921875 176.998046875 -23.5 c 0
 157.665039062 -15.8330078125 140.665039062 -5.666015625 125.998046875 7.0009765625 c 0
 110.665039062 19.66796875 96.1650390625 33.66796875 82.498046875 49.0009765625 c 0
 68.8310546875 64.333984375 57.498046875 79.5009765625 48.498046875 94.5009765625 c 0
 39.498046875 109.500976562 32.3310546875 123.000976562 26.998046875 135.000976562 c 0
 21.6650390625 147.000976562 18.6650390625 156.66796875 17.998046875 164.000976562 c 0
 17.3310546875 167.333984375 16.998046875 171.000976562 16.998046875 175.000976562 c 0
 16.998046875 183.000976562 18.3310546875 192.000976562 20.998046875 202.000976562 c 0
 22.3310546875 208.66796875 25.498046875 214.16796875 30.498046875 218.500976562 c 0
 35.498046875 222.833984375 41.998046875 225.666992188 49.998046875 227 c 2
 57.998046875 227 l 2
 65.998046875 227.666992188 72.3310546875 225.666992188 76.998046875 221 c 0
 83.6650390625 214.333007812 86.998046875 206 86.998046875 196 c 0
 86.998046875 176.666992188 92.998046875 154.333984375 104.998046875 129.000976562 c 0
 111.665039062 115.000976562 120.33203125 102.000976562 130.999023438 90.0009765625 c 0
 140.33203125 78.0009765625 153.165039062 67.833984375 169.498046875 59.5009765625 c 0
 185.831054688 51.16796875 203.998046875 47.0009765625 223.998046875 47.0009765625 c 0
 238.665039062 47.0009765625 249.665039062 60.66796875 256.998046875 88.0009765625 c 0
 264.331054688 117.333984375 268.998046875 164.666992188 270.998046875 230 c 2
 270.998046875 254 l 2
 270.998046875 267.333007812 270.498046875 310 269.498046875 382 c 0
 268.8984375 425.202148438 268.598632812 471.404296875 268.598632812 520.606445312 c 0
 268.598632812 553.404296875 268.732421875 587.536132812 268.999023438 623.000976562 c 1
 222.999023438 625.000976562 185 626 155 626 c 0
EndSplineSet
Validated: 524289
EndChar

StartChar: K
Encoding: 75 75 44
Width: 500
GlyphClass: 2
Flags: HMW
HStem: -21.0341 21G 694.001 21G
VStem: 24 79.002 28.002 83
LayerCount: 2
Fore
SplineSet
22 541.5 m 0xe0
 22 556.5 22.66796875 578.333007812 24.0009765625 607 c 0
 25.333984375 635 26.0009765625 652.666992188 26.0009765625 660 c 0
 26.66796875 678.666992188 30.66796875 692.333984375 38.0009765625 701.000976562 c 0
 45.333984375 709.66796875 54.6669921875 714.000976562 66 714.000976562 c 2
 69 714.000976562 l 2
 79.6669921875 714.66796875 88.6669921875 711.000976562 96 703.000976562 c 0
 103.333007812 695.66796875 107 682.334960938 107 663.001953125 c 0
 107 647.668945312 106.333007812 613.001953125 105 559.001953125 c 0
 103.666992188 505.001953125 102.666992188 452.334960938 102 401.001953125 c 1
 136 437.001953125 175.333007812 480.001953125 220 530.001953125 c 0
 309.333007812 625.334960938 362 680.001953125 378 694.001953125 c 0
 386 703.334960938 393.666992188 709.334960938 401 712.001953125 c 0
 405.666992188 714.001953125 409.666992188 715.001953125 413 715.001953125 c 0
 419.666992188 715.001953125 426 711.000976562 432 703.000976562 c 0
 437.333007812 694.333984375 440 685.334960938 440 676.001953125 c 0
 440 667.334960938 434 657.334960938 422 646.001953125 c 0
 412 634.001953125 378 597.668945312 320 537.001953125 c 0
 264.666992188 473.668945312 213.333984375 416.001953125 166.000976562 364.001953125 c 1
 172.000976562 357.001953125 l 2
 193.333984375 333.668945312 229.000976562 296.3359375 279.000976562 245.002929688 c 0
 379.66796875 142.3359375 440.000976562 79.3359375 460.000976562 56.0029296875 c 0
 468.66796875 46.0029296875 474.000976562 39.3359375 476.000976562 36.0029296875 c 0
 478.000976562 32.669921875 479.000976562 29.3369140625 479.000976562 26.00390625 c 0
 479.000976562 20.00390625 478.333984375 14.6708984375 477.000976562 10.00390625 c 0
 473.66796875 0.00390625 468.66796875 -7.6630859375 462.000976562 -12.99609375 c 0
 455.333984375 -18.3291015625 449.000976562 -20.9970703125 443.000976562 -20.9970703125 c 0
 442.60546875 -21.021484375 442.208984375 -21.0341796875 441.811523438 -21.0341796875 c 0
 431.4921875 -21.0341796875 420.555664062 -12.6875 409 4.0029296875 c 0
 401.666992188 13.3359375 378 36.3359375 338 73.0029296875 c 0
 300.666992188 110.3359375 260.333984375 151.3359375 217.000976562 196.002929688 c 0
 173.66796875 244.002929688 141.334960938 282.002929688 120.001953125 310.002929688 c 2
 103.001953125 331.002929688 l 1
 103.001953125 284.002929688 l 1xe0
 111.001953125 24.001953125 l 2
 110.334960938 9.3349609375 105.33203125 -1.9970703125 95.9990234375 -9.9970703125 c 0
 86.666015625 -17.9970703125 76.3359375 -21.9970703125 65.0029296875 -21.9970703125 c 1
 64.3359375 -27.9970703125 63.3359375 -27.6640625 62.0029296875 -20.9970703125 c 1
 51.3359375 -21.6640625 42.6689453125 -17.3310546875 36.001953125 -7.998046875 c 0
 30.6689453125 0.001953125 28.001953125 10.6689453125 28.001953125 24.001953125 c 2
 28.001953125 28.001953125 l 2xd0
 30.001953125 50.001953125 31.001953125 86.6689453125 31.001953125 138.001953125 c 0
 30.3349609375 233.334960938 28 339.001953125 24 455.001953125 c 0
 22.6669921875 497.668945312 22 526.5 22 541.5 c 0xe0
EndSplineSet
Validated: 524289
EndChar

StartChar: L
Encoding: 76 76 45
Width: 500
GlyphClass: 2
Flags: HMW
HStem: -15 67.001
VStem: 51.998 72.0039
LayerCount: 2
Fore
SplineSet
468.5 72.5 m 0
 471.5 68.1669921875 474 63.5 476 58.5 c 0
 478 53.5 479 48.6669921875 479 44 c 0
 479 34 476.833007812 26.5 472.5 21.5 c 0
 468.166992188 16.5 458.666992188 12.6669921875 444 10 c 0
 399.333007812 1.3330078125 334.333007812 -5 249 -9 c 0
 163 -13 98.6669921875 -15 56 -15 c 0
 46 -15.6669921875 37.6669921875 -12.333984375 31 -5.0009765625 c 0
 25 0.9990234375 22 9.33203125 22 19.9990234375 c 0
 22 21.9990234375 22.1669921875 24.9990234375 22.5 28.9990234375 c 0
 22.8330078125 32.9990234375 26.666015625 69.9990234375 33.9990234375 139.999023438 c 0
 41.33203125 211.33203125 46.6650390625 279.999023438 49.998046875 345.999023438 c 0
 51.3310546875 363.999023438 51.998046875 388.166015625 51.998046875 418.499023438 c 0
 51.998046875 448.83203125 51.8310546875 471.83203125 51.498046875 487.499023438 c 0
 51.1650390625 503.166015625 50.33203125 554.333007812 48.9990234375 641 c 0
 49.666015625 657 53.8330078125 668.666992188 61.5 676 c 0
 69.1669921875 683.333007812 78.333984375 687 89.0009765625 687 c 2
 92.0009765625 687 l 2
 102.66796875 687 111.66796875 683.666992188 119.000976562 677 c 0
 126.333984375 670.333007812 130.000976562 659.666015625 130.000976562 644.999023438 c 0
 130.223632812 638.7734375 130.334960938 631.732421875 130.334960938 623.875976562 c 0
 130.334960938 608.174804688 129.890625 589.215820312 129.001953125 566.999023438 c 0
 127.001953125 517.666015625 125.334960938 475.333007812 124.001953125 440 c 0
 122.001953125 389.333007812 120.333984375 345.333007812 119.000976562 308 c 0
 118.333984375 280.666992188 116.001953125 240.333984375 112.001953125 187.000976562 c 0
 108.001953125 133.66796875 106.001953125 92.0009765625 106.001953125 62.0009765625 c 2
 106.001953125 52.0009765625 l 1
 130.000976562 52.0009765625 l 2
 179.333984375 52.66796875 236.66796875 56.3349609375 302.000976562 63.001953125 c 0
 370.000976562 69.6689453125 416.66796875 76.001953125 442.000976562 82.001953125 c 0
 444.66796875 82.6689453125 447.16796875 83.001953125 449.500976562 83.001953125 c 0
 451.833984375 83.001953125 454.333984375 82.6689453125 457.000976562 82.001953125 c 0
 461.66796875 80.001953125 465.5 76.8330078125 468.5 72.5 c 0
EndSplineSet
Validated: 524289
EndChar

StartChar: M
Encoding: 77 77 46
Width: 500
GlyphClass: 2
Flags: HMW
HStem: -10 21G<29 34.334> 684.001 20G
VStem: 0 68.001 206.001 85.999
LayerCount: 2
Fore
SplineSet
57 5 m 0
 49 -5 39.6669921875 -10 29 -10 c 0
 9.6669921875 -9.3330078125 0 13.333984375 0 58.0009765625 c 0
 0 66.0009765625 0.8330078125 79.833984375 2.5 99.5009765625 c 0
 4.1669921875 119.16796875 6.6669921875 145.000976562 10 177.000976562 c 0
 13.3330078125 209.000976562 16 237.000976562 18 261.000976562 c 0
 24 342.333984375 28 394.000976562 30 416.000976562 c 0
 32.6669921875 444.66796875 36 480.000976562 40 522.000976562 c 0
 48 603.333984375 56.3330078125 652.333984375 65 669.000976562 c 0
 71.6669921875 681.000976562 81 690.000976562 93 696.000976562 c 0
 104.333007812 701.333984375 115 704.000976562 125 704.000976562 c 2
 129 704.000976562 l 2
 140.333007812 704.000976562 149.666015625 702.000976562 156.999023438 698.000976562 c 0
 165.666015625 692.66796875 171.333007812 684.334960938 174 673.001953125 c 0
 181.333007812 643.668945312 189.5 595.3359375 198.5 528.002929688 c 0
 207.5 460.669921875 216.666992188 383.502929688 226 296.502929688 c 0
 235.333007812 209.502929688 242.000976562 152.002929688 246.000976562 124.002929688 c 0
 248.66796875 106.669921875 251.666992188 84 255 56 c 1
 257 83.3330078125 258.666992188 106.002929688 260 124.002929688 c 0
 266 218.669921875 273 303.669921875 281 379.002929688 c 0
 287 434.3359375 294.833007812 489.668945312 304.5 545.001953125 c 0
 314.166992188 600.334960938 322.666992188 643.001953125 330 673.001953125 c 0
 332 681.001953125 336.5 687.668945312 343.5 693.001953125 c 0
 350.5 698.334960938 357.666992188 701.66796875 365 703.000976562 c 0
 370.333007812 703.66796875 375 704.000976562 379 704.000976562 c 2
 389 704.000976562 l 1
 393 704.000976562 l 1
 406 704.000976562 l 2
 409.333007812 704.000976562 413.833007812 703.333984375 419.5 702.000976562 c 0
 425.166992188 700.66796875 429.333984375 698.834960938 432.000976562 696.501953125 c 0
 434.66796875 694.168945312 437.500976562 690.668945312 440.500976562 686.001953125 c 0
 443.500976562 681.334960938 445.66796875 675.334960938 447.000976562 668.001953125 c 0
 449.66796875 647.334960938 457.500976562 547.501953125 470.500976562 368.501953125 c 0
 483.500976562 189.501953125 492.66796875 88.001953125 498.000976562 64.001953125 c 0
 500.000976562 53.3349609375 501.000976562 43.66796875 501.000976562 35.0009765625 c 0
 501.000976562 15.0009765625 494.000976562 1.66796875 480.000976562 -4.9990234375 c 0
 475.333984375 -6.9990234375 470.500976562 -7.9990234375 465.500976562 -7.9990234375 c 0
 460.500976562 -7.9990234375 455.000976562 -6.33203125 449.000976562 -2.9990234375 c 0
 439.000976562 2.333984375 431.000976562 14.333984375 425.000976562 33.0009765625 c 0
 411.000976562 77.0009765625 398.66796875 271.000976562 388.000976562 615.000976562 c 0
 387.333984375 631.66796875 386.666992188 653.000976562 386 679.000976562 c 1
 382 653.66796875 378 633.000976562 374 617.000976562 c 0
 355.333007812 520.333984375 343.333007812 432.333984375 338 353.000976562 c 0
 332.666992188 277.000976562 325.166992188 205.000976562 315.5 137.000976562 c 0
 305.833007812 69.0009765625 298 27.66796875 292 13.0009765625 c 0
 286.666992188 -0.33203125 271.333984375 -6.9990234375 246.000976562 -6.9990234375 c 2
 242.000976562 -6.9990234375 l 2
 232.66796875 -6.9990234375 224.66796875 -5.166015625 218.000976562 -1.4990234375 c 0
 211.333984375 2.16796875 207.333984375 7.3349609375 206.000976562 14.001953125 c 0
 198.66796875 46.001953125 186.334960938 119.168945312 169.001953125 233.501953125 c 0
 151.668945312 347.834960938 135.668945312 458.001953125 121.001953125 564.001953125 c 0
 117.668945312 579.334960938 114.668945312 599.66796875 112.001953125 625.000976562 c 1
 110.001953125 599.66796875 108.001953125 579.334960938 106.001953125 564.001953125 c 0
 101.334960938 505.334960938 97.66796875 457.66796875 95.0009765625 421.000976562 c 0
 93.0009765625 387.000976562 91.0009765625 358.000976562 89.0009765625 334.000976562 c 0
 87.0009765625 300.66796875 85.0009765625 271.66796875 83.0009765625 247.000976562 c 0
 81.0009765625 219.000976562 78.66796875 190.000976562 76.0009765625 160.000976562 c 0
 74.0009765625 131.333984375 72.0009765625 107.666992188 70.0009765625 89 c 0
 68.66796875 75 68.0009765625 64 68.0009765625 56 c 0
 68.66796875 48 69.0009765625 46 69.0009765625 46 c 2
 69.0009765625 28.6669921875 65 15 57 5 c 0
EndSplineSet
Validated: 524289
EndChar

StartChar: N
Encoding: 78 78 47
Width: 500
GlyphClass: 2
Flags: HMW
HStem: -11.998 21G 685 20G<71.999 79.999 432 440.333>
VStem: 24 63 31.25 58.7499 404.001 72.999 414.501 62.4988
LayerCount: 2
Fore
SplineSet
437 705 m 0xc8
 443.666992188 705 448.999023438 704.333007812 452.999023438 703 c 0
 456.999023438 701 459.999023438 699 461.999023438 697 c 0
 463.999023438 695 465.666015625 690.666992188 466.999023438 684 c 0
 468.999023438 680 470.33203125 675.666992188 470.999023438 671 c 0
 471.666015625 666.333007812 472.666015625 659 473.999023438 649 c 0
 475.33203125 639.666992188 476.33203125 586.666992188 476.999023438 490 c 2
 476.999023438 448 l 2
 476.999023438 364 475.999023438 285.666992188 473.999023438 213 c 0
 471.999023438 139.666992188 469.666015625 89.6669921875 466.999023438 63 c 0
 464.33203125 35 461.665039062 17.6669921875 458.998046875 11 c 0
 453.665039062 -5.6669921875 438.33203125 -14 412.999023438 -14 c 1
 410.999023438 -20.6669921875 409.33203125 -20.6669921875 407.999023438 -14 c 1
 399.33203125 -14 391.999023438 -11.6669921875 385.999023438 -7 c 0
 379.999023438 -2.3330078125 375.666015625 4 372.999023438 12 c 0
 368.33203125 22.6669921875 352.999023438 52.333984375 326.999023438 101.000976562 c 2
 252.999023438 247.000976562 l 2
 227.666015625 295.66796875 201.333007812 350.334960938 174 411.001953125 c 0
 146 473.001953125 124.333007812 525.668945312 109 569.001953125 c 0
 101 592.334960938 93.3330078125 613.334960938 86 632.001953125 c 1
 87.3330078125 610.001953125 88.666015625 586.668945312 89.9990234375 562.001953125 c 0
 93.33203125 504.668945312 94.9990234375 450.001953125 94.9990234375 398.001953125 c 0
 94.9990234375 384.668945312 94.666015625 359.3359375 93.9990234375 322.002929688 c 0
 93.33203125 284.002929688 91.9990234375 237.669921875 89.9990234375 183.002929688 c 0xd8
 87.9990234375 128.3359375 86.9990234375 90.6689453125 86.9990234375 70.001953125 c 2
 86.9990234375 62.001953125 l 2
 87.666015625 57.3349609375 87.9990234375 53.3349609375 87.9990234375 50.001953125 c 2
 87.9990234375 44.001953125 l 2
 87.9990234375 24.6689453125 84.666015625 10.6689453125 77.9990234375 2.001953125 c 0
 71.33203125 -7.3310546875 62.9990234375 -11.998046875 52.9990234375 -11.998046875 c 2
 50.9990234375 -11.998046875 l 2
 46.33203125 -11.998046875 42.33203125 -10.6650390625 38.9990234375 -7.998046875 c 0
 35.666015625 -5.3310546875 32.9990234375 -0.6640625 30.9990234375 6.0029296875 c 0
 26.33203125 16.669921875 23.9990234375 33.0029296875 23.9990234375 55.0029296875 c 0xe0
 23.9990234375 67.669921875 24.9990234375 119.002929688 26.9990234375 209.002929688 c 0
 28.9990234375 299.669921875 30.33203125 378.669921875 30.9990234375 446.002929688 c 0
 31.166015625 462.837890625 31.2490234375 479.505859375 31.2490234375 496.006835938 c 0
 31.2490234375 545.504882812 30.4990234375 593.50390625 28.9990234375 640.002929688 c 2
 28.9990234375 647.002929688 l 2
 29.666015625 657.002929688 31.3330078125 666.002929688 34 674.002929688 c 0
 36.6669921875 682.669921875 40.6669921875 689.336914062 46 694.00390625 c 0
 55.3330078125 701.336914062 65.9990234375 705 77.9990234375 705 c 0
 81.9990234375 705 85.6669921875 704.670898438 89 704.00390625 c 2
 89.9990234375 704.00390625 l 2
 100.666015625 704.00390625 109.666992188 701.666992188 117 697 c 0
 125.666992188 691.666992188 131.666992188 682.00390625 135 668.00390625 c 0
 148.333007812 624.00390625 184.333007812 541.336914062 243 420.00390625 c 0
 301 299.336914062 351.333007812 202.00390625 394 128.00390625 c 0
 399.333007812 115.336914062 404.666015625 106.00390625 409.999023438 100.00390625 c 1
 410.666015625 110.00390625 411.333007812 122.336914062 412 137.00390625 c 0
 413.333007812 179.670898438 414 234.670898438 414 302.00390625 c 0
 414.333984375 318.670898438 414.500976562 336.170898438 414.500976562 354.50390625 c 0xd4
 414.500976562 372.836914062 414.333984375 392.00390625 414.000976562 412.00390625 c 0
 412.000976562 532.670898438 408.66796875 612.337890625 404.000976562 651.004882812 c 1
 404.000976562 657.004882812 l 2
 404.000976562 669.671875 406.66796875 680.338867188 412.000976562 689.005859375 c 0
 418.66796875 699.672851562 427 705 437 705 c 0xc8
EndSplineSet
Validated: 524289
EndChar

StartChar: O
Encoding: 79 79 48
Width: 500
GlyphClass: 2
Flags: HMW
HStem: -23.998 73.999 646.508 71.4923
VStem: 24.999 77.002 399 76.999
LayerCount: 2
Fore
SplineSet
354.999023438 120.001953125 m 0
 367.666015625 137.334960938 377.333007812 157.001953125 384 179.001953125 c 0
 386.666992188 187.668945312 389.5 208.001953125 392.5 240.001953125 c 0
 395.5 272.001953125 397.666992188 309.668945312 399 353.001953125 c 0
 399.666992188 365.668945312 400 378.3359375 400 391.002929688 c 0
 400 422.3359375 398.666992188 453.002929688 396 483.002929688 c 0
 392 529.002929688 377 567.669921875 351 599.002929688 c 0
 327 630.3359375 297.333007812 646.168945312 262 646.501953125 c 0
 261.594726562 646.505859375 261.189453125 646.5078125 260.78515625 646.5078125 c 0
 225.986328125 646.5078125 196.724609375 632.338867188 173 604.000976562 c 0
 149.666992188 576.000976562 132.333984375 537.66796875 121.000976562 489.000976562 c 0
 108.333984375 437.000976562 102.000976562 377.66796875 102.000976562 311.000976562 c 0
 102.66796875 269.66796875 105.000976562 233.334960938 109.000976562 202.001953125 c 0
 111.000976562 183.334960938 115.000976562 164.66796875 121.000976562 146.000976562 c 0
 127.000976562 127.333984375 134.333984375 111.000976562 143.000976562 97.0009765625 c 0
 151.000976562 83.0009765625 161.66796875 71.66796875 175.000976562 63.0009765625 c 0
 188.333984375 54.333984375 203.33203125 50.0009765625 219.999023438 50.0009765625 c 0
 255.33203125 50.0009765625 287.000976562 59.66796875 315.000976562 79.0009765625 c 0
 329.66796875 89.0009765625 342.999023438 102.668945312 354.999023438 120.001953125 c 0
24.9990234375 261 m 2
 24.9990234375 291.666992188 25.3330078125 316.166992188 26 334.5 c 0
 26.6669921875 352.833007812 28 377.333007812 30 408 c 0
 34 467.333007812 45 522 63 572 c 0
 79.6669921875 614.666992188 108 649.666992188 148 677 c 0
 184.666992188 704.333007812 226.333984375 718 273.000976562 718 c 0
 296.333984375 718 318.666992188 713 340 703 c 0
 362 693 382.333007812 678.5 401 659.5 c 0
 419.666992188 640.5 435.166992188 616.166992188 447.5 586.5 c 0
 459.833007812 556.833007812 467.666015625 523.333007812 470.999023438 486 c 0
 474.33203125 444.666992188 475.999023438 402.333984375 475.999023438 359.000976562 c 0
 475.999023438 325.66796875 474.83203125 290.834960938 472.499023438 254.501953125 c 0
 470.166015625 218.168945312 465.999023438 188.668945312 459.999023438 166.001953125 c 0
 451.33203125 134.668945312 440.83203125 107.668945312 428.499023438 85.001953125 c 0
 416.166015625 62.3349609375 402.833007812 44.001953125 388.5 30.001953125 c 0
 374.166992188 16.001953125 357.666992188 5.001953125 339 -2.998046875 c 0
 321.666992188 -10.998046875 303.666992188 -16.6650390625 285 -19.998046875 c 0
 266.333007812 -22.6650390625 244.666015625 -23.998046875 219.999023438 -23.998046875 c 0
 184.666015625 -23.998046875 151.999023438 -11.998046875 121.999023438 12.001953125 c 0
 90.666015625 36.001953125 66.666015625 68.001953125 49.9990234375 108.001953125 c 0
 33.33203125 148.001953125 24.9990234375 191.334960938 24.9990234375 238.001953125 c 2
 24.9990234375 243.001953125 l 1
 24.9990234375 261 l 2
EndSplineSet
Validated: 524289
EndChar

StartChar: P
Encoding: 80 80 49
Width: 500
GlyphClass: 2
Flags: HMW
HStem: -19 21G<81.001 87.001 87.001 90.001> 230 71.998 639.996 52.0029
VStem: 44.001 75 51.201 81.7989 394 73<470.999 514.997>
LayerCount: 2
Fore
SplineSet
122.000976562 630.998046875 m 1xf4
 119.000976562 547.998046875 l 2
 116.8671875 480.26953125 115.80078125 417.874023438 115.80078125 360.810546875 c 0
 115.80078125 346.5390625 115.8671875 332.6015625 116.000976562 318.998046875 c 1
 123.000976562 316.998046875 l 2
 150.333984375 306.998046875 181.000976562 301.998046875 215.000976562 301.998046875 c 0
 233.000976562 301.998046875 249.500976562 303.498046875 264.500976562 306.498046875 c 0
 279.500976562 309.498046875 292.66796875 313.498046875 304.000976562 318.498046875 c 0
 315.333984375 323.498046875 325.333984375 329.998046875 334.000976562 337.998046875 c 0
 343.333984375 345.998046875 351.333984375 354.165039062 358.000976562 362.498046875 c 0
 364.66796875 370.831054688 370.334960938 380.331054688 375.001953125 390.998046875 c 0
 379.668945312 401.665039062 383.168945312 411.498046875 385.501953125 420.498046875 c 0
 387.834960938 429.498046875 389.66796875 439.665039062 391.000976562 450.998046875 c 0
 392.333984375 462.331054688 393.166992188 471.6640625 393.5 478.997070312 c 0
 393.833007812 486.330078125 394 494.997070312 394 504.997070312 c 0
 394 524.997070312 390.333007812 543.1640625 383 559.497070312 c 0
 375.666992188 575.830078125 366.333007812 588.997070312 355 598.997070312 c 0
 344.333007812 608.330078125 332.500976562 616.163085938 319.500976562 622.49609375 c 0
 306.500976562 628.829101562 294.16796875 633.329101562 282.500976562 635.99609375 c 0
 270.833984375 638.663085938 259.333007812 639.99609375 248 639.99609375 c 0
 227.333007812 639.99609375 185.333984375 636.998046875 122.000976562 630.998046875 c 1xf4
43 626 m 1
 41.6669921875 621.333007812 40 622.998046875 38 630.998046875 c 0
 35.3330078125 635.665039062 34 640 34 644 c 0
 34.6669921875 644.666992188 35 645.666992188 35 647 c 0
 35.6669921875 653.666992188 38.1669921875 659.5 42.5 664.5 c 0
 46.8330078125 669.5 51.3330078125 672.666992188 56 674 c 0
 79.3330078125 679.333007812 114 683.666015625 160 686.999023438 c 0
 202 690.33203125 231.333007812 691.999023438 248 691.999023438 c 0
 288 691.999023438 323.666992188 684.33203125 355 668.999023438 c 0
 389 653.666015625 416 630.666015625 436 599.999023438 c 0
 456 569.33203125 466.333007812 532.33203125 467 488.999023438 c 0
 467 452.999023438 461.166992188 419.166015625 449.5 387.499023438 c 0
 437.833007812 355.83203125 421.833007812 328.33203125 401.5 304.999023438 c 0
 381.166992188 281.666015625 357 263.333007812 329 250 c 0
 302.333007812 236.666992188 273.333007812 230 242 230 c 0
 195.333007812 230 158 233.333007812 130 240 c 1
 125.333007812 234.666992188 121 235.666992188 117 243 c 1
 119.666992188 189.666992188 123.666992188 130.666992188 129 66 c 0
 131.666992188 35.3330078125 133 17.666015625 133 12.9990234375 c 2
 133 11.9990234375 l 2
 133 2.666015625 129 -4.6669921875 121 -10 c 0
 111.666992188 -16 101.333984375 -19 90.0009765625 -19 c 2
 87.0009765625 -19 l 2
 75.0009765625 -19 65.333984375 -15.6669921875 58.0009765625 -9 c 0
 52.66796875 -3.6669921875 50.0009765625 3.666015625 50.0009765625 12.9990234375 c 0
 50.0009765625 14.9990234375 50.16796875 20.166015625 50.5009765625 28.4990234375 c 0
 50.833984375 36.83203125 51.0009765625 55.6650390625 51.0009765625 84.998046875 c 0
 51.134765625 91.7998046875 51.201171875 100.109375 51.201171875 109.926757812 c 0xec
 51.201171875 149.180664062 50.134765625 212.538085938 48.0009765625 299.998046875 c 0
 46.0009765625 371.998046875 45.0009765625 420.998046875 45.0009765625 446.998046875 c 0
 44.333984375 462.998046875 44.0009765625 484.498046875 44.0009765625 511.498046875 c 0
 44.0009765625 538.498046875 44.66796875 575.665039062 46.0009765625 622.998046875 c 1
 44.66796875 617.665039062 43.6669921875 618.666992188 43 626 c 1
EndSplineSet
Validated: 524289
EndChar

StartChar: Q
Encoding: 81 81 50
Width: 500
GlyphClass: 2
Flags: HMW
HStem: -24.0667 74.0667 646.001 71.999
VStem: 20.999 75.998 217.994 51.0039 398.997 74.002
LayerCount: 2
Fore
SplineSet
168 -11 m 0
 146 -1.6669921875 125.999023438 11.166015625 107.999023438 27.4990234375 c 0
 89.9990234375 43.83203125 74.666015625 63.33203125 61.9990234375 85.9990234375 c 0
 37.33203125 129.999023438 23.6650390625 182.666015625 20.998046875 243.999023438 c 2
 20.998046875 295.999023438 l 2
 20.9814453125 298.634765625 20.9736328125 301.259765625 20.9736328125 303.874023438 c 0
 20.9736328125 408.397460938 33.9814453125 496.10546875 59.998046875 566.999023438 c 0
 75.3310546875 609.666015625 103.331054688 645.333007812 143.998046875 674 c 0
 181.998046875 703.333007812 223.998046875 718 269.998046875 718 c 0
 317.998046875 717.333007812 359.998046875 699.333007812 395.998046875 664 c 0
 413.998046875 646.666992188 429.331054688 622.833984375 441.998046875 592.500976562 c 0
 454.665039062 562.16796875 462.998046875 527.66796875 466.998046875 489.000976562 c 0
 470.998046875 450.333984375 472.998046875 406.000976562 472.998046875 356.000976562 c 0
 472.998046875 269.333984375 468.665039062 204.000976562 459.998046875 160.000976562 c 0
 445.998046875 89.333984375 414.665039062 39.0009765625 365.998046875 9.0009765625 c 0
 362.665039062 2.333984375 359.665039062 0.6669921875 356.998046875 4 c 1
 374.331054688 -21.3330078125 390.6640625 -44.3330078125 405.997070312 -65 c 0
 420.6640625 -85 431.497070312 -99.5 438.497070312 -108.5 c 0
 445.497070312 -117.5 457.997070312 -133.666992188 475.997070312 -157 c 0
 478.6640625 -160.333007812 479.997070312 -164.333007812 479.997070312 -169 c 2
 479.997070312 -173 l 2
 478.6640625 -180.333007812 476.1640625 -187.166015625 472.497070312 -193.499023438 c 0
 468.830078125 -199.83203125 464.997070312 -204.33203125 460.997070312 -206.999023438 c 0
 455.6640625 -210.33203125 449.997070312 -211.999023438 443.997070312 -211.999023438 c 0
 441.330078125 -211.999023438 438.330078125 -211.666015625 434.997070312 -210.999023438 c 0
 424.997070312 -207.666015625 415.997070312 -201.333007812 407.997070312 -192 c 0
 397.997070312 -180.666992188 381.997070312 -158.666992188 359.997070312 -126 c 0
 339.997070312 -93.3330078125 318.997070312 -58 296.997070312 -20 c 1
 294.997070312 -26.6669921875 292.997070312 -27 290.997070312 -21 c 1
 275.6640625 -23 258.6640625 -24 239.997070312 -24 c 0
 238.263671875 -24.044921875 236.5390625 -24.0673828125 234.823242188 -24.0673828125 c 0
 210.806640625 -24.0673828125 188.533203125 -19.7109375 168 -11 c 0
256.997070312 208.999023438 m 0
 261.6640625 205.666015625 265.6640625 199.333007812 268.997070312 190 c 0
 279.6640625 156.666992188 295.6640625 120.333984375 316.997070312 81.0009765625 c 2
 321.997070312 71.0009765625 l 1
 329.997070312 77.0009765625 l 2
 359.330078125 98.333984375 378.663085938 131.333984375 387.99609375 176.000976562 c 0
 389.99609375 185.333984375 392.329101562 205.666992188 394.99609375 237 c 0
 396.99609375 267.666992188 398.329101562 306 398.99609375 352 c 2
 398.99609375 368 l 2
 399.079101562 373.084960938 399.12109375 378.138671875 399.12109375 383.161132812 c 0
 399.12109375 418.305664062 397.079101562 451.918945312 392.99609375 484.000976562 c 0
 386.99609375 532.66796875 371.663085938 572.000976562 346.99609375 602.000976562 c 0
 324.329101562 631.333984375 294.99609375 646.000976562 258.99609375 646.000976562 c 0
 222.99609375 646.000976562 192.99609375 632.333984375 168.99609375 605.000976562 c 0
 144.99609375 577.66796875 127.329101562 539.66796875 115.99609375 491.000976562 c 0
 103.329101562 439.000976562 96.99609375 383.66796875 96.99609375 325.000976562 c 2
 96.99609375 321.000976562 l 2
 97.6630859375 302.333984375 98.6630859375 282.666992188 99.99609375 262 c 0
 102.663085938 221.333007812 110.163085938 185.5 122.49609375 154.5 c 0
 134.829101562 123.5 151.162109375 98.3330078125 171.495117188 79 c 0
 191.828125 59.6669921875 214.661132812 50 239.994140625 50 c 2
 248.994140625 50 l 1
 263.994140625 50 l 1
 256.994140625 65 l 2
 242.327148438 94.3330078125 232.16015625 116.833007812 226.493164062 132.5 c 0
 220.826171875 148.166992188 217.993164062 161.666992188 217.993164062 173 c 0
 217.993164062 187 222.66015625 198 231.993164062 206 c 0
 237.326171875 210.666992188 242.326171875 213 246.993164062 213 c 0
 250.326171875 213 253.6640625 211.666015625 256.997070312 208.999023438 c 0
EndSplineSet
Validated: 524289
EndChar

StartChar: R
Encoding: 82 82 51
Width: 500
GlyphClass: 2
Flags: HMW
HStem: -18.998 21G 280.633 68.3692 675.001 20G
VStem: 25.999 76.001 30 83.998 34.666 59.3317 35.499 70.5 391.997 72.0029
LayerCount: 2
Fore
SplineSet
370 504.000976562 m 0xe3
 355.333007812 522.66796875 337.999023438 538.834960938 317.999023438 552.501953125 c 0
 297.999023438 566.168945312 275.666015625 578.668945312 250.999023438 590.001953125 c 0
 204.33203125 610.668945312 158.33203125 625.001953125 112.999023438 633.001953125 c 2
 101.999023438 635.001953125 l 1xf1
 103.33203125 578.334960938 104.665039062 532.334960938 105.998046875 497.001953125 c 0
 105.998046875 485.001953125 104.997070312 465.334960938 102.997070312 438.001953125 c 0
 102.330078125 429.334960938 99.6640625 400.334960938 94.9970703125 351.001953125 c 1
 102.997070312 350.001953125 l 2
 111.758789062 348.477539062 122.479492188 347.715820312 135.159179688 347.715820312 c 0
 144.669921875 347.715820312 155.282226562 348.14453125 166.997070312 349.001953125 c 0
 244.997070312 352.334960938 298.330078125 359.334960938 326.997070312 370.001953125 c 0
 338.330078125 374.001953125 348.997070312 379.334960938 358.997070312 386.001953125 c 0
 380.997070312 400.001953125 391.997070312 419.668945312 391.997070312 445.001953125 c 0
 391.997070312 465.668945312 384.666992188 485.333984375 370 504.000976562 c 0xe3
404.999023438 3 m 0
 394.33203125 17 378.994140625 34.66796875 358.994140625 56.0009765625 c 0
 340.994140625 76.66796875 319.1640625 99.5009765625 293.497070312 124.500976562 c 0
 267.830078125 149.500976562 238.663085938 174.333984375 205.99609375 199.000976562 c 0
 173.329101562 223.66796875 140.329101562 243.334960938 106.99609375 258.001953125 c 1
 102.329101562 253.334960938 97.662109375 255.334960938 92.9951171875 264.001953125 c 1
 93.662109375 252.668945312 93.9951171875 249.001953125 93.9951171875 249.001953125 c 2xe5
 95.328125 210.334960938 98.9951171875 163.001953125 104.995117188 107.001953125 c 0
 110.995117188 51.001953125 113.995117188 19.3349609375 113.995117188 12.001953125 c 0
 113.328125 2.6689453125 108.995117188 -4.6640625 100.995117188 -9.9970703125 c 0
 91.662109375 -15.9970703125 81.3291015625 -18.9970703125 69.99609375 -18.9970703125 c 2
 66.99609375 -18.9970703125 l 2
 55.6630859375 -18.9970703125 46.330078125 -15.6640625 38.9970703125 -8.9970703125 c 0
 32.9970703125 -3.6640625 29.9970703125 3.6689453125 29.9970703125 13.001953125 c 0xe9
 30.6640625 14.3349609375 30.9970703125 16.3349609375 30.9970703125 19.001953125 c 0
 32.9970703125 53.6689453125 34.1640625 83.501953125 34.4970703125 108.501953125 c 0
 34.6083984375 116.827148438 34.6640625 129.051757812 34.6640625 145.176757812 c 0xe5
 34.6640625 177.473632812 34.44140625 225.415039062 33.99609375 289.000976562 c 2
 33.99609375 305.500976562 l 2
 33.99609375 314.500976562 34.49609375 333.000976562 35.49609375 361.000976562 c 0xe3
 36.49609375 389.000976562 36.99609375 412.833984375 36.99609375 432.500976562 c 0
 36.99609375 452.16796875 36.6630859375 472.000976562 35.99609375 492.000976562 c 0
 35.3291015625 512.000976562 33.49609375 541.500976562 30.49609375 580.500976562 c 0
 27.49609375 619.500976562 25.99609375 642.66796875 25.99609375 650.000976562 c 2
 25.99609375 656.000976562 l 1
 25.99609375 659.000976562 l 2xf1
 25.99609375 667.000976562 29.6630859375 674.66796875 36.99609375 682.000976562 c 0
 43.6630859375 690.66796875 53.330078125 695.000976562 65.9970703125 695.000976562 c 0
 76.6640625 695.000976562 84.9970703125 692.66796875 90.9970703125 688.000976562 c 1
 92.330078125 681.333984375 93.328125 681.000976562 93.9951171875 687.000976562 c 1xe5
 147.995117188 684.333984375 195.497070312 677.166992188 236.497070312 665.5 c 0
 277.497070312 653.833007812 311.330078125 639.666015625 337.997070312 622.999023438 c 0
 365.997070312 606.33203125 389.830078125 587.33203125 409.497070312 565.999023438 c 0
 429.1640625 544.666015625 443.1640625 523.499023438 451.497070312 502.499023438 c 0
 459.830078125 481.499023438 463.997070312 460.33203125 463.997070312 438.999023438 c 0
 463.997070312 408.33203125 456.330078125 382.999023438 440.997070312 362.999023438 c 0
 433.6640625 353.666015625 423.997070312 345.166015625 411.997070312 337.499023438 c 0
 399.997070312 329.83203125 386.997070312 323.33203125 372.997070312 317.999023438 c 0
 359.6640625 312.666015625 344.327148438 307.833007812 326.994140625 303.5 c 0
 309.661132812 299.166992188 292.165039062 295.833984375 274.498046875 293.500976562 c 0
 256.831054688 291.16796875 236.998046875 289.000976562 214.998046875 287.000976562 c 0
 209.208984375 282.755859375 203.307617188 280.6328125 197.294921875 280.6328125 c 0
 192.921875 280.6328125 188.490234375 281.755859375 183.999023438 284.000976562 c 1
 191.799804688 273.201171875 199.870117188 267.801757812 208.209960938 267.801757812 c 0
 209.13671875 267.801757812 210.06640625 267.868164062 211 268.000976562 c 0
 271.666992188 234.000976562 325.666015625 194.333984375 372.999023438 149.000976562 c 0
 423.666015625 103.000976562 457 64.333984375 473 33.0009765625 c 0
 474.333007812 28.333984375 475 23.833984375 475 19.5009765625 c 0
 475 15.16796875 474.333007812 11.0009765625 473 7.0009765625 c 0
 469.666992188 -0.33203125 464.666992188 -6.33203125 458 -10.9990234375 c 0
 452 -15.666015625 446 -17.9990234375 440 -17.9990234375 c 0
 427.333007812 -17.9990234375 415.666015625 -11 404.999023438 3 c 0
EndSplineSet
Validated: 524289
EndChar

StartChar: S
Encoding: 83 83 52
Width: 500
GlyphClass: 2
Flags: HMW
HStem: -29.0049 67.0049 664.997 59.1678
VStem: 49.002 81 401.999 80.0039
LayerCount: 2
Fore
SplineSet
20 102 m 0
 22 110.666992188 27.3330078125 117 36 121 c 0
 43.3330078125 124.333007812 48.5 126.333007812 51.5 127 c 0
 54.5 127.666992188 57 128 59 128 c 2
 65 128 l 2
 69 128 73.1669921875 126 77.5 122 c 0
 81.8330078125 118 86.666015625 112 91.9990234375 104 c 0
 105.33203125 84 122.999023438 68 144.999023438 56 c 0
 165.666015625 44 188.999023438 38 214.999023438 38 c 0
 230.33203125 38 246.499023438 40.3330078125 263.499023438 45 c 0
 280.499023438 49.6669921875 296.999023438 56.6669921875 312.999023438 66 c 0
 328.999023438 75.3330078125 343.33203125 86.666015625 355.999023438 99.9990234375 c 0
 369.33203125 113.33203125 380.33203125 128.999023438 388.999023438 146.999023438 c 0
 397.666015625 164.999023438 401.999023438 183.999023438 401.999023438 203.999023438 c 0
 401.999023438 214.666015625 401.33203125 224.499023438 399.999023438 233.499023438 c 0
 398.666015625 242.499023438 395.833007812 252.166015625 391.5 262.499023438 c 0
 387.166992188 272.83203125 381.666992188 282.33203125 375 290.999023438 c 0
 368.333007812 299.666015625 359.333007812 308.333007812 348 317 c 0
 336.666992188 325.666992188 323.833984375 333 309.500976562 339 c 0
 295.16796875 345 277.500976562 350.666992188 256.500976562 356 c 0
 235.500976562 361.333007812 212.333984375 365.666015625 187.000976562 368.999023438 c 0
 166.333984375 371.666015625 147.333984375 377.666015625 130.000976562 386.999023438 c 0
 111.333984375 396.33203125 96.333984375 407.83203125 85.0009765625 421.499023438 c 0
 73.66796875 435.166015625 64.8349609375 449.666015625 58.501953125 464.999023438 c 0
 52.1689453125 480.33203125 49.001953125 495.33203125 49.001953125 509.999023438 c 0
 49.001953125 531.999023438 52.6689453125 553.33203125 60.001953125 573.999023438 c 0
 67.3349609375 594.666015625 78.66796875 614.166015625 94.0009765625 632.499023438 c 0
 109.333984375 650.83203125 127.666992188 666.665039062 149 679.998046875 c 0
 169 693.331054688 193.166992188 703.998046875 221.5 711.998046875 c 0
 249.833007812 719.998046875 280.333007812 723.998046875 313 723.998046875 c 0
 315.66796875 724.109375 318.521484375 724.165039062 321.560546875 724.165039062 c 0
 336.745117188 724.165039062 356.55859375 722.776367188 381 719.999023438 c 0
 411.666992188 716.666015625 432.333984375 712.999023438 443.000976562 708.999023438 c 0
 453.66796875 704.999023438 461.000976562 698.999023438 465.000976562 690.999023438 c 0
 469.000976562 684.33203125 471.000976562 677.665039062 471.000976562 670.998046875 c 0
 471.000976562 662.331054688 469.000976562 655.998046875 465.000976562 651.998046875 c 0
 462.333984375 648.665039062 459.000976562 646.83203125 455.000976562 646.499023438 c 0
 451.000976562 646.166015625 447.333984375 645.999023438 444.000976562 645.999023438 c 0
 434.66796875 645.999023438 425.66796875 647.666015625 417.000976562 650.999023438 c 0
 405.000976562 654.33203125 395.333984375 656.665039062 388.000976562 657.998046875 c 0
 380.66796875 659.331054688 369.334960938 660.6640625 354.001953125 661.997070312 c 0
 339.334960938 663.997070312 323.001953125 664.997070312 305.001953125 664.997070312 c 0
 276.334960938 664.997070312 249.001953125 660.330078125 223.001953125 650.997070312 c 0
 196.334960938 640.997070312 174.334960938 625.997070312 157.001953125 605.997070312 c 0
 139.001953125 585.997070312 130.001953125 562.997070312 130.001953125 536.997070312 c 0
 130.668945312 506.997070312 142.668945312 481.997070312 166.001953125 461.997070312 c 0
 188.001953125 441.997070312 218.668945312 430.997070312 258.001953125 428.997070312 c 0
 292.001953125 426.997070312 321.668945312 421.330078125 347.001953125 411.997070312 c 0
 373.668945312 402.6640625 395.3359375 391.331054688 412.002929688 377.998046875 c 0
 428.669921875 364.665039062 442.502929688 348.998046875 453.502929688 330.998046875 c 0
 464.502929688 312.998046875 472.002929688 295.331054688 476.002929688 277.998046875 c 0
 480.002929688 260.665039062 482.002929688 241.998046875 482.002929688 221.998046875 c 0
 482.002929688 191.331054688 477.002929688 162.6640625 467.002929688 135.997070312 c 0
 457.002929688 109.330078125 443.169921875 86.1630859375 425.502929688 66.49609375 c 0
 407.8359375 46.8291015625 387.002929688 29.662109375 363.002929688 14.9951171875 c 0
 341.669921875 0.328125 318.002929688 -10.671875 292.002929688 -18.0048828125 c 0
 266.002929688 -25.337890625 239.3359375 -29.0048828125 212.002929688 -29.0048828125 c 0
 170.002929688 -29.0048828125 132.002929688 -20.0048828125 98.0029296875 -2.0048828125 c 0
 64.0029296875 15.9951171875 40.669921875 37.662109375 28.0029296875 62.9951171875 c 0
 22.0029296875 75.662109375 19.0029296875 86.3291015625 19.0029296875 94.99609375 c 0
 19.0029296875 97.6630859375 19.3330078125 100 20 102 c 0
EndSplineSet
Validated: 524289
EndChar

StartChar: T
Encoding: 84 84 53
Width: 500
GlyphClass: 2
Flags: HMW
HStem: 612 69<446.001 448.001 444.001 452.334> 640.499 54.499
VStem: 214 75 224 76.001
LayerCount: 2
Fore
SplineSet
57 694 m 0x60
 94.3330078125 688 224.000976562 683.666992188 446.000976562 681 c 0
 458.66796875 681 467.66796875 678 473.000976562 672 c 0
 478.333984375 666 481.333984375 658.666992188 482.000976562 650 c 0
 482.000976562 639.333007812 478.66796875 630 472.000976562 622 c 0
 466.66796875 615.333007812 458.66796875 612 448.000976562 612 c 2
 444.000976562 612 l 2
 425.333984375 610.366210938 406.87109375 609.549804688 388.612304688 609.549804688 c 0
 354.704101562 609.549804688 321.5 612.366210938 289 618 c 1xa0
 289.666992188 475.333007812 293.333984375 277.333007812 300.000976562 24 c 0
 299.333984375 12.6669921875 294.666992188 3.6669921875 286 -3 c 0
 277.333007812 -9.6669921875 268 -13 258 -13 c 1
 256.666992188 -19.6669921875 255.666992188 -19.6669921875 255 -13 c 1
 245 -13 237 -9.3330078125 231 -2 c 0
 226.333007812 3.3330078125 224 11 224 21 c 0x90
 224 23 224.166992188 26.6669921875 224.5 32 c 0
 224.833007812 37.3330078125 225 51.666015625 225 74.9990234375 c 0
 225 122.999023438 223.166992188 208.33203125 219.5 330.999023438 c 0
 215.833007812 453.666015625 214 540.999023438 214 592.999023438 c 2
 214 619.999023438 l 1
 125.333007812 624.666015625 74.3330078125 627.999023438 61 629.999023438 c 0
 47.6669921875 631.999023438 37.333984375 635.499023438 30.0009765625 640.499023438 c 0
 22.66796875 645.499023438 19.0009765625 651.999023438 19.0009765625 659.999023438 c 1
 18.333984375 653.999023438 18.0009765625 654.666015625 18.0009765625 661.999023438 c 0
 18.0009765625 671.33203125 21.333984375 679.665039062 28.0009765625 686.998046875 c 0
 32.66796875 692.331054688 39.3349609375 694.998046875 48.001953125 694.998046875 c 0
 50.6689453125 694.998046875 53.6669921875 694.666992188 57 694 c 0x60
EndSplineSet
Validated: 524289
EndChar

StartChar: U
Encoding: 85 85 54
Width: 500
GlyphClass: 2
Flags: HMW
HStem: -28.999 71 669.52 20G
VStem: 14.076 73.9219 412.999 74.001
LayerCount: 2
Fore
SplineSet
483 250 m 0
 482.333007812 220.666992188 478.5 193.334960938 471.5 168.001953125 c 0
 464.5 142.668945312 456 120.668945312 446 102.001953125 c 0
 436 83.3349609375 424.166992188 66.501953125 410.5 51.501953125 c 0
 396.833007812 36.501953125 382.333007812 24.001953125 367 14.001953125 c 0
 353 4.001953125 338.333007812 -4.1650390625 323 -10.498046875 c 0
 307.666992188 -16.8310546875 292.666992188 -21.498046875 278 -24.498046875 c 0
 263.333007812 -27.498046875 248.166015625 -28.998046875 232.499023438 -28.998046875 c 0
 216.83203125 -28.998046875 200.33203125 -26.498046875 182.999023438 -21.498046875 c 0
 165.666015625 -16.498046875 147.666015625 -7.6650390625 128.999023438 5.001953125 c 0
 108.999023438 17.6689453125 91.33203125 33.501953125 75.9990234375 52.501953125 c 0
 60.666015625 71.501953125 47.666015625 96.001953125 36.9990234375 126.001953125 c 0
 26.33203125 156.001953125 20.33203125 190.334960938 18.9990234375 229.001953125 c 0
 15.716796875 353.721679688 14.076171875 453.825195312 14.076171875 529.3125 c 0
 14.076171875 576.490234375 14.716796875 614.053710938 15.9990234375 642.001953125 c 0
 15.9990234375 657.334960938 20.166015625 669.16796875 28.4990234375 677.500976562 c 0
 36.51171875 685.513671875 45.9111328125 689.520507812 56.6982421875 689.520507812 c 0
 57.12890625 689.520507812 57.5625 689.513671875 57.998046875 689.500976562 c 0
 69.3310546875 689.16796875 77.3310546875 685.334960938 81.998046875 678.001953125 c 0
 85.998046875 671.334960938 87.998046875 661.334960938 87.998046875 648.001953125 c 0
 88.6650390625 422.001953125 90.6650390625 285.334960938 93.998046875 238.001953125 c 0
 95.3310546875 215.334960938 97.6640625 196.334960938 100.997070312 181.001953125 c 0
 104.330078125 165.668945312 109.997070312 149.168945312 117.997070312 131.501953125 c 0
 125.997070312 113.834960938 135.330078125 98.66796875 145.997070312 86.0009765625 c 0
 156.6640625 73.333984375 170.1640625 62.833984375 186.497070312 54.5009765625 c 0
 202.830078125 46.16796875 221.330078125 42.0009765625 241.997070312 42.0009765625 c 0
 288.6640625 42.66796875 326.331054688 59.66796875 354.998046875 93.0009765625 c 0
 385.665039062 126.333984375 403.33203125 176.666992188 407.999023438 244 c 0
 409.999023438 272.666992188 411.33203125 305.166992188 411.999023438 341.5 c 0
 412.666015625 377.833007812 412.999023438 405 412.999023438 423 c 0
 412.999023438 441 412.83203125 469.833007812 412.499023438 509.5 c 0
 412.166015625 549.166992188 411.999023438 590.666992188 411.999023438 634 c 0
 411.999023438 661.333007812 415.666015625 678 422.999023438 684 c 0
 426.33203125 686.666992188 429.83203125 688.5 433.499023438 689.5 c 0
 437.166015625 690.5 441.999023438 691 447.999023438 691 c 0
 457.33203125 691 465.33203125 687.166992188 471.999023438 679.5 c 0
 478.666015625 671.833007812 482.333007812 660.333007812 483 645 c 0
 485.666992188 593 487 534 487 468 c 0
 487 402 485.666992188 329.333007812 483 250 c 0
EndSplineSet
Validated: 524289
EndChar

